SplineFontDB: 3.0
FontName: tengtelcb
FullName: Tengwar Telcontar Bold
FamilyName: Tengwar Telcontar
Weight: Bold
Copyright: Copyright (c) 2005-2009 by Johan Winge
UComments: "2009-11-15: Created." 
Version: 0.08
ItalicAngle: 0
UnderlinePosition: -204.8
UnderlineWidth: 102.4
Ascent: 1638
Descent: 410
LayerCount: 2
Layer: 0 0 "Back"  1
Layer: 1 0 "Fore"  0
NeedsXUIDChange: 1
XUID: [1021 20 405084243 11832361]
OS2Version: 0
OS2_WeightWidthSlopeOnly: 0
OS2_UseTypoMetrics: 1
CreationTime: 1258317756
ModificationTime: 1258318117
OS2TypoAscent: 0
OS2TypoAOffset: 1
OS2TypoDescent: 0
OS2TypoDOffset: 1
OS2TypoLinegap: 0
OS2WinAscent: 0
OS2WinAOffset: 1
OS2WinDescent: 0
OS2WinDOffset: 1
HheadAscent: 0
HheadAOffset: 1
HheadDescent: 0
HheadDOffset: 1
OS2Vendor: 'PfEd'
DEI: 91125
LangName: 1033 "" "" "" "FontForge: Tengwar Telcontar Bold 0.08" "" "" "" "" "" "Johan Winge" "" "http://home.student.uu.se/jowi4905/fonts/tengtelc/" "http://home.student.uu.se/jowi4905/fonts/tengtelc/" "Tengwar Telcontar is distributed under the terms of the GNU General Public License." 
Encoding: UnicodeBmp
Compacted: 1
UnicodeInterp: none
NameList: Adobe Glyph List
DisplaySize: 2000
AntiAlias: 1
FitToEm: 1
BeginChars: 65850 566

StartChar: numbersign
Encoding: 35 35 0
Width: 1482
VWidth: 0
Flags: HW
LayerCount: 2
Fore
SplineSet
261 -272 m 0
 261 -266 325 96 328 108 c 1
 147 109 l 2
 -38 109 -38 106 -38 118 c 0
 -38 154 75 263 162 296 c 1
 261 296 l 2
 316 296 361 297 361 297 c 0
 361 297 375 376 392 472 c 0
 409 568 422 647 422 648 c 0
 422 650 395 650 242 650 c 2
 62 650 l 1
 38 679 167 804 258 837 c 1
 456 838 l 1
 478 964 l 2
 502 1101 494 1096 541 1134 c 0
 587 1171 684 1227 731 1227 c 0
 744 1227 746 1222 746 1220 c 0
 746 1211 683 857 679 838 c 1
 931 838 l 1
 953 964 l 2
 978 1106 976 1095 992 1112 c 0
 1031 1153 1149 1227 1206 1227 c 0
 1215 1227 1221 1225 1221 1218 c 0
 1221 1212 1158 850 1155 838 c 1
 1335 838 l 2
 1520 838 1520 840 1520 828 c 0
 1520 792 1407 683 1320 650 c 1
 1221 650 l 2
 1166 650 1121 649 1121 649 c 0
 1121 649 1108 570 1091 474 c 0
 1074 378 1060 299 1060 298 c 0
 1060 296 1087 296 1240 296 c 2
 1420 296 l 1
 1444 267 1315 142 1224 109 c 1
 1026 108 l 1
 1004 -17 l 2
 980 -153 989 -150 942 -188 c 0
 881 -237 789 -281 751 -281 c 0
 738 -281 737 -276 737 -274 c 0
 737 -265 799 89 803 108 c 1
 551 108 l 1
 529 -17 l 2
 504 -159 506 -149 490 -166 c 0
 451 -207 333 -280 276 -280 c 0
 267 -280 261 -279 261 -272 c 0
898 650 m 1
 647 650 l 1
 584 296 l 1
 836 296 l 1
 898 650 l 1
EndSplineSet
EndChar

StartChar: dollar
Encoding: 36 36 1
Width: 1260
VWidth: 0
Flags: HW
LayerCount: 2
Fore
SplineSet
497 -31 m 0
 139 -31 37 246 37 246 c 0
 37 293 243 427 267 402 c 0
 279 389 328 263 484 186 c 0
 500 178 534 165 537 165 c 0
 538 165 538 269 538 397 c 2
 538 629 l 1
 511 634 l 2
 351 668 96 734 135 982 c 0
 162 1154 375 1293 537 1360 c 1
 538 1494 l 1
 572 1572 695 1680 732 1680 c 0
 745 1680 742 1682 742 1539 c 2
 742 1405 l 1
 751 1406 756 1407 788 1407 c 0
 1075 1407 1180 1207 1180 1207 c 0
 1180 1166 993 1033 952 1049 c 0
 942 1053 900 1145 743 1210 c 1
 743 1006 l 2
 743 970 743 936 743 907 c 0
 743 844 743 801 743 801 c 0
 746 798 854 782 957 752 c 0
 1116 706 1223 633 1223 471 c 0
 1223 286 1021 103 743 7 c 1
 742 -118 l 1
 707 -199 584 -304 548 -304 c 0
 534 -304 538 -302 538 -162 c 2
 538 -29 l 1
 531 -31 524 -31 497 -31 c 0
538 859 m 1
 538 1235 l 1
 489 1234 410 1213 398 1207 c 0
 392 1204 366 1159 366 1090 c 0
 366 949 466 889 538 859 c 1
742 361 m 2
 742 140 l 2
 742 140 934 159 955 192 c 0
 978 228 989 272 989 322 c 0
 989 478 882 537 744 581 c 0
 743 581 742 537 742 361 c 2
EndSplineSet
EndChar

StartChar: percent
Encoding: 37 37 2
Width: 1418
VWidth: 0
Flags: HW
LayerCount: 2
Fore
SplineSet
949 -52 m 0
 825 -52 726 54 726 192 c 0
 726 402 1027 613 1196 584 c 0
 1300 566 1382 468 1382 343 c 0
 1382 123 1083 -52 949 -52 c 0
960 343 m 0
 960 239 1023 153 1104 127 c 0
 1116 123 1136 119 1137 120 c 0
 1140 123 1148 166 1148 192 c 0
 1148 315 1062 403 977 415 c 0
 972 416 971 416 970 413 c 0
 963 390 960 366 960 343 c 0
261 754 m 0
 137 754 38 859 38 997 c 0
 38 1207 338 1418 507 1389 c 0
 611 1371 693 1273 693 1148 c 0
 693 928 395 754 261 754 c 0
271 1148 m 0
 271 1044 334 958 415 932 c 0
 427 928 448 924 449 925 c 0
 452 928 460 971 460 997 c 0
 460 1120 373 1208 288 1220 c 0
 283 1221 282 1221 281 1218 c 0
 274 1195 271 1171 271 1148 c 0
1370 1407 m 0
 1382 1407 1392 1407 1392 1397 c 0
 1392 1394 1391 1391 1389 1388 c 0
 1385 1382 280 48 271 38 c 0
 231 -6 99 -66 45 -66 c 0
 32 -66 25 -63 25 -56 c 0
 25 -54 26 -51 28 -48 c 0
 34 -39 1140 1296 1151 1307 c 0
 1201 1356 1326 1407 1370 1407 c 0
EndSplineSet
EndChar

StartChar: ampersand
Encoding: 38 38 3
Width: 1661
VWidth: 0
Flags: HW
LayerCount: 2
Fore
SplineSet
421 1037 m 0
 421 1255 722 1438 871 1438 c 0
 1071 1438 1121 1304 1121 1215 c 0
 1121 1045 959 935 876 882 c 1
 1034 775 1123 501 1132 505 c 0
 1142 509 1402 848 1455 899 c 0
 1541 982 1654 1028 1650 995 c 0
 1649 987 1643 977 1624 955 c 2
 1491 791 l 1
 1339 602 1280 532 1199 444 c 2
 1174 417 l 1
 1189 389 l 2
 1229 314 1324 139 1488 139 c 0
 1534 139 1543 153 1564 170 c 0
 1614 211 1662 239 1683 239 c 0
 1689 239 1695 234 1695 230 c 0
 1695 185 1466 -31 1286 -31 c 0
 1115 -31 1028 103 961 221 c 1
 774 72 575 -31 399 -31 c 0
 191 -31 77 157 77 334 c 0
 77 656 417 831 494 870 c 1
 476 888 421 937 421 1037 c 0
676 1268 m 0
 653 1268 615 1055 787 999 c 0
 811 991 847 984 864 984 c 0
 866 984 866 984 873 984 c 1
 924 1144 819 1268 676 1268 c 0
608 139 m 0
 806 139 927 284 927 284 c 0
 927 287 923 295 909 325 c 2
 877 391 l 2
 741 677 653 755 508 755 c 0
 463 755 407 745 394 731 c 0
 372 707 311 618 311 477 c 0
 311 320 420 139 608 139 c 0
EndSplineSet
EndChar

StartChar: asterisk
Encoding: 42 42 4
Width: 1418
VWidth: 0
Flags: HW
LayerCount: 2
Fore
SplineSet
1203 1084 m 1
 1206 1082 1210 1080 1210 1074 c 0
 1210 1047 1109 952 1000 914 c 1
 943 914 l 2
 912 914 886 913 886 913 c 0
 886 913 921 852 963 779 c 0
 1015 688 1039 644 1039 642 c 0
 1039 607 813 634 769 678 c 0
 765 682 756 698 732 739 c 2
 700 794 l 1
 673 748 l 2
 656 719 644 699 641 696 c 0
 610 664 484 609 408 609 c 0
 367 609 382 619 470 771 c 2
 552 913 l 1
 383 913 l 2
 209 914 209 911 209 923 c 0
 209 951 311 1045 418 1083 c 1
 532 1084 l 1
 456 1216 l 2
 374 1358 364 1360 403 1368 c 0
 464 1380 615 1348 648 1319 c 0
 652 1315 660 1302 686 1258 c 2
 718 1202 l 1
 745 1248 l 2
 757 1268 769 1331 940 1376 c 0
 971 1384 991 1387 1004 1387 c 0
 1054 1387 1035 1376 950 1228 c 0
 905 1150 868 1086 868 1085 c 0
 867 1084 893 1084 1035 1084 c 2
 1203 1084 l 1
EndSplineSet
EndChar

StartChar: equal
Encoding: 61 61 5
Width: 1370
VWidth: 0
Flags: HW
LayerCount: 2
Fore
SplineSet
830 374 m 2
 1377 374 1377 380 1377 365 c 0
 1377 334 1272 224 1177 187 c 1
 591 187 l 2
 498 187 409 187 330 187 c 0
 -8 187 -7 182 -7 196 c 0
 -7 231 120 354 191 373 c 0
 196 374 296 374 783 374 c 2
 830 374 l 2
830 709 m 2
 1377 709 1377 714 1377 699 c 0
 1377 668 1272 558 1177 521 c 1
 591 521 l 2
 497 521 408 521 329 521 c 0
 -8 521 -7 516 -7 530 c 0
 -7 565 120 688 191 707 c 0
 196 708 296 709 783 709 c 2
 830 709 l 2
EndSplineSet
EndChar

StartChar: figuredash
Encoding: 8210 8210 6
Width: 1370
VWidth: 0
Flags: HW
LayerCount: 2
Fore
SplineSet
830 542 m 2
 1377 542 1377 547 1377 532 c 0
 1377 501 1272 392 1177 355 c 1
 591 354 l 2
 497 354 408 354 329 354 c 0
 -8 354 -7 350 -7 364 c 0
 -7 399 120 521 191 540 c 0
 196 541 296 542 783 542 c 2
 830 542 l 2
EndSplineSet
EndChar

StartChar: plus
Encoding: 43 43 7
Width: 1370
VWidth: 0
Flags: HW
LayerCount: 2
Fore
SplineSet
784 1123 m 2
 791 1123 791 1123 795 1117 c 1
 795 542 l 1
 1082 542 l 2
 1377 542 1377 545 1377 532 c 0
 1377 501 1272 392 1177 355 c 1
 795 354 l 1
 794 -57 l 1
 760 -122 636 -228 584 -228 c 0
 580 -228 580 -228 575 -222 c 1
 575 354 l 1
 288 354 l 2
 -7 354 -7 351 -7 364 c 0
 -7 395 98 505 193 542 c 1
 575 542 l 1
 575 952 l 1
 616 1032 745 1123 783 1123 c 2
 784 1123 l 2
EndSplineSet
EndChar

StartChar: slash
Encoding: 47 47 8
Width: 1101
VWidth: 0
Flags: HW
LayerCount: 2
Fore
SplineSet
46 -434 m 0
 33 -434 30 -430 31 -424 c 0
 32 -419 820 1592 827 1606 c 0
 848 1649 996 1739 1054 1739 c 2
 1056 1739 l 2
 1067 1739 1071 1736 1070 1729 c 0
 1069 1724 281 -287 274 -301 c 0
 254 -343 107 -434 46 -434 c 0
EndSplineSet
EndChar

StartChar: zero
Encoding: 48 48 9
Width: 1152
VWidth: 0
Flags: HW
LayerCount: 2
Fore
SplineSet
471 -30 m 0
 229 -30 62 162 62 371 c 0
 62 704 478 926 667 926 c 0
 947 926 1089 711 1089 524 c 0
 1089 211 705 -30 471 -30 c 0
855 369 m 0
 855 575 698 756 463 756 c 0
 426 756 370 745 364 737 c 0
 337 704 296 624 296 526 c 0
 296 297 479 139 683 139 c 0
 728 139 780 150 786 158 c 0
 813 192 855 271 855 369 c 0
EndSplineSet
EndChar

StartChar: one
Encoding: 49 49 10
Width: 835
VWidth: 0
Flags: HW
LayerCount: 2
Fore
SplineSet
63 10 m 0
 63 35 196 165 300 170 c 1
 300 418 l 2
 300 616 299 665 298 665 c 0
 297 665 188 580 135 576 c 0
 65 571 239 704 239 704 c 0
 287 747 304 789 346 826 c 0
 401 875 485 926 520 926 c 0
 541 926 534 926 534 545 c 2
 534 170 l 1
 649 170 l 2
 748 170 772 175 772 160 c 0
 772 133 672 38 563 0 c 1
 70 -0 l 1
 67 2 63 4 63 10 c 0
EndSplineSet
EndChar

StartChar: two
Encoding: 50 50 11
Width: 1152
VWidth: 0
Flags: HW
LayerCount: 2
Fore
SplineSet
483 756 m 0
 248 756 207 623 132 623 c 0
 66 623 336 926 677 926 c 0
 814 926 935 869 935 741 c 0
 935 394 472 183 472 171 c 0
 472 170 583 170 776 170 c 2
 1082 170 l 1
 1086 167 1089 165 1089 160 c 0
 1089 128 978 34 880 0 c 1
 70 -0 l 1
 66 3 63 4 63 9 c 0
 63 32 145 121 280 172 c 0
 495 252 701 328 701 590 c 0
 701 706 584 756 483 756 c 0
EndSplineSet
EndChar

StartChar: three
Encoding: 51 51 12
Width: 1152
VWidth: 0
Flags: HW
LayerCount: 2
Fore
SplineSet
483 756 m 0
 250 756 206 623 132 623 c 0
 111 623 118 652 173 707 c 0
 274 808 461 926 677 926 c 0
 1050 926 1000 563 670 292 c 1
 952 276 1089 88 1089 -109 c 0
 1089 -516 621 -843 290 -843 c 0
 233 -843 172 -837 101 -813 c 0
 69 -802 63 -801 63 -793 c 0
 63 -763 230 -611 305 -639 c 0
 376 -665 442 -673 494 -673 c 0
 712 -673 755 -586 796 -507 c 0
 830 -441 855 -357 855 -257 c 0
 855 -36 669 121 459 121 c 0
 351 121 293 75 293 103 c 0
 293 133 406 227 481 256 c 0
 543 280 567 293 590 316 c 0
 710 436 712 606 689 653 c 0
 658 716 576 756 483 756 c 0
EndSplineSet
EndChar

StartChar: four
Encoding: 52 52 13
Width: 1311
VWidth: 0
Flags: HW
LayerCount: 2
Fore
SplineSet
70 -0 m 1
 67 2 63 3 63 9 c 0
 63 15 67 24 73 32 c 0
 77 37 710 780 728 800 c 0
 778 857 888 926 928 926 c 0
 949 926 942 926 942 545 c 2
 942 170 l 1
 1092 170 l 2
 1248 170 1248 173 1248 160 c 0
 1248 133 1148 38 1039 0 c 1
 942 -1 l 1
 942 -279 l 2
 942 -521 942 -559 940 -564 c 0
 923 -612 772 -717 721 -717 c 0
 702 -717 708 -718 708 -356 c 2
 708 -0 l 1
 70 -0 l 1
708 267 m 0
 708 305 708 351 708 401 c 2
 707 631 l 1
 314 170 l 1
 511 170 l 2
 553 170 592 170 624 170 c 0
 674 170 707 170 707 170 c 0
 707 170 708 208 708 267 c 0
EndSplineSet
EndChar

StartChar: five
Encoding: 53 53 14
Width: 1072
VWidth: 0
Flags: HW
LayerCount: 2
Fore
SplineSet
1003 896 m 1
 1006 894 1010 891 1010 885 c 0
 1010 858 910 764 801 726 c 1
 296 725 l 1
 296 550 l 2
 296 453 296 375 296 375 c 0
 297 375 391 423 500 423 c 0
 681 423 882 286 882 43 c 0
 882 -490 135 -802 75 -802 c 0
 67 -802 63 -799 63 -793 c 0
 63 -766 157 -677 266 -635 c 0
 384 -590 501 -530 587 -358 c 0
 618 -296 647 -212 647 -105 c 0
 647 112 473 252 288 252 c 0
 155 252 96 155 61 190 c 1
 62 740 l 1
 91 797 211 878 268 893 c 0
 277 895 291 895 640 895 c 2
 1003 896 l 1
EndSplineSet
EndChar

StartChar: six
Encoding: 54 54 15
Width: 1231
VWidth: 0
Flags: HW
LayerCount: 2
Fore
SplineSet
471 -31 m 0
 225 -31 62 188 62 451 c 0
 62 909 384 1389 879 1637 c 0
 918 1657 936 1663 951 1663 c 0
 968 1663 969 1650 952 1629 c 0
 844 1489 671 1526 461 1172 c 0
 143 637 325 139 677 139 c 0
 744 139 798 153 845 171 c 1
 893 229 934 307 934 416 c 0
 934 609 762 756 555 756 c 0
 435 756 411 692 330 671 c 0
 305 664 296 672 306 690 c 0
 334 744 570 926 765 926 c 0
 968 926 1168 788 1168 566 c 0
 1168 232 735 -31 471 -31 c 0
EndSplineSet
EndChar

StartChar: seven
Encoding: 55 55 16
Width: 1231
VWidth: 0
Flags: HW
LayerCount: 2
Fore
SplineSet
1162 896 m 1
 1166 893 1169 892 1169 886 c 0
 1169 880 469 -649 461 -662 c 0
 436 -699 310 -802 247 -802 c 0
 241 -802 236 -797 237 -791 c 0
 237 -789 393 -447 583 -31 c 2
 929 725 l 1
 498 725 l 2
 62 726 63 722 63 735 c 0
 63 767 190 872 268 893 c 0
 277 895 290 895 719 895 c 2
 1162 896 l 1
EndSplineSet
EndChar

StartChar: eight
Encoding: 56 56 17
Width: 1231
VWidth: 0
Flags: HW
LayerCount: 2
Fore
SplineSet
441 835 m 1
 332 896 164 995 164 1195 c 0
 164 1441 510 1663 718 1663 c 0
 922 1663 1067 1518 1067 1345 c 0
 1067 1184 950 1057 780 942 c 1
 820 922 l 2
 975 843 1168 741 1168 522 c 0
 1168 233 783 -31 510 -31 c 0
 258 -31 62 151 62 373 c 0
 62 463 89 622 419 821 c 2
 441 835 l 1
833 1195 m 0
 833 1377 668 1493 515 1493 c 0
 428 1493 433 1480 424 1462 c 0
 407 1428 398 1388 398 1344 c 0
 398 1177 520 1076 712 977 c 1
 714 978 833 1022 833 1195 c 0
296 522 m 0
 296 308 488 140 718 140 c 0
 787 140 856 155 868 170 c 0
 890 196 934 267 934 375 c 0
 934 580 751 676 578 764 c 0
 504 802 538 807 430 749 c 0
 400 733 296 696 296 522 c 0
EndSplineSet
EndChar

StartChar: nine
Encoding: 57 57 18
Width: 1231
VWidth: 0
Flags: HW
LayerCount: 2
Fore
SplineSet
464 -31 m 0
 266 -31 62 104 62 329 c 0
 62 402 74 559 289 732 c 0
 424 841 591 926 760 926 c 0
 1005 926 1168 706 1168 443 c 0
 1168 -4 842 -447 385 -675 c 0
 327 -704 296 -717 280 -717 c 0
 273 -717 268 -714 268 -708 c 0
 268 -681 353 -602 454 -556 c 0
 711 -439 934 -67 934 295 c 0
 934 569 756 756 553 756 c 0
 486 756 432 742 385 724 c 1
 337 666 296 589 296 480 c 0
 296 268 493 139 672 139 c 0
 797 139 820 203 901 224 c 0
 926 231 935 223 925 205 c 0
 898 153 664 -31 464 -31 c 0
EndSplineSet
EndChar

StartChar: at
Encoding: 64 64 19
Width: 1803
VWidth: 0
Flags: HW
LayerCount: 2
Fore
SplineSet
146 1003 m 0
 146 1063 546 1425 999 1425 c 0
 1384 1425 1658 1077 1658 685 c 0
 1658 415 1537 255 1409 144 c 0
 1251 7 1163 -7 1111 3 c 0
 1002 25 938 139 934 139 c 0
 925 140 738 -31 503 -31 c 0
 372 -31 268 42 268 151 c 0
 268 385 625 539 683 616 c 0
 702 641 622 707 571 707 c 0
 547 707 517 690 519 712 c 0
 523 747 662 895 767 895 c 0
 944 895 1054 475 1147 327 c 0
 1201 241 1273 188 1338 188 c 0
 1340 188 1341 188 1354 188 c 1
 1389 241 1437 350 1437 514 c 0
 1437 882 1192 1237 793 1237 c 0
 396 1237 233 994 158 994 c 0
 150 994 146 997 146 1003 c 0
503 296 m 0
 503 201 605 139 707 139 c 0
 772 139 850 155 869 175 c 0
 877 184 896 208 896 210 c 0
 896 217 738 557 731 562 c 0
 729 563 731 560 621 485 c 0
 561 444 503 416 503 296 c 0
EndSplineSet
EndChar

StartChar: B
Encoding: 66 66 20
Width: 1311
VWidth: 0
Flags: HW
LayerCount: 2
Fore
SplineSet
300 1663 m 0
 667 1663 1106 1647 1106 1310 c 0
 1106 1167 1006 1050 842 952 c 0
 827 943 835 945 854 941 c 0
 1206 868 1247 686 1247 564 c 0
 1247 457 1212 377 1134 297 c 0
 876 30 529 0 107 -0 c 0
 68 0 64 0 62 5 c 0
 62 6 61 344 61 756 c 0
 61 1410 61 1505 63 1510 c 0
 73 1538 201 1663 300 1663 c 0
296 1490 m 1
 296 980 l 1
 624 981 740 1002 842 1035 c 1
 847 1047 872 1086 872 1163 c 0
 872 1427 570 1477 296 1490 c 1
301 807 m 2
 296 807 l 1
 296 170 l 1
 342 170 l 2
 683 170 854 201 968 245 c 1
 991 283 1013 330 1013 414 c 0
 1013 728 668 790 333 806 c 0
 318 807 304 807 301 807 c 2
EndSplineSet
EndChar

StartChar: C
Encoding: 67 67 21
Width: 1311
VWidth: 0
Flags: HW
LayerCount: 2
Fore
SplineSet
552 -31 m 0
 164 -31 62 446 62 755 c 0
 62 1351 557 1663 853 1663 c 0
 1127 1663 1248 1440 1248 1425 c 0
 1248 1390 1095 1271 1031 1266 c 0
 1001 1264 1005 1330 894 1411 c 0
 828 1459 744 1493 644 1493 c 0
 617 1493 513 1488 480 1453 c 0
 420 1390 296 1205 296 909 c 0
 296 442 482 140 760 140 c 0
 819 140 897 151 919 178 c 0
 1018 297 1010 429 1017 445 c 0
 1039 493 1186 596 1236 596 c 0
 1248 596 1248 591 1248 583 c 0
 1248 278 849 -31 552 -31 c 0
EndSplineSet
EndChar

StartChar: D
Encoding: 68 68 22
Width: 1311
VWidth: 0
Flags: HW
LayerCount: 2
Fore
SplineSet
289 1663 m 0
 743 1663 1247 1496 1247 828 c 0
 1247 576 1142 419 987 289 c 0
 718 64 416 0 87 -0 c 0
 68 0 65 1 63 5 c 0
 62 6 61 279 61 756 c 0
 61 1410 61 1505 63 1510 c 0
 77 1550 219 1663 289 1663 c 0
296 1479 m 1
 296 170 l 1
 315 170 l 2
 570 170 827 229 891 301 c 0
 931 345 1013 456 1013 689 c 0
 1013 1163 730 1420 296 1479 c 1
EndSplineSet
EndChar

StartChar: E
Encoding: 69 69 23
Width: 1152
VWidth: 0
Flags: HW
LayerCount: 2
Fore
SplineSet
66 0 m 1
 60 8 61 0 61 755 c 0
 61 1410 61 1505 63 1510 c 0
 78 1552 202 1644 267 1661 c 0
 276 1663 284 1663 639 1663 c 2
 1003 1664 l 1
 1037 1637 899 1528 801 1494 c 1
 296 1493 l 1
 296 981 l 1
 765 981 l 1
 799 954 661 846 563 812 c 1
 296 811 l 1
 296 170 l 1
 1082 170 l 1
 1085 168 1089 166 1089 160 c 0
 1089 133 987 38 880 0 c 1
 66 0 l 1
EndSplineSet
EndChar

StartChar: G
Encoding: 71 71 24
Width: 1311
VWidth: 0
Flags: HW
LayerCount: 2
Fore
SplineSet
514 -31 m 0
 152 -31 62 416 62 751 c 0
 62 1215 306 1426 446 1524 c 0
 540 1590 672 1663 822 1663 c 0
 1087 1663 1203 1438 1195 1417 c 0
 1173 1361 993 1247 968 1267 c 0
 965 1269 871 1493 614 1493 c 0
 570 1493 494 1484 473 1461 c 0
 407 1388 296 1209 296 890 c 0
 296 586 382 139 723 139 c 0
 786 139 874 155 897 181 c 0
 975 271 1006 386 1006 480 c 0
 1006 524 1004 603 954 702 c 2
 943 725 l 1
 812 725 l 2
 688 726 681 726 679 728 c 0
 650 754 799 865 885 895 c 1
 1024 895 l 2
 1044 895 1061 895 1077 895 c 0
 1137 895 1164 895 1166 894 c 0
 1175 890 1240 775 1240 633 c 0
 1240 265 808 -31 514 -31 c 0
EndSplineSet
EndChar

StartChar: H
Encoding: 72 72 25
Width: 1152
VWidth: 0
Flags: HW
LayerCount: 2
Fore
SplineSet
868 -0 m 0
 849 0 855 0 855 409 c 2
 855 811 l 1
 296 811 l 1
 296 485 l 2
 296 202 296 158 294 153 c 0
 277 105 125 0 74 -0 c 0
 69 0 66 1 64 3 c 0
 62 6 61 33 61 755 c 0
 61 1410 61 1505 63 1510 c 0
 80 1558 233 1663 282 1663 c 0
 287 1663 291 1662 293 1660 c 0
 295 1657 296 1646 296 1319 c 2
 296 981 l 1
 855 981 l 1
 855 1243 l 2
 855 1470 855 1505 857 1510 c 0
 874 1558 1025 1663 1076 1663 c 0
 1081 1663 1085 1662 1087 1660 c 0
 1089 1657 1089 1630 1089 908 c 0
 1089 253 1089 158 1087 153 c 0
 1070 105 919 0 868 -0 c 0
EndSplineSet
EndChar

StartChar: I
Encoding: 73 73 26
Width: 913
VWidth: 0
Flags: HW
LayerCount: 2
Fore
SplineSet
844 1664 m 1
 847 1662 851 1659 851 1653 c 0
 851 1626 748 1531 642 1494 c 1
 573 1493 l 1
 573 170 l 1
 709 170 l 2
 846 170 851 173 851 160 c 0
 851 133 751 38 642 0 c 1
 70 -0 l 1
 67 2 63 4 63 10 c 0
 63 37 165 132 272 169 c 1
 339 170 l 1
 339 1493 l 1
 204 1493 l 2
 67 1493 63 1490 63 1503 c 0
 63 1535 191 1640 268 1661 c 0
 277 1663 287 1663 561 1663 c 2
 844 1664 l 1
EndSplineSet
EndChar

StartChar: J
Encoding: 74 74 27
Width: 1231
VWidth: 0
Flags: HW
LayerCount: 2
Fore
SplineSet
511 -31 m 0
 202 -31 63 235 63 257 c 0
 63 295 218 411 278 416 c 0
 292 417 292 418 303 397 c 0
 420 174 630 139 719 139 c 0
 754 139 831 146 851 170 c 0
 956 301 934 394 934 939 c 2
 934 1493 l 1
 430 1493 l 1
 393 1522 560 1642 629 1661 c 0
 645 1665 885 1663 1004 1663 c 0
 1178 1663 1166 1663 1168 1657 c 0
 1168 1656 1168 1549 1168 1391 c 0
 1168 1234 1169 540 1166 520 c 0
 1123 204 752 -31 511 -31 c 0
EndSplineSet
EndChar

StartChar: K
Encoding: 75 75 28
Width: 1231
VWidth: 0
Flags: HW
LayerCount: 2
Fore
SplineSet
282 1663 m 0
 303 1663 295 1663 296 1284 c 2
 296 910 l 1
 874 1543 l 1
 929 1600 1030 1663 1069 1663 c 0
 1077 1663 1082 1660 1082 1654 c 1
 1082 1654 1088 1648 802 1334 c 0
 657 1175 539 1045 539 1045 c 0
 539 1042 1167 170 1168 161 c 0
 1172 123 1005 0 946 -0 c 0
 931 0 368 806 346 829 c 0
 344 831 343 830 320 805 c 2
 296 779 l 1
 296 469 l 2
 296 200 296 158 294 153 c 0
 277 105 125 0 74 -0 c 0
 69 0 66 1 64 3 c 0
 62 6 61 33 61 755 c 0
 61 1410 61 1505 63 1510 c 0
 80 1559 233 1663 282 1663 c 0
EndSplineSet
EndChar

StartChar: L
Encoding: 76 76 29
Width: 1152
VWidth: 0
Flags: HW
LayerCount: 2
Fore
SplineSet
66 0 m 1
 60 8 61 0 61 755 c 0
 61 1410 61 1505 63 1510 c 0
 80 1558 233 1663 282 1663 c 0
 287 1663 291 1662 293 1660 c 0
 295 1657 296 1635 296 913 c 2
 296 170 l 1
 1082 170 l 1
 1085 168 1089 166 1089 160 c 0
 1089 133 987 38 880 0 c 1
 66 0 l 1
EndSplineSet
EndChar

StartChar: M
Encoding: 77 77 30
Width: 1390
VWidth: 0
Flags: HW
LayerCount: 2
Fore
SplineSet
282 1663 m 0
 296 1663 287 1668 522 1357 c 0
 708 1110 750 1057 751 1058 c 0
 761 1069 1097 1519 1117 1542 c 0
 1163 1593 1272 1663 1314 1663 c 0
 1319 1663 1323 1662 1325 1660 c 0
 1327 1657 1327 1630 1327 908 c 0
 1327 253 1327 158 1325 153 c 0
 1309 108 1161 0 1106 -0 c 0
 1101 0 1098 1 1096 3 c 0
 1094 5 1094 50 1093 670 c 2
 1092 1335 l 1
 943 1137 l 2
 797 944 773 894 648 831 c 0
 627 820 591 803 580 814 c 0
 578 816 513 902 436 1004 c 2
 296 1189 l 1
 295 155 l 1
 263 90 118 0 74 -0 c 0
 69 0 66 1 64 3 c 0
 62 6 61 33 61 755 c 0
 61 1410 61 1505 63 1510 c 0
 80 1558 233 1663 282 1663 c 0
EndSplineSet
EndChar

StartChar: N
Encoding: 78 78 31
Width: 1231
VWidth: 0
Flags: HW
LayerCount: 2
Fore
SplineSet
282 1663 m 0
 287 1663 291 1662 293 1660 c 0
 294 1659 438 1412 614 1111 c 2
 934 564 l 1
 935 1508 l 1
 967 1573 1112 1663 1156 1663 c 0
 1161 1663 1164 1662 1166 1660 c 0
 1168 1657 1169 1630 1169 908 c 0
 1169 253 1169 158 1167 153 c 0
 1151 108 1002 0 947 -0 c 0
 942 0 939 1 937 3 c 0
 936 4 792 251 616 552 c 2
 296 1099 l 1
 295 155 l 1
 263 90 118 0 74 -0 c 0
 69 0 66 1 64 3 c 0
 62 6 61 33 61 755 c 0
 61 1410 61 1505 63 1510 c 0
 80 1559 233 1663 282 1663 c 0
EndSplineSet
EndChar

StartChar: O
Encoding: 79 79 32
Width: 1470
VWidth: 0
Flags: HW
LayerCount: 2
Fore
SplineSet
630 -31 m 0
 246 -31 62 378 62 741 c 0
 62 1390 585 1663 829 1663 c 0
 1230 1663 1406 1248 1406 892 c 0
 1406 623 1315 362 1106 181 c 0
 993 83 820 -31 630 -31 c 0
1172 749 m 0
 1172 1095 990 1493 631 1493 c 0
 575 1493 503 1483 480 1459 c 0
 405 1381 296 1182 296 884 c 0
 296 489 513 139 838 139 c 0
 896 139 967 151 988 173 c 0
 1063 251 1172 451 1172 749 c 0
EndSplineSet
EndChar

StartChar: Q
Encoding: 81 81 33
Width: 1311
VWidth: 0
Flags: HW
LayerCount: 2
Fore
SplineSet
550 -30 m 0
 173 -30 62 421 62 742 c 0
 62 1186 238 1388 348 1481 c 0
 522 1628 667 1663 747 1663 c 0
 1148 1663 1248 1197 1248 890 c 0
 1248 433 1057 246 1013 199 c 1
 1116 19 l 2
 1192 -112 1220 -161 1220 -164 c 0
 1220 -204 1054 -324 1000 -324 c 0
 988 -324 992 -328 887 -146 c 0
 831 -49 786 30 786 31 c 0
 783 38 699 -30 550 -30 c 0
1014 741 m 0
 1014 1140 858 1493 545 1493 c 0
 447 1493 446 1466 446 1466 c 0
 351 1340 296 1127 296 891 c 0
 296 589 395 211 680 148 c 0
 694 145 717 141 721 141 c 0
 721 141 707 167 630 300 c 0
 563 417 539 459 539 462 c 0
 539 509 742 643 769 619 c 0
 774 615 940 323 943 319 c 0
 944 318 1014 480 1014 741 c 0
EndSplineSet
EndChar

StartChar: R
Encoding: 82 82 34
Width: 1311
VWidth: 0
Flags: HW
LayerCount: 2
Fore
SplineSet
301 1663 m 0
 640 1663 1106 1657 1106 1313 c 0
 1106 1032 712 889 713 886 c 0
 714 881 1247 170 1248 161 c 0
 1252 125 1088 0 1025 -0 c 0
 1011 0 426 805 410 821 c 0
 409 822 296 815 296 815 c 2
 296 487 l 2
 296 202 296 158 294 153 c 0
 277 105 125 0 74 -0 c 0
 69 0 66 1 64 3 c 0
 62 6 61 33 61 755 c 0
 61 1410 61 1505 63 1510 c 0
 73 1538 202 1663 301 1663 c 0
301 1489 m 2
 296 1489 l 1
 296 981 l 1
 340 981 l 2
 617 981 748 1006 843 1036 c 1
 848 1048 872 1087 872 1164 c 0
 872 1403 631 1470 337 1488 c 0
 320 1489 304 1489 301 1489 c 2
EndSplineSet
EndChar

StartChar: U
Encoding: 85 85 35
Width: 1231
VWidth: 0
Flags: HW
LayerCount: 2
Fore
SplineSet
1156 1663 m 0
 1176 1663 1169 1663 1169 1170 c 0
 1169 679 1196 491 1032 271 c 0
 943 151 722 -31 511 -31 c 0
 223 -31 78 252 63 513 c 0
 62 528 61 707 61 1020 c 0
 61 1442 61 1505 63 1510 c 0
 80 1559 233 1663 282 1663 c 0
 287 1663 291 1662 293 1660 c 0
 301 1652 287 706 303 592 c 0
 335 367 480 139 718 139 c 0
 762 139 780 144 808 151 c 1
 962 345 933 530 934 1004 c 2
 935 1508 l 1
 967 1573 1112 1663 1156 1663 c 0
EndSplineSet
EndChar

StartChar: V
Encoding: 86 86 36
Width: 1390
VWidth: 0
Flags: HW
LayerCount: 2
Fore
SplineSet
63 1504 m 0
 63 1543 229 1663 283 1663 c 0
 298 1663 293 1666 508 1030 c 0
 625 685 721 403 721 404 c 0
 721 405 803 645 903 940 c 2
 1091 1495 l 2
 1117 1572 1273 1663 1317 1663 c 0
 1322 1663 1327 1659 1327 1654 c 0
 1327 1651 985 637 815 137 c 0
 789 59 633 -31 589 -31 c 0
 578 -31 581 -32 321 737 c 0
 179 1157 63 1502 63 1504 c 0
EndSplineSet
EndChar

StartChar: X
Encoding: 88 88 37
Width: 1311
VWidth: 0
Flags: HW
LayerCount: 2
Fore
SplineSet
63 1503 m 0
 63 1542 228 1663 283 1663 c 0
 295 1663 289 1668 498 1340 c 2
 701 1022 l 2
 702 1020 984 1467 1025 1525 c 0
 1067 1585 1194 1663 1238 1663 c 0
 1244 1663 1248 1659 1248 1653 c 0
 1248 1646 1250 1651 1010 1274 c 0
 881 1072 776 905 776 905 c 0
 776 905 882 738 1012 534 c 0
 1190 255 1248 163 1248 160 c 0
 1248 122 1086 0 1025 -0 c 0
 1018 0 1021 -3 813 323 c 2
 610 641 l 2
 609 643 327 196 286 138 c 0
 244 78 117 0 73 -0 c 0
 67 0 63 4 63 10 c 0
 63 17 60 12 300 389 c 0
 429 591 535 758 535 758 c 0
 535 758 429 925 299 1129 c 0
 121 1408 63 1500 63 1503 c 0
EndSplineSet
EndChar

StartChar: Y
Encoding: 89 89 38
Width: 1311
VWidth: 0
Flags: HW
LayerCount: 2
Fore
SplineSet
63 1503 m 0
 63 1543 228 1664 283 1664 c 0
 294 1664 289 1668 501 1363 c 0
 613 1202 706 1070 707 1070 c 0
 710 1071 994 1484 1027 1528 c 0
 1067 1582 1193 1663 1235 1663 c 0
 1241 1663 1248 1661 1248 1653 c 0
 1248 1644 1252 1651 1007 1300 c 2
 772 963 l 1
 772 561 l 2
 772 211 772 158 770 153 c 0
 753 105 602 0 551 -0 c 0
 532 0 538 0 538 412 c 2
 538 818 l 1
 300 1159 l 2
 112 1428 63 1500 63 1503 c 0
EndSplineSet
EndChar

StartChar: Z
Encoding: 90 90 39
Width: 1231
VWidth: 0
Flags: HW
LayerCount: 2
Fore
SplineSet
1162 1664 m 1
 1165 1662 1169 1659 1169 1653 c 0
 1169 1637 313 188 306 171 c 0
 305 170 383 170 734 170 c 2
 1162 170 l 1
 1165 168 1169 166 1169 160 c 0
 1169 133 1068 38 959 0 c 1
 70 -0 l 1
 67 2 63 3 63 9 c 0
 63 24 919 1476 925 1492 c 0
 926 1493 848 1493 498 1493 c 2
 70 1493 l 1
 67 1495 63 1497 63 1503 c 0
 63 1535 191 1640 268 1661 c 0
 277 1663 290 1663 719 1663 c 2
 1162 1664 l 1
EndSplineSet
EndChar

StartChar: bracketleft
Encoding: 91 91 40
Width: 732
VWidth: 0
Flags: HW
LayerCount: 2
Fore
SplineSet
765 1664 m 1
 768 1662 772 1659 772 1653 c 0
 772 1626 672 1532 563 1494 c 1
 296 1493 l 1
 296 -547 l 1
 765 -547 l 1
 768 -549 772 -551 772 -557 c 0
 772 -584 672 -679 563 -717 c 1
 316 -717 l 2
 258 -717 214 -717 179 -717 c 0
 55 -717 63 -717 62 -711 c 0
 62 -710 62 -447 62 -71 c 0
 62 72 62 232 62 400 c 2
 62 1508 l 1
 91 1565 211 1646 268 1661 c 0
 277 1663 288 1663 521 1663 c 2
 765 1664 l 1
EndSplineSet
EndChar

StartChar: backslash
Encoding: 92 92 41
Width: 1101
VWidth: 0
Flags: HW
LayerCount: 2
Fore
SplineSet
31 1598 m 0
 31 1632 198 1739 260 1739 c 0
 267 1739 272 1738 274 1736 c 0
 277 1733 1070 -290 1070 -294 c 0
 1070 -328 906 -434 840 -434 c 0
 834 -434 829 -433 827 -431 c 0
 824 -428 31 1594 31 1598 c 0
EndSplineSet
EndChar

StartChar: bracketright
Encoding: 93 93 42
Width: 732
VWidth: 0
Flags: HW
LayerCount: 2
Fore
SplineSet
-33 1493 m 1
 -36 1495 -40 1497 -40 1503 c 0
 -40 1535 89 1640 166 1661 c 0
 181 1665 438 1663 515 1663 c 0
 679 1663 669 1663 670 1657 c 0
 670 1656 670 1393 670 1017 c 0
 670 874 670 714 670 546 c 2
 670 -562 l 1
 647 -608 554 -684 460 -717 c 1
 -33 -717 l 1
 -36 -715 -40 -713 -40 -707 c 0
 -40 -680 61 -586 170 -548 c 1
 436 -547 l 1
 436 1493 l 1
 -33 1493 l 1
EndSplineSet
EndChar

StartChar: asciicircum
Encoding: 94 94 43
Width: 1152
VWidth: 0
Flags: HW
LayerCount: 2
Fore
SplineSet
72 1067 m 0
 64 1067 63 1072 63 1076 c 0
 63 1082 69 1094 77 1104 c 0
 84 1112 470 1529 489 1548 c 0
 543 1603 642 1663 680 1663 c 0
 690 1663 684 1667 884 1452 c 2
 1083 1238 l 2
 1088 1233 1089 1230 1089 1227 c 0
 1089 1189 930 1067 866 1067 c 0
 853 1067 514 1446 510 1444 c 0
 509 1444 268 1183 255 1171 c 0
 207 1127 119 1067 72 1067 c 0
EndSplineSet
EndChar

StartChar: underscore
Encoding: 95 95 44
Width: 1152
VWidth: 0
Flags: HW
LayerCount: 2
Fore
SplineSet
1082 -171 m 1
 1085 -173 1089 -175 1089 -181 c 0
 1089 -208 989 -302 880 -340 c 1
 70 -341 l 1
 67 -339 63 -337 63 -331 c 0
 63 -299 191 -194 268 -173 c 0
 277 -171 290 -171 680 -171 c 2
 1082 -171 l 1
EndSplineSet
EndChar

StartChar: grave
Encoding: 96 96 45
Width: 755
VWidth: 0
Flags: HW
LayerCount: 2
Fore
SplineSet
63 1588 m 0
 63 1625 223 1748 283 1748 c 2
 284 1748 l 2
 294 1748 288 1752 488 1542 c 2
 683 1337 l 2
 691 1329 692 1327 692 1323 c 0
 692 1290 550 1169 465 1163 c 1
 448 1179 359 1272 267 1369 c 2
 72 1574 l 2
 64 1582 63 1584 63 1588 c 0
EndSplineSet
EndChar

StartChar: braceleft
Encoding: 123 123 46
Width: 891
VWidth: 0
Flags: HW
LayerCount: 2
Fore
SplineSet
931 -557 m 0
 931 -594 771 -717 709 -717 c 0
 131 -717 620 363 86 388 c 0
 72 389 63 388 63 398 c 0
 63 415 172 551 315 559 c 1
 423 793 328 1214 493 1431 c 0
 532 1482 710 1663 915 1663 c 0
 925 1663 931 1661 931 1653 c 0
 931 1622 786 1497 700 1493 c 0
 674 1492 678 1496 662 1448 c 0
 609 1289 621 1036 590 853 c 0
 547 597 423 554 416 533 c 0
 412 521 553 524 596 204 c 0
 636 -92 579 -547 910 -547 c 0
 921 -547 931 -547 931 -557 c 0
EndSplineSet
EndChar

StartChar: bar
Encoding: 124 124 47
Width: 835
VWidth: 0
Flags: HW
LayerCount: 2
Fore
SplineSet
520 1663 m 0
 525 1663 529 1662 531 1660 c 0
 533 1657 534 1625 534 549 c 0
 534 -421 534 -559 532 -564 c 0
 515 -612 363 -717 312 -717 c 0
 307 -717 304 -715 302 -713 c 0
 300 -710 300 -671 300 397 c 0
 300 1367 299 1505 301 1510 c 0
 318 1558 471 1663 520 1663 c 0
EndSplineSet
EndChar

StartChar: braceright
Encoding: 125 125 48
Width: 891
VWidth: 0
Flags: HW
LayerCount: 2
Fore
SplineSet
-40 1503 m 0
 -40 1540 123 1663 183 1663 c 0
 761 1663 270 583 805 558 c 0
 819 557 828 558 828 548 c 0
 828 531 719 395 576 387 c 1
 471 160 556 -245 414 -462 c 0
 344 -569 152 -717 -23 -717 c 0
 -34 -717 -40 -715 -40 -707 c 0
 -40 -676 104 -551 190 -547 c 0
 216 -546 213 -550 229 -502 c 0
 282 -343 270 -89 301 94 c 0
 344 350 467 392 474 413 c 0
 478 425 338 422 295 742 c 0
 255 1038 312 1493 -19 1493 c 0
 -30 1493 -40 1493 -40 1503 c 0
EndSplineSet
EndChar

StartChar: asciitilde
Encoding: 126 126 49
Width: 1231
VWidth: 0
Flags: HW
LayerCount: 2
Fore
SplineSet
63 820 m 0
 63 860 297 1051 485 1051 c 0
 661 1051 792 910 955 910 c 0
 1062 910 1086 976 1153 980 c 0
 1164 981 1168 980 1168 971 c 0
 1168 930 933 740 747 740 c 0
 572 740 438 881 276 881 c 0
 169 881 146 815 79 811 c 0
 68 810 63 811 63 820 c 0
EndSplineSet
EndChar

StartChar: T
Encoding: 84 84 50
Width: 1090
VWidth: 0
Flags: HW
LayerCount: 2
Fore
SplineSet
-182 1474 m 0
 -182 1526 -50 1682 -2 1682 c 0
 54 1682 263 1664 649 1664 c 0
 1041 1664 1213 1683 1261 1683 c 0
 1268 1683 1273 1680 1273 1670 c 0
 1273 1625 1156 1480 1103 1464 c 0
 1092 1461 772 1480 658 1480 c 0
 647 1480 650 1482 650 1460 c 0
 650 1460 656 392 674 272 c 2
 679 241 l 2
 707 56 750 65 750 48 c 0
 750 13 594 21 470 1 c 0
 420 -7 389 -11 365 -11 c 0
 298 -11 278 10 358 40 c 0
 378 47 380 49 389 65 c 0
 426 130 424 225 426 335 c 0
 437 839 440 1088 440 1483 c 0
 440 1483 438 1483 435 1483 c 0
 110 1483 -173 1460 -179 1465 c 0
 -182 1467 -182 1468 -182 1474 c 0
EndSplineSet
EndChar

StartChar: f
Encoding: 102 102 51
Width: 663
VWidth: 0
Flags: HW
LayerCount: 2
Fore
SplineSet
-10 692 m 0
 -20 692 -25 692 -25 701 c 0
 -25 728 87 893 192 896 c 1
 192 967 l 2
 192 1061 171 1289 525 1526 c 0
 712 1651 830 1663 871 1663 c 0
 1098 1663 1139 1527 1139 1476 c 0
 1139 1415 906 1269 906 1322 c 0
 906 1491 631 1515 574 1478 c 0
 561 1470 472 1369 446 1230 c 0
 439 1192 438 1198 438 1041 c 2
 438 896 l 1
 768 896 l 1
 800 864 643 733 581 711 c 0
 564 705 440 706 437 703 c 0
 436 702 436 557 436 379 c 0
 436 55 431 -22 463 -81 c 0
 466 -87 468 -93 468 -94 c 0
 468 -120 392 -154 360 -183 c 0
 230 -302 98 -347 50 -347 c 0
 37 -347 30 -345 30 -337 c 0
 30 -298 157 -283 188 -128 c 0
 193 -101 194 -108 194 172 c 0
 194 650 193 696 191 696 c 0
 151 696 30 692 -10 692 c 0
EndSplineSet
EndChar

StartChar: f.conl
Encoding: 65536 -1 52
Width: 663
VWidth: 0
Flags: HW
LayerCount: 2
Fore
SplineSet
46 707 m 2
 -87 707 -110 703 -110 717 c 0
 -110 748 -5 858 90 895 c 1
 192 896 l 1
 192 967 l 2
 192 1061 171 1289 525 1526 c 0
 712 1651 830 1663 871 1663 c 0
 1098 1663 1139 1527 1139 1476 c 0
 1139 1415 906 1269 906 1322 c 0
 906 1491 631 1515 574 1478 c 0
 561 1470 472 1369 446 1230 c 0
 439 1192 438 1198 438 1041 c 2
 438 896 l 1
 601 896 l 2
 761 896 774 899 774 886 c 0
 774 855 669 745 574 708 c 1
 437 707 l 1
 436 517 l 2
 436 455 436 394 436 338 c 0
 436 44 434 -26 463 -81 c 0
 466 -87 468 -93 468 -94 c 0
 468 -120 392 -154 360 -183 c 0
 230 -302 98 -347 50 -347 c 0
 37 -347 30 -345 30 -337 c 0
 30 -297 170 -280 192 -103 c 0
 193 -91 194 96 194 291 c 0
 194 370 194 450 194 520 c 2
 193 707 l 1
 46 707 l 2
EndSplineSet
EndChar

StartChar: f.dotlig
Encoding: 65537 -1 53
Width: 663
VWidth: 0
Flags: HW
LayerCount: 2
Fore
SplineSet
-10 692 m 0
 -20 692 -25 692 -25 701 c 0
 -25 728 87 893 192 896 c 1
 192 968 l 2
 192 1067 179 1312 520 1542 c 0
 567 1574 705 1663 829 1663 c 0
 964 1663 1062 1584 1062 1465 c 0
 1062 1403 1044 1361 994 1311 c 0
 884 1201 711 1136 805 1237 c 0
 805 1237 829 1252 829 1319 c 0
 829 1431 717 1493 616 1493 c 0
 606 1493 567 1493 558 1482 c 0
 415 1313 438 1104 438 1042 c 2
 438 896 l 1
 768 896 l 1
 800 864 643 733 581 711 c 0
 564 705 440 706 437 703 c 0
 436 702 436 557 436 379 c 0
 436 58 431 -21 463 -81 c 0
 466 -87 468 -93 468 -95 c 0
 468 -120 386 -159 359 -184 c 0
 237 -298 101 -347 50 -347 c 0
 37 -347 30 -345 30 -337 c 0
 30 -298 157 -283 188 -128 c 0
 193 -101 194 -108 194 172 c 0
 194 642 193 696 191 696 c 0
 171 696 30 692 -10 692 c 0
EndSplineSet
EndChar

StartChar: f.conl_dotlig
Encoding: 65538 -1 54
Width: 663
VWidth: 0
Flags: HW
LayerCount: 2
Fore
SplineSet
46 707 m 2
 -87 707 -110 703 -110 717 c 0
 -110 748 -5 858 90 895 c 1
 192 896 l 1
 192 968 l 2
 192 1068 179 1312 520 1542 c 0
 567 1574 705 1663 829 1663 c 0
 964 1663 1062 1584 1062 1465 c 0
 1062 1403 1044 1361 994 1311 c 0
 884 1201 711 1136 805 1237 c 0
 805 1237 829 1252 829 1319 c 0
 829 1431 717 1493 616 1493 c 0
 606 1493 567 1493 558 1482 c 0
 415 1313 438 1104 438 1042 c 2
 438 896 l 1
 601 896 l 2
 761 896 774 899 774 886 c 0
 774 855 669 745 574 708 c 1
 437 707 l 1
 436 525 l 2
 436 463 436 402 436 345 c 0
 436 41 434 -27 463 -81 c 0
 466 -87 468 -93 468 -95 c 0
 468 -120 386 -159 359 -184 c 0
 237 -298 101 -347 50 -347 c 0
 37 -347 30 -345 30 -337 c 0
 30 -297 170 -280 192 -103 c 0
 193 -91 194 90 194 283 c 0
 194 361 194 440 194 512 c 2
 193 707 l 1
 46 707 l 2
EndSplineSet
EndChar

StartChar: longs
Encoding: 383 383 55
Width: 533
VWidth: 0
Flags: HW
LayerCount: 2
Fore
SplineSet
-10 713 m 0
 -10 738 43 797 140 860 c 1
 140 952 l 2
 140 1035 123 1230 320 1425 c 0
 414 1519 607 1663 799 1663 c 0
 953 1663 1009 1538 1009 1471 c 0
 1009 1433 852 1315 791 1311 c 0
 777 1310 776 1311 775 1325 c 0
 768 1409 701 1493 592 1493 c 0
 555 1493 488 1483 476 1469 c 0
 353 1326 374 1129 374 1050 c 0
 374 264 375 221 398 160 c 0
 400 154 402 147 402 145 c 0
 402 83 63 -19 24 -19 c 0
 18 -19 8 -20 8 -9 c 0
 8 33 127 36 134 160 c 0
 135 181 138 319 138 390 c 0
 138 634 98 738 27 711 c 0
 2 701 -10 705 -10 713 c 0
EndSplineSet
EndChar

StartChar: u
Encoding: 117 117 56
Width: 1147
VWidth: 0
Flags: HW
LayerCount: 2
Fore
SplineSet
20 708 m 0
 20 745 166 895 254 895 c 0
 301 895 355 854 371 775 c 0
 377 748 379 624 379 575 c 0
 379 516 376 418 376 379 c 0
 376 184 552 104 655 154 c 0
 700 176 760 254 767 334 c 0
 770 370 771 347 771 395 c 0
 771 606 771 688 744 732 c 0
 717 776 932 888 1041 888 c 0
 1104 888 1032 858 1020 800 c 0
 1011 754 1010 396 1010 319 c 0
 1010 137 1080 198 1080 170 c 0
 1080 131 923 0 864 0 c 0
 791 0 773 102 773 167 c 2
 773 171 l 1
 698 91 545 -31 397 -31 c 0
 265 -31 137 68 137 231 c 0
 137 264 144 429 144 560 c 0
 144 565 153 657 95 696 c 0
 54 723 20 679 20 708 c 0
EndSplineSet
EndChar

StartChar: u.conl
Encoding: 65539 -1 57
Width: 1147
VWidth: 0
Flags: HW
LayerCount: 2
Fore
SplineSet
5 703 m 0
 -110 703 -110 710 -110 716 c 0
 -110 751 28 892 113 897 c 0
 124 898 138 898 154 898 c 0
 187 898 224 896 241 894 c 0
 307 885 361 831 373 762 c 0
 376 743 378 663 378 577 c 0
 378 499 376 422 376 383 c 0
 376 183 553 104 655 154 c 0
 700 176 760 254 767 334 c 0
 770 370 771 347 771 395 c 0
 771 606 771 688 744 732 c 0
 717 776 932 888 1041 888 c 0
 1104 888 1032 858 1020 800 c 0
 1011 754 1010 396 1010 319 c 0
 1010 137 1080 198 1080 170 c 0
 1080 131 923 0 864 0 c 0
 791 0 773 102 773 167 c 2
 773 171 l 1
 698 91 546 -31 395 -31 c 0
 258 -31 137 76 137 229 c 0
 137 280 144 432 144 567 c 0
 144 707 60 703 5 703 c 0
EndSplineSet
EndChar

StartChar: x
Encoding: 120 120 58
Width: 1021
VWidth: 0
Flags: HW
LayerCount: 2
Fore
SplineSet
30 692 m 0
 30 720 182 947 314 881 c 0
 345 865 376 839 417 790 c 1
 538 642 l 2
 546 632 553 624 553 624 c 0
 553 624 784 905 968 925 c 0
 972 925 977 926 982 926 c 0
 1071 926 1095 852 1095 852 c 0
 1095 811 908 678 867 694 c 0
 855 699 840 760 765 747 c 1
 660 632 647 588 627 531 c 1
 782 335 l 1
 854 249 908 210 962 210 c 0
 986 210 1001 219 1001 203 c 0
 1001 167 866 0 767 -0 c 0
 687 0 618 103 557 183 c 0
 512 242 486 276 485 276 c 0
 485 276 283 26 90 -24 c 0
 73 -28 56 -31 41 -31 c 0
 -40 -31 -74 40 -74 44 c 0
 -74 77 62 189 136 204 c 0
 180 213 166 127 270 151 c 1
 389 274 400 340 410 370 c 1
 267 547 156 702 48 683 c 0
 36 681 30 683 30 692 c 0
EndSplineSet
EndChar

StartChar: x.conl
Encoding: 65540 -1 59
Width: 1021
VWidth: 0
Flags: HW
LayerCount: 2
Fore
SplineSet
30 692 m 0
 30 720 182 947 314 881 c 0
 345 865 376 839 417 790 c 1
 538 642 l 2
 546 632 553 624 553 624 c 0
 553 624 784 905 968 925 c 0
 972 925 977 926 982 926 c 0
 1071 926 1095 852 1095 852 c 0
 1095 811 908 678 867 694 c 0
 855 699 840 760 765 747 c 1
 660 632 647 588 627 531 c 1
 782 335 l 1
 854 249 908 210 962 210 c 0
 986 210 1001 219 1001 203 c 0
 1001 167 866 0 767 -0 c 0
 687 0 618 103 557 183 c 0
 512 242 486 276 485 276 c 0
 485 276 283 26 90 -24 c 0
 73 -28 56 -31 41 -31 c 0
 -40 -31 -74 40 -74 44 c 0
 -74 77 62 189 136 204 c 0
 180 213 166 127 270 151 c 1
 389 274 400 340 410 370 c 1
 267 547 156 702 48 683 c 0
 36 681 30 683 30 692 c 0
EndSplineSet
EndChar

StartChar: uni25CC
Encoding: 9676 9676 60
Width: 1125
VWidth: 0
Flags: HW
LayerCount: 2
Fore
SplineSet
607 24 m 0
 607 -5 599 -20 563 -20 c 0
 496 -20 511 59 545 68 c 0
 552 70 607 79 607 24 c 0
722 12 m 0
 682 12 678 30 678 57 c 0
 678 84 684 95 704 100 c 0
 713 103 766 111 766 56 c 0
 766 26 758 12 722 12 c 0
403 12 m 0
 363 12 359 30 359 57 c 0
 359 84 365 95 385 100 c 0
 394 103 447 111 447 56 c 0
 447 26 439 12 403 12 c 0
902 146 m 0
 902 117 893 101 857 101 c 0
 790 101 806 181 840 190 c 0
 847 192 902 201 902 146 c 0
313 146 m 0
 313 117 304 101 268 101 c 0
 201 101 217 181 251 190 c 0
 258 192 313 201 313 146 c 0
993 282 m 0
 993 253 984 237 948 237 c 0
 881 237 897 315 931 325 c 0
 938 327 993 337 993 282 c 0
222 282 m 0
 222 253 213 237 177 237 c 0
 110 237 126 315 160 325 c 0
 167 327 222 337 222 282 c 0
1023 441 m 0
 1023 408 1012 397 979 397 c 0
 911 397 929 475 961 484 c 0
 970 487 1023 495 1023 441 c 0
146 397 m 0
 119 397 101 403 101 443 c 0
 101 498 176 497 188 463 c 0
 190 458 190 452 190 441 c 0
 190 408 179 397 146 397 c 0
993 600 m 0
 993 571 984 556 948 556 c 0
 881 556 897 634 931 644 c 0
 938 646 993 655 993 600 c 0
177 556 m 0
 156 556 132 560 132 602 c 0
 132 657 207 658 220 621 c 0
 222 616 222 610 222 600 c 0
 222 571 213 556 177 556 c 0
902 736 m 0
 902 707 893 691 857 691 c 0
 790 691 806 771 840 780 c 0
 847 782 902 791 902 736 c 0
268 691 m 0
 247 691 223 695 223 737 c 0
 223 792 298 794 311 757 c 0
 313 752 313 746 313 736 c 0
 313 707 304 691 268 691 c 0
722 781 m 0
 682 781 678 799 678 826 c 0
 678 853 684 864 704 869 c 0
 713 872 766 880 766 826 c 0
 766 796 758 781 722 781 c 0
403 781 m 0
 368 781 359 795 359 825 c 0
 359 852 363 863 385 869 c 0
 394 872 447 880 447 826 c 0
 447 796 439 781 403 781 c 0
517 859 m 0
 517 887 531 903 561 903 c 0
 606 903 607 877 607 858 c 0
 607 829 599 813 563 813 c 0
 542 813 517 817 517 859 c 0
EndSplineSet
EndChar

StartChar: uni0303.normal
Encoding: 65541 -1 61
Width: 0
VWidth: 0
Flags: HW
LayerCount: 2
Fore
SplineSet
-427 1068 m 0
 -427 1110 -219 1308 -66 1308 c 0
 70 1308 238 1180 328 1246 c 0
 382 1286 427 1303 427 1281 c 0
 427 1244 229 1041 61 1041 c 0
 -67 1041 -239 1169 -328 1103 c 0
 -382 1063 -427 1046 -427 1068 c 0
EndSplineSet
EndChar

StartChar: uni0303.narrow
Encoding: 65542 -1 62
Width: 0
VWidth: 0
Flags: HW
LayerCount: 2
Fore
SplineSet
297 1291 m 2
 304 1291 308 1287 308 1281 c 0
 308 1244 127 1062 -8 1062 c 0
 -81 1062 -179 1122 -228 1089 c 0
 -260 1067 -286 1058 -300 1058 c 0
 -307 1058 -308 1065 -308 1068 c 0
 -308 1105 -128 1287 8 1287 c 0
 71 1287 186 1230 224 1257 c 0
 231 1262 275 1291 297 1291 c 2
 297 1291 l 2
EndSplineSet
EndChar

StartChar: uni0304.normal
Encoding: 65543 -1 63
Width: 0
VWidth: 0
Flags: HW
LayerCount: 2
Fore
SplineSet
427 1237 m 1
 430 1235 434 1233 434 1227 c 0
 434 1200 334 1106 225 1068 c 1
 -427 1067 l 1
 -430 1069 -434 1071 -434 1077 c 0
 -434 1109 -305 1214 -228 1235 c 0
 -219 1237 -209 1237 104 1237 c 2
 427 1237 l 1
EndSplineSet
EndChar

StartChar: uni0304.narrow
Encoding: 65544 -1 64
Width: 0
VWidth: 0
Flags: HW
LayerCount: 2
Fore
SplineSet
308 1237 m 1
 311 1235 315 1233 315 1227 c 0
 315 1200 215 1106 106 1068 c 1
 -308 1067 l 1
 -311 1069 -315 1071 -315 1077 c 0
 -315 1109 -186 1214 -109 1235 c 0
 -100 1237 -92 1237 104 1237 c 2
 308 1237 l 1
EndSplineSet
EndChar

StartChar: uni0300.normal
Encoding: 65545 -1 65
Width: 0
VWidth: 0
Flags: HW
LayerCount: 2
Fore
SplineSet
-316 1396 m 0
 -316 1409 -282 1418 -231 1418 c 0
 -140 1418 -61 1401 -41 1382 c 0
 -27 1369 175 989 175 973 c 0
 175 971 173 965 166 965 c 0
 114 965 5 1042 -35 1087 c 2
 -303 1378 l 2
 -314 1390 -316 1393 -316 1396 c 0
EndSplineSet
EndChar

StartChar: uni0301.normal
Encoding: 65546 -1 66
Width: 0
VWidth: 0
Flags: HW
LayerCount: 2
Fore
SplineSet
-166 965 m 0
 -173 965 -175 971 -175 973 c 0
 -175 989 27 1368 41 1381 c 0
 63 1402 157 1419 221 1419 c 0
 261 1419 316 1414 316 1396 c 0
 316 1393 314 1390 303 1378 c 2
 35 1087 l 2
 -7 1040 -116 965 -166 965 c 0
EndSplineSet
EndChar

StartChar: uni0307.normal
Encoding: 65547 -1 67
Width: 0
VWidth: 0
Flags: HW
LayerCount: 2
Fore
SplineSet
-2 1296 m 0
 30 1296 41 1280 87 1234 c 0
 124 1196 144 1182 144 1152 c 0
 144 1122 129 1111 83 1065 c 0
 45 1028 31 1007 1 1007 c 0
 -29 1007 -41 1023 -87 1069 c 0
 -124 1107 -144 1121 -144 1151 c 0
 -144 1181 -129 1192 -83 1238 c 0
 -34 1287 -25 1296 -2 1296 c 0
EndSplineSet
EndChar

StartChar: uni0308.normal
Encoding: 65548 -1 68
Width: 0
VWidth: 0
Flags: HW
LayerCount: 2
Fore
SplineSet
203 1296 m 0
 235 1296 245 1280 291 1234 c 0
 328 1196 349 1182 349 1152 c 0
 349 1122 334 1111 288 1065 c 0
 250 1028 235 1007 205 1007 c 0
 175 1007 164 1023 118 1069 c 0
 34 1153 41 1158 122 1238 c 0
 171 1287 180 1296 203 1296 c 0
-206 1296 m 0
 -174 1296 -164 1280 -118 1234 c 0
 -81 1196 -60 1182 -60 1152 c 0
 -60 1122 -76 1111 -122 1065 c 0
 -160 1028 -174 1007 -204 1007 c 0
 -234 1007 -245 1023 -291 1069 c 0
 -328 1107 -349 1121 -349 1151 c 0
 -349 1181 -334 1192 -288 1238 c 0
 -239 1287 -229 1296 -206 1296 c 0
EndSplineSet
EndChar

StartChar: uni0308.narrow
Encoding: 65549 -1 69
Width: 0
VWidth: 0
Flags: HW
LayerCount: 2
Fore
SplineSet
178 1296 m 0
 210 1296 220 1280 266 1234 c 0
 303 1196 324 1182 324 1152 c 0
 324 1122 308 1111 262 1065 c 0
 224 1028 210 1007 180 1007 c 0
 150 1007 139 1023 93 1069 c 0
 9 1153 15 1158 96 1238 c 0
 145 1287 155 1296 178 1296 c 0
-181 1296 m 0
 -149 1296 -139 1280 -93 1234 c 0
 -56 1196 -35 1182 -35 1152 c 0
 -35 1122 -50 1111 -96 1065 c 0
 -134 1028 -149 1007 -179 1007 c 0
 -209 1007 -220 1023 -266 1069 c 0
 -303 1107 -324 1121 -324 1151 c 0
 -324 1181 -308 1192 -262 1238 c 0
 -213 1287 -204 1296 -181 1296 c 0
EndSplineSet
EndChar

StartChar: uni030A.normal
Encoding: 65550 -1 70
Width: 0
VWidth: 0
Flags: HW
LayerCount: 2
Fore
SplineSet
-256 1168 m 0
 -256 1308 -82 1423 38 1423 c 0
 170 1423 256 1335 256 1236 c 0
 256 1104 92 983 -42 983 c 0
 -163 983 -256 1068 -256 1168 c 0
91 1137 m 0
 91 1256 -40 1298 -84 1298 c 0
 -89 1298 -91 1281 -91 1269 c 0
 -91 1151 36 1107 86 1107 c 0
 89 1107 91 1126 91 1137 c 0
EndSplineSet
EndChar

StartChar: uni0364.normal
Encoding: 65551 -1 71
Width: 0
VWidth: 0
Flags: HW
LayerCount: 2
Fore
SplineSet
-249 1191 m 0
 -249 1336 5 1492 110 1492 c 0
 197 1492 294 1480 294 1395 c 0
 294 1333 201 1193 -63 1103 c 1
 -24 1026 87 1046 129 1078 c 0
 200 1132 267 1152 226 1092 c 0
 190 1039 8 869 -160 869 c 0
 -268 869 -294 928 -294 967 c 0
 -294 1061 -132 1197 48 1253 c 0
 56 1255 61 1257 61 1258 c 0
 61 1265 47 1293 4 1308 c 0
 -13 1314 -13 1314 -12 1307 c 0
 -5 1259 -207 1127 -240 1145 c 0
 -245 1148 -249 1170 -249 1191 c 0
EndSplineSet
EndChar

StartChar: A
Encoding: 65 65 72
Width: 1553
VWidth: 0
Flags: HW
LayerCount: 2
Fore
SplineSet
219 1416 m 0
 219 1452 423 1666 574 1666 c 0
 809 1666 926 1373 951 1323 c 0
 1201 822 1472 15 1624 54 c 0
 1644 59 1652 55 1652 48 c 0
 1652 5 1463 -131 1395 -131 c 0
 1313 -131 1247 77 1196 176 c 1
 1174 169 1171 171 1154 180 c 0
 1040 244 884 296 695 296 c 0
 552 296 374 251 340 210 c 0
 286 145 218 45 52 4 c 0
 34 0 34 0 6 0 c 1
 3 4 -1 7 -1 11 c 0
 -1 40 72 89 146 179 c 0
 602 734 629 1302 640 1323 c 0
 641 1325 505 1475 346 1455 c 0
 294 1449 267 1406 230 1406 c 0
 225 1406 219 1409 219 1416 c 0
798 1079 m 0
 793 1079 717 733 465 374 c 0
 439 337 483 392 672 438 c 0
 751 457 831 467 910 467 c 0
 1004 467 1075 452 1076 453 c 0
 1080 458 807 1079 798 1079 c 0
EndSplineSet
EndChar

StartChar: F
Encoding: 70 70 73
Width: 940
VWidth: 0
Flags: HW
LayerCount: 2
Fore
SplineSet
-30 1482 m 0
 -30 1521 130 1663 220 1663 c 0
 280 1663 341 1627 369 1357 c 2
 372 1330 l 1
 491 1472 723 1663 989 1663 c 0
 1259 1663 1414 1480 1414 1470 c 0
 1414 1435 1269 1316 1187 1310 c 1
 1098 1407 977 1493 794 1493 c 0
 723 1493 609 1478 549 1411 c 0
 516 1374 389 1220 389 935 c 0
 389 934 393 550 394 549 c 0
 397 546 914 544 919 539 c 0
 945 514 787 372 724 356 c 0
 716 354 683 354 464 351 c 2
 393 350 l 1
 392 284 l 2
 388 -94 393 -483 327 -587 c 0
 289 -647 132 -717 79 -717 c 0
 33 -717 86 -681 95 -657 c 0
 146 -520 150 -8 152 248 c 2
 153 347 l 1
 85 346 l 2
 8 346 14 345 14 357 c 0
 15 383 67 454 154 524 c 1
 153 645 l 2
 149 1163 136 1464 31 1483 c 0
 11 1487 -30 1459 -30 1482 c 0
EndSplineSet
EndChar

StartChar: P
Encoding: 80 80 74
Width: 1625
VWidth: 0
Flags: HW
LayerCount: 2
Fore
SplineSet
378 1248 m 1
 494 1400 764 1663 1104 1663 c 0
 1444 1663 1564 1274 1564 1000 c 0
 1564 470 1081 179 808 179 c 0
 671 179 556 225 466 291 c 0
 450 303 449 304 450 312 c 0
 456 345 597 457 680 462 c 1
 762 403 864 349 1010 349 c 0
 1084 349 1152 366 1171 386 c 0
 1197 414 1329 567 1329 851 c 0
 1329 1119 1216 1489 896 1489 c 0
 838 1489 703 1472 620 1405 c 0
 553 1351 441 1202 388 960 c 1
 389 887 l 2
 392 750 393 627 393 483 c 0
 393 -546 361 -570 288 -626 c 0
 225 -674 121 -717 79 -717 c 0
 33 -717 86 -681 95 -657 c 0
 132 -557 153 -260 153 516 c 0
 153 1096 146 1462 31 1483 c 0
 11 1487 -30 1459 -30 1482 c 0
 -30 1523 156 1691 250 1660 c 0
 346 1628 366 1418 378 1248 c 1
EndSplineSet
EndChar

StartChar: S
Encoding: 83 83 75
Width: 1272
VWidth: 0
Flags: HW
LayerCount: 2
Fore
SplineSet
481 -30 m 0
 148 -30 37 269 37 300 c 0
 37 335 191 453 255 459 c 0
 287 462 276 343 419 233 c 0
 484 183 571 139 692 139 c 0
 782 139 853 158 916 184 c 1
 1001 289 1060 517 820 653 c 0
 574 793 133 805 133 1135 c 0
 133 1417 525 1663 799 1663 c 0
 1065 1663 1185 1439 1179 1421 c 0
 1163 1367 976 1245 950 1268 c 0
 944 1273 850 1493 592 1493 c 0
 494 1493 426 1467 421 1460 c 0
 388 1420 366 1357 366 1285 c 0
 366 843 1224 1006 1224 541 c 0
 1224 252 820 -30 481 -30 c 0
EndSplineSet
EndChar

StartChar: W
Encoding: 87 87 76
Width: 2168
VWidth: 0
Flags: HW
LayerCount: 2
Fore
SplineSet
-68 1460 m 0
 -68 1493 57 1663 158 1663 c 0
 407 1663 749 580 781 472 c 0
 835 287 845 220 847 220 c 0
 861 220 1026 500 1113 732 c 0
 1121 754 1138 762 1138 767 c 0
 1138 779 1051 1054 1019 1142 c 0
 973 1270 883 1484 782 1452 c 0
 777 1451 772 1450 769 1450 c 0
 762 1450 759 1454 759 1460 c 0
 759 1495 893 1672 990 1663 c 0
 1082 1654 1173 1554 1372 821 c 0
 1461 494 1495 283 1499 279 c 0
 1500 278 1552 381 1573 425 c 0
 1780 855 1853 1123 1853 1298 c 0
 1853 1417 1820 1491 1761 1491 c 0
 1737 1491 1647 1443 1698 1512 c 0
 1725 1549 1851 1663 1959 1663 c 0
 2051 1663 2096 1569 2096 1422 c 0
 2096 1055 1782 446 1569 124 c 0
 1516 44 1391 -32 1342 -32 c 0
 1323 -32 1340 -32 1258 317 c 0
 1209 526 1205 540 1199 529 c 0
 1090 332 897 101 849 60 c 0
 795 14 715 -33 682 -33 c 0
 645 -33 638 294 326 973 c 0
 264 1109 112 1455 -25 1455 c 0
 -38 1455 -51 1450 -58 1450 c 0
 -65 1450 -68 1454 -68 1460 c 0
EndSplineSet
EndChar

StartChar: a
Encoding: 97 97 77
Width: 1061
VWidth: 0
Flags: HW
LayerCount: 2
Fore
SplineSet
473 626 m 1
 438 669 401 707 353 707 c 0
 333 707 285 685 306 726 c 0
 327 768 451 895 548 895 c 0
 667 895 731 763 897 388 c 0
 917 342 989 166 1061 189 c 0
 1078 194 1086 193 1086 183 c 0
 1086 145 938 0 852 -0 c 0
 793 0 755 55 712 138 c 1
 646 85 470 -31 285 -31 c 0
 153 -31 49 42 49 151 c 0
 49 389 408 534 473 626 c 1
284 298 m 0
 284 197 389 139 493 139 c 0
 652 139 668 196 679 212 c 1
 660 253 l 2
 624 334 520 558 514 562 c 0
 514 562 344 445 343 444 c 0
 324 429 284 385 284 298 c 0
EndSplineSet
EndChar

StartChar: ae
Encoding: 230 230 78
Width: 1550
VWidth: 0
Flags: HW
LayerCount: 2
Fore
SplineSet
522 633 m 0
 522 636 462 756 380 756 c 0
 366 756 342 746 334 751 c 0
 304 770 474 926 582 926 c 0
 654 926 706 887 761 778 c 1
 963 901 1100 925 1185 925 c 0
 1367 925 1465 789 1465 654 c 0
 1465 627 1463 612 1459 603 c 0
 1457 599 1399 498 1212 440 c 0
 1105 407 1024 387 942 368 c 1
 983 286 1079 139 1224 139 c 0
 1251 139 1272 143 1292 147 c 1
 1356 217 1454 278 1497 281 c 0
 1508 282 1513 281 1513 272 c 0
 1513 232 1253 -31 1016 -31 c 0
 910 -31 829 25 751 139 c 1
 634 56 480 -30 299 -30 c 0
 151 -30 49 43 49 152 c 0
 49 427 522 621 522 633 c 0
1224 560 m 0
 1224 560 1191 756 965 756 c 0
 882 756 789 715 790 712 c 2
 883 490 l 1
 936 493 1224 552 1224 560 c 0
283 303 m 0
 283 195 390 139 509 139 c 0
 533 139 664 145 716 198 c 1
 677 271 657 314 602 448 c 2
 566 534 l 2
 548 576 558 571 523 551 c 2
 446 510 l 2
 361 465 338 451 330 441 c 0
 300 406 283 354 283 303 c 0
EndSplineSet
EndChar

StartChar: b
Encoding: 98 98 79
Width: 1196
VWidth: 0
Flags: HW
LayerCount: 2
Fore
SplineSet
-18 1472 m 0
 -18 1509 130 1663 231 1663 c 0
 356 1663 380 1458 387 818 c 2
 388 733 l 1
 478 810 628 925 788 925 c 0
 997 925 1127 745 1127 573 c 0
 1127 264 772 -31 502 -31 c 0
 416 -31 252 1 146 195 c 1
 150 319 153 543 153 730 c 0
 153 1117 154 1525 16 1468 c 0
 -7 1459 -18 1460 -18 1472 c 0
909 408 m 0
 909 567 787 729 599 729 c 0
 536 729 449 703 388 645 c 1
 387 573 l 2
 386 500 385 455 384 381 c 2
 384 341 l 1
 486 173 628 150 701 150 c 0
 702 150 820 152 845 189 c 0
 882 243 909 326 909 408 c 0
EndSplineSet
EndChar

StartChar: b.conl
Encoding: 65552 -1 80
Width: 1298
VWidth: 0
Flags: HW
LayerCount: 2
Fore
SplineSet
603 -31 m 0
 514 -31 345 -2 239 194 c 1
 240 757 l 2
 241 1096 241 1322 242 1325 c 0
 252 1367 408 1479 461 1479 c 2
 462 1479 l 2
 470 1479 470 1478 475 1473 c 1
 475 1321 l 2
 475 1237 476 1070 476 949 c 2
 477 729 l 1
 497 746 l 2
 637 864 771 926 887 926 c 0
 1052 926 1229 794 1229 571 c 0
 1229 244 851 -31 603 -31 c 0
1009 409 m 0
 1009 584 881 730 689 730 c 0
 624 730 522 688 476 640 c 1
 477 343 l 1
 574 171 727 148 800 148 c 0
 820 148 919 151 945 189 c 0
 994 261 1009 343 1009 409 c 0
EndSplineSet
EndChar

StartChar: c
Encoding: 99 99 81
Width: 981
VWidth: 0
Flags: HW
LayerCount: 2
Fore
SplineSet
403 -31 m 0
 174 -31 41 178 41 368 c 0
 41 389 35 515 139 650 c 0
 217 752 427 926 619 926 c 0
 843 926 945 772 945 765 c 0
 945 729 791 609 728 605 c 0
 702 603 709 630 640 682 c 0
 575 731 502 756 424 756 c 0
 393 756 356 751 339 745 c 0
 329 741 267 648 267 526 c 0
 267 310 420 167 580 167 c 0
 822 167 858 297 919 298 c 0
 955 299 894 214 833 157 c 0
 700 32 575 -31 403 -31 c 0
EndSplineSet
EndChar

StartChar: d
Encoding: 100 100 82
Width: 1188
VWidth: 0
Flags: HW
LayerCount: 2
Fore
SplineSet
665 1469 m 0
 665 1508 814 1663 917 1663 c 0
 1071 1663 1050 1318 1052 762 c 0
 1053 327 1053 190 1096 190 c 0
 1102 190 1105 187 1105 181 c 0
 1105 145 982 26 913 3 c 0
 884 -7 843 12 827 141 c 0
 823 173 825 169 808 154 c 0
 731 86 573 -31 417 -31 c 0
 223 -31 65 130 65 325 c 0
 65 541 176 698 361 821 c 0
 468 892 564 926 654 926 c 0
 723 926 764 911 815 885 c 1
 816 921 l 2
 817 971 818 1058 818 1126 c 0
 818 1173 829 1473 725 1473 c 0
 703 1473 665 1448 665 1469 c 0
694 623 m 0
 669 623 620 756 431 756 c 0
 413 756 381 749 379 748 c 0
 372 744 293 636 293 480 c 0
 293 293 443 160 605 160 c 0
 620 160 730 160 817 252 c 1
 814 307 813 407 813 522 c 0
 813 546 814 568 814 587 c 2
 814 693 l 1
 792 676 727 623 694 623 c 0
EndSplineSet
EndChar

StartChar: e
Encoding: 101 101 83
Width: 1021
VWidth: 0
Flags: HW
LayerCount: 2
Fore
SplineSet
424 -31 m 0
 185 -31 41 176 41 365 c 0
 41 393 36 509 137 642 c 0
 211 739 427 926 650 926 c 0
 822 926 943 824 943 710 c 0
 943 574 689 478 654 478 c 0
 612 478 318 351 312 345 c 0
 312 345 392 168 607 168 c 0
 865 168 897 297 958 298 c 0
 967 298 969 296 969 288 c 0
 969 262 791 -31 424 -31 c 0
697 605 m 0
 697 605 671 755 440 755 c 0
 399 755 376 751 337 739 c 1
 297 685 267 619 267 524 c 0
 267 486 276 424 282 424 c 0
 286 424 304 432 359 457 c 2
 445 495 l 2
 690 606 697 597 697 605 c 0
EndSplineSet
EndChar

StartChar: g
Encoding: 103 103 84
Width: 1111
VWidth: 0
Flags: HW
LayerCount: 2
Fore
SplineSet
296 523 m 0
 296 358 430 206 618 211 c 0
 643 212 670 216 641 178 c 0
 636 172 525 41 398 41 c 0
 97 41 -94 430 230 730 c 0
 392 880 549 926 629 926 c 0
 686 926 725 921 784 896 c 1
 1215 896 l 1
 1218 893 1221 890 1221 886 c 0
 1221 854 1113 742 1020 708 c 1
 968 710 l 1
 989 669 1010 599 1010 525 c 0
 1010 359 827 236 863 94 c 0
 898 -45 1081 -77 1081 -230 c 0
 1081 -441 691 -717 352 -717 c 0
 79 -717 -9 -483 -9 -468 c 0
 -9 -428 157 -307 212 -307 c 0
 222 -307 224 -311 229 -325 c 0
 272 -436 389 -547 559 -547 c 0
 659 -547 797 -512 814 -488 c 0
 852 -433 850 -367 844 -345 c 0
 811 -222 625 -177 625 -19 c 0
 625 126 776 231 776 377 c 0
 776 582 617 756 436 756 c 0
 351 756 358 739 356 736 c 0
 331 698 296 621 296 523 c 0
EndSplineSet
EndChar

StartChar: g.swash
Encoding: 65553 -1 85
Width: 1367
VWidth: 0
Flags: HW
LayerCount: 2
Fore
SplineSet
639 926 m 0
 690 926 731 919 784 896 c 1
 1183 896 l 2
 1620 896 1616 893 1651 913 c 0
 1677 928 1708 940 1722 940 c 0
 1729 940 1736 938 1736 931 c 0
 1736 893 1572 759 1426 733 c 0
 1385 726 1365 725 1151 725 c 2
 961 725 l 1
 989 667 1010 604 1010 524 c 0
 1010 363 828 233 863 94 c 0
 898 -45 1081 -77 1081 -230 c 0
 1081 -441 691 -717 352 -717 c 0
 79 -717 -9 -483 -9 -468 c 0
 -9 -428 157 -307 212 -307 c 0
 222 -307 224 -311 229 -325 c 0
 272 -436 389 -547 559 -547 c 0
 659 -547 797 -512 814 -488 c 0
 852 -433 850 -367 844 -345 c 0
 811 -222 625 -177 625 -19 c 0
 625 126 776 231 776 377 c 0
 776 582 617 756 436 756 c 0
 351 756 358 739 356 736 c 0
 331 698 296 621 296 523 c 0
 296 358 430 206 618 211 c 0
 643 212 670 216 641 178 c 0
 636 172 525 41 398 41 c 0
 97 41 -94 430 230 730 c 0
 281 778 456 926 639 926 c 0
EndSplineSet
EndChar

StartChar: h
Encoding: 104 104 86
Width: 1108
VWidth: 0
Flags: HW
LayerCount: 2
Fore
SplineSet
-10 1481 m 0
 -10 1525 156 1663 240 1663 c 0
 320 1663 362 1597 373 1368 c 0
 374 1347 375 1014 376 768 c 2
 376 739 l 1
 508 847 624 895 735 895 c 0
 889 895 999 796 1007 666 c 0
 1009 635 1011 540 1011 462 c 0
 1011 397 1009 349 1009 300 c 0
 1009 254 1010 190 1046 190 c 0
 1052 190 1055 187 1055 181 c 0
 1055 148 890 -32 823 8 c 0
 790 28 771 78 771 297 c 0
 771 399 774 459 774 500 c 0
 774 667 614 733 506 720 c 0
 423 710 409 683 376 636 c 1
 377 466 l 2
 378 238 378 233 392 144 c 1
 353 70 155 19 127 8 c 0
 69 -16 45 -19 24 -19 c 0
 18 -19 8 -20 8 -9 c 0
 8 27 106 40 130 128 c 0
 137 154 137 625 137 1072 c 0
 137 1079 163 1530 27 1479 c 0
 2 1469 -10 1473 -10 1481 c 0
EndSplineSet
EndChar

StartChar: h.conl
Encoding: 65554 -1 87
Width: 1211
VWidth: 0
Flags: HW
LayerCount: 2
Fore
SplineSet
478 738 m 1
 644 877 765 895 837 895 c 0
 983 895 1075 810 1102 716 c 0
 1104 710 1113 705 1113 435 c 0
 1113 378 1112 335 1112 292 c 0
 1112 211 1126 190 1148 190 c 0
 1154 190 1157 187 1157 181 c 0
 1157 148 994 -32 926 8 c 0
 898 25 882 72 877 158 c 2
 874 201 l 2
 873 214 873 253 873 296 c 0
 873 422 876 465 876 507 c 0
 876 623 777 721 634 721 c 0
 528 721 501 671 478 635 c 1
 479 464 l 2
 481 154 495 144 491 137 c 0
 451 68 164 -19 128 -19 c 0
 119 -19 110 -19 110 -9 c 0
 110 32 206 28 236 140 c 1
 237 281 l 2
 239 499 241 1022 241 1179 c 0
 241 1340 233 1326 274 1367 c 0
 327 1420 423 1479 461 1479 c 2
 461 1479 l 2
 469 1479 470 1478 474 1473 c 1
 475 1244 l 2
 475 1118 477 953 477 877 c 2
 478 738 l 1
EndSplineSet
EndChar

StartChar: dotlessi
Encoding: 305 305 88
Width: 537
VWidth: 0
Flags: HW
LayerCount: 2
Fore
SplineSet
23 707 m 0
 23 746 172 895 255 895 c 0
 331 895 373 806 383 707 c 0
 386 683 389 468 389 357 c 0
 389 321 388 315 388 297 c 0
 388 225 394 193 419 190 c 0
 430 189 431 187 431 179 c 0
 431 138 276 0 226 -0 c 0
 146 0 150 146 150 259 c 0
 150 444 153 470 153 523 c 0
 153 650 102 720 52 702 c 0
 33 695 23 699 23 707 c 0
EndSplineSet
EndChar

StartChar: dotlessi.conl
Encoding: 65555 -1 89
Width: 537
VWidth: 0
Flags: HW
LayerCount: 2
Fore
SplineSet
150 255 m 0
 150 444 153 471 153 525 c 0
 153 684 57 703 57 703 c 2
 11 703 l 2
 -99 704 -110 708 -110 716 c 0
 -110 750 25 891 113 897 c 0
 119 897 131 897 146 897 c 0
 236 897 305 904 354 807 c 0
 427 662 355 241 406 194 c 0
 414 187 431 195 431 179 c 0
 431 138 276 0 226 -0 c 0
 147 0 150 143 150 255 c 0
EndSplineSet
EndChar

StartChar: uni0237
Encoding: 567 567 90
Width: 515
VWidth: 0
Flags: HW
LayerCount: 2
Fore
SplineSet
-192 -717 m 0
 -333 -717 -379 -605 -379 -605 c 0
 -379 -571 -233 -477 -161 -464 c 0
 -111 -455 -120 -547 12 -547 c 0
 99 -547 97 -530 106 -516 c 0
 161 -430 177 -394 177 257 c 0
 177 339 194 756 59 701 c 0
 34 691 14 689 30 721 c 0
 55 771 183 895 273 895 c 0
 398 895 411 687 411 227 c 0
 411 -222 410 -302 307 -434 c 0
 229 -534 8 -717 -192 -717 c 0
EndSplineSet
EndChar

StartChar: uni0237.conl
Encoding: 65556 -1 91
Width: 515
VWidth: 0
Flags: HW
LayerCount: 2
Fore
SplineSet
-192 -717 m 0
 -333 -717 -379 -605 -379 -605 c 0
 -379 -571 -233 -477 -161 -464 c 0
 -111 -455 -120 -547 12 -547 c 0
 99 -547 97 -530 106 -516 c 0
 160 -431 177 -398 177 261 c 0
 177 440 185 645 88 693 c 0
 45 714 -96 696 -108 711 c 0
 -127 735 24 892 113 897 c 0
 124 898 138 898 153 898 c 0
 379 898 411 870 411 209 c 0
 411 -286 388 -278 386 -285 c 0
 320 -507 10 -717 -192 -717 c 0
EndSplineSet
EndChar

StartChar: k
Encoding: 107 107 92
Width: 1073
VWidth: 0
Flags: HW
LayerCount: 2
Fore
SplineSet
-10 1481 m 0
 -10 1525 156 1663 240 1663 c 0
 388 1663 374 1448 376 748 c 1
 398 763 l 2
 768 1006 958 861 958 706 c 0
 958 602 875 528 743 457 c 1
 890 336 964 154 1019 167 c 0
 1037 171 1046 168 1046 159 c 0
 1046 123 887 -1 821 -1 c 0
 707 -1 634 248 454 359 c 0
 440 368 437 371 438 376 c 0
 446 407 565 474 646 492 c 0
 691 502 735 629 651 713 c 0
 621 743 575 762 535 762 c 0
 507 762 420 693 376 629 c 1
 377 463 l 2
 378 239 378 232 392 144 c 1
 353 70 155 19 127 8 c 0
 69 -16 45 -19 24 -19 c 0
 18 -19 8 -20 8 -9 c 0
 8 27 106 40 130 128 c 0
 137 154 137 625 137 1072 c 0
 137 1079 163 1530 27 1479 c 0
 2 1469 -10 1473 -10 1481 c 0
EndSplineSet
EndChar

StartChar: k.conl
Encoding: 65557 -1 93
Width: 1176
VWidth: 0
Flags: HW
LayerCount: 2
Fore
SplineSet
1060 708 m 0
 1060 601 979 529 845 457 c 1
 1000 328 1066 154 1122 167 c 0
 1140 171 1148 168 1148 159 c 0
 1148 123 989 -1 923 -1 c 0
 809 -1 736 248 556 359 c 0
 542 368 540 371 541 376 c 0
 549 407 667 474 748 492 c 0
 798 503 841 650 735 729 c 0
 708 749 669 762 638 762 c 0
 607 762 507 678 478 626 c 1
 479 460 l 2
 481 155 495 144 491 137 c 0
 451 68 164 -19 128 -19 c 0
 119 -19 110 -19 110 -9 c 0
 110 32 206 28 236 140 c 1
 237 281 l 2
 239 499 241 1022 241 1179 c 0
 241 1340 233 1326 274 1367 c 0
 327 1420 423 1479 461 1479 c 2
 462 1479 l 2
 470 1479 470 1478 475 1473 c 1
 475 1414 l 2
 475 1290 477 750 478 749 c 0
 483 744 786 984 977 857 c 0
 1028 823 1060 767 1060 708 c 0
EndSplineSet
EndChar

StartChar: l
Encoding: 108 108 94
Width: 512
VWidth: 0
Flags: HW
LayerCount: 2
Fore
SplineSet
-12 1469 m 0
 -12 1508 137 1663 240 1663 c 0
 336 1663 364 1539 370 1301 c 0
 373 1186 376 766 376 531 c 0
 376 497 376 497 376 475 c 0
 376 427 372 190 418 190 c 0
 424 190 428 187 428 181 c 0
 428 138 273 0 222 0 c 0
 117 0 137 474 137 546 c 0
 137 769 141 937 141 1104 c 0
 141 1339 122 1473 48 1473 c 0
 26 1473 -12 1448 -12 1469 c 0
EndSplineSet
EndChar

StartChar: l.conl
Encoding: 65558 -1 95
Width: 615
VWidth: 0
Flags: HW
LayerCount: 2
Fore
SplineSet
461 1479 m 2
 478 1479 479 1479 479 1027 c 0
 479 762 477 718 477 585 c 0
 477 541 474 201 525 191 c 0
 531 190 536 189 536 181 c 0
 536 140 381 0 329 0 c 0
 255 0 237 242 237 857 c 0
 237 1058 239 1314 242 1325 c 0
 253 1367 408 1479 461 1479 c 2
 461 1479 l 2
EndSplineSet
EndChar

StartChar: m
Encoding: 109 109 96
Width: 1663
VWidth: 0
Flags: HW
LayerCount: 2
Fore
SplineSet
24 -19 m 0
 18 -19 8 -20 8 -9 c 0
 8 33 127 36 134 160 c 0
 135 181 138 319 138 390 c 0
 138 634 98 738 27 711 c 0
 2 701 -10 705 -10 713 c 0
 -10 758 179 920 269 892 c 0
 344 869 357 740 359 737 c 0
 362 732 533 895 740 895 c 0
 915 895 954 737 957 734 c 0
 960 731 1125 895 1338 895 c 0
 1473 895 1555 796 1563 666 c 0
 1565 634 1566 540 1566 462 c 0
 1566 397 1565 349 1565 300 c 0
 1565 254 1566 190 1602 190 c 0
 1608 190 1610 187 1610 181 c 0
 1610 148 1446 -32 1379 8 c 0
 1346 28 1326 79 1326 296 c 0
 1326 399 1329 460 1329 501 c 0
 1329 636 1240 721 1138 721 c 0
 1036 721 985 673 969 659 c 1
 969 589 l 2
 969 411 974 189 974 145 c 0
 974 133 991 106 874 36 c 0
 821 4 768 -16 743 -16 c 0
 716 -16 735 18 735 478 c 0
 735 504 743 643 620 704 c 0
 593 717 575 721 541 721 c 0
 427 721 371 659 369 658 c 0
 369 658 373 262 392 144 c 1
 353 70 155 19 127 8 c 0
 69 -16 45 -19 24 -19 c 0
EndSplineSet
EndChar

StartChar: m.conl
Encoding: 65559 -1 97
Width: 1663
VWidth: 0
Flags: HW
LayerCount: 2
Fore
SplineSet
-110 717 m 0
 -110 745 21 895 118 895 c 0
 246 895 313 889 355 750 c 0
 361 729 358 732 376 746 c 0
 464 817 597 895 744 895 c 0
 915 895 954 737 957 734 c 0
 961 730 1123 895 1338 895 c 0
 1473 895 1555 797 1563 666 c 0
 1565 634 1566 540 1566 462 c 0
 1566 397 1565 349 1565 300 c 0
 1565 254 1566 190 1602 190 c 0
 1608 190 1610 187 1610 181 c 0
 1610 148 1446 -32 1379 8 c 0
 1346 28 1326 79 1326 296 c 0
 1326 399 1329 460 1329 501 c 0
 1329 636 1240 721 1138 721 c 0
 1036 721 985 673 969 659 c 1
 969 589 l 2
 969 411 974 189 974 145 c 0
 974 133 991 106 874 36 c 0
 821 4 768 -16 743 -16 c 0
 716 -16 735 19 735 485 c 0
 735 669 619 721 544 721 c 0
 438 721 384 670 372 659 c 1
 379 594 371 183 392 144 c 1
 348 62 52 -19 26 -19 c 0
 17 -19 8 -19 8 -9 c 0
 8 38 128 29 134 167 c 0
 136 203 137 369 137 455 c 0
 137 640 83 710 2 710 c 0
 -93 710 -110 701 -110 717 c 0
EndSplineSet
EndChar

StartChar: n
Encoding: 110 110 98
Width: 1108
VWidth: 0
Flags: HW
LayerCount: 2
Fore
SplineSet
24 -19 m 0
 18 -19 8 -20 8 -9 c 0
 8 33 127 36 134 160 c 0
 135 181 138 319 138 390 c 0
 138 634 98 738 27 711 c 0
 2 701 -10 705 -10 713 c 0
 -10 758 179 920 269 892 c 0
 347 867 357 735 360 731 c 0
 364 727 528 895 734 895 c 0
 892 895 999 794 1007 666 c 0
 1009 635 1011 540 1011 462 c 0
 1011 397 1009 349 1009 300 c 0
 1009 254 1010 190 1046 190 c 0
 1052 190 1055 187 1055 181 c 0
 1055 148 890 -32 823 8 c 0
 790 28 771 78 771 297 c 0
 771 399 774 459 774 500 c 0
 774 690 556 764 424 697 c 0
 405 687 369 643 370 637 c 0
 378 599 366 307 392 144 c 1
 353 70 155 19 127 8 c 0
 69 -16 45 -19 24 -19 c 0
EndSplineSet
EndChar

StartChar: n.conl
Encoding: 65560 -1 99
Width: 1108
VWidth: 0
Flags: HW
LayerCount: 2
Fore
SplineSet
-110 717 m 0
 -110 745 21 895 118 895 c 0
 244 895 314 890 355 750 c 0
 362 725 359 726 379 743 c 0
 551 885 678 895 735 895 c 0
 894 895 999 793 1007 666 c 0
 1009 635 1011 540 1011 462 c 0
 1011 397 1009 349 1009 300 c 0
 1009 254 1010 190 1046 190 c 0
 1052 190 1055 187 1055 181 c 0
 1055 148 890 -32 823 8 c 0
 790 28 771 78 771 297 c 0
 771 399 774 459 774 500 c 0
 774 686 562 765 427 698 c 0
 414 691 398 672 374 641 c 1
 374 605 l 2
 379 328 372 269 392 144 c 1
 348 62 52 -19 26 -19 c 0
 17 -19 8 -19 8 -9 c 0
 8 38 128 29 134 167 c 0
 136 203 137 369 137 455 c 0
 137 640 83 710 2 710 c 0
 -93 710 -110 701 -110 717 c 0
EndSplineSet
EndChar

StartChar: o
Encoding: 111 111 100
Width: 1112
VWidth: 0
Flags: HW
LayerCount: 2
Fore
SplineSet
452 -31 m 0
 235 -31 62 148 62 373 c 0
 62 705 467 926 653 926 c 0
 903 926 1049 723 1049 522 c 0
 1049 321 908 172 749 71 c 0
 641 2 546 -31 452 -31 c 0
815 373 m 0
 815 548 691 756 438 756 c 0
 417 756 377 749 368 745 c 0
 363 743 296 655 296 522 c 0
 296 317 454 140 659 140 c 0
 710 140 736 147 743 150 c 0
 748 152 815 240 815 373 c 0
EndSplineSet
EndChar

StartChar: p
Encoding: 112 112 101
Width: 1205
VWidth: 0
Flags: HW
LayerCount: 2
Fore
SplineSet
826 926 m 0
 1088 926 1143 651 1143 526 c 0
 1143 210 768 -31 549 -31 c 0
 437 -31 379 8 376 5 c 0
 376 5 376 1 376 -6 c 0
 376 -394 377 -420 403 -469 c 0
 407 -476 410 -482 410 -483 c 0
 410 -509 339 -538 295 -578 c 0
 189 -675 52 -736 -9 -736 c 0
 -22 -736 -29 -734 -29 -726 c 0
 -29 -685 99 -677 131 -509 c 0
 138 -471 138 288 138 321 c 0
 138 323 161 761 27 711 c 0
 -39 686 -1 742 33 776 c 0
 116 859 217 909 268 893 c 0
 356 865 360 704 365 705 c 0
 372 706 582 926 826 926 c 0
909 376 m 0
 909 530 830 752 636 752 c 0
 459 752 401 640 372 597 c 1
 377 532 374 153 376 150 c 0
 377 149 476 215 518 215 c 0
 535 215 608 139 754 139 c 0
 853 139 849 166 849 166 c 0
 884 218 909 292 909 376 c 0
EndSplineSet
EndChar

StartChar: p.conl
Encoding: 65561 -1 102
Width: 1205
VWidth: 0
Flags: HW
LayerCount: 2
Fore
SplineSet
367 704 m 1
 569 892 734 926 826 926 c 0
 1091 926 1143 644 1143 526 c 0
 1143 206 763 -31 550 -31 c 0
 481 -31 433 -17 377 7 c 1
 377 -2 377 -1 377 -11 c 0
 377 -392 376 -419 403 -469 c 0
 406 -476 410 -482 410 -483 c 0
 410 -509 340 -538 296 -578 c 0
 189 -675 53 -735 -8 -736 c 2
 -9 -736 l 2
 -22 -736 -29 -734 -29 -726 c 0
 -29 -686 99 -675 131 -509 c 0
 135 -486 137 -182 137 384 c 0
 137 441 157 710 2 710 c 0
 -92 710 -110 702 -110 717 c 0
 -110 749 -4 859 90 895 c 1
 130 895 l 2
 254 894 326 892 367 704 c 1
908 379 m 0
 908 546 820 752 638 752 c 0
 461 752 405 644 374 595 c 1
 375 372 l 2
 375 249 377 148 377 148 c 0
 378 147 474 215 519 215 c 0
 536 215 612 139 750 139 c 0
 803 139 830 148 839 150 c 1
 879 211 908 272 908 379 c 0
EndSplineSet
EndChar

StartChar: q
Encoding: 113 113 103
Width: 1188
VWidth: 0
Flags: HW
LayerCount: 2
Fore
SplineSet
409 -31 m 0
 214 -31 62 130 62 328 c 0
 62 657 441 895 646 895 c 0
 745 895 811 866 877 822 c 1
 903 835 l 2
 1000 882 1108 901 1108 877 c 0
 1108 849 1071 869 1058 778 c 0
 1055 758 1054 594 1054 166 c 2
 1054 133 l 2
 1054 -375 1052 -381 1080 -434 c 0
 1084 -441 1087 -449 1087 -451 c 0
 1087 -477 1015 -503 960 -555 c 0
 818 -689 679 -736 630 -736 c 2
 629 -736 l 2
 617 -736 609 -734 609 -726 c 0
 609 -702 664 -682 722 -627 c 2
 748 -602 l 2
 762 -589 794 -549 811 -463 c 1
 812 157 l 1
 724 85 570 -31 409 -31 c 0
607 143 m 0
 729 143 783 218 812 257 c 1
 811 427 l 2
 811 600 811 639 807 665 c 0
 800 711 791 654 699 636 c 0
 660 628 619 725 435 725 c 0
 363 725 365 709 360 701 c 0
 319 639 296 559 296 477 c 0
 296 303 431 143 607 143 c 0
EndSplineSet
EndChar

StartChar: r
Encoding: 114 114 104
Width: 928
VWidth: 0
Flags: HW
LayerCount: 2
Fore
SplineSet
-10 713 m 0
 -10 757 156 895 240 895 c 0
 349 895 353 747 365 701 c 1
 442 770 607 895 767 895 c 0
 864 895 901 800 983 800 c 0
 1004 800 1007 801 1007 792 c 0
 1007 757 835 606 738 635 c 0
 667 656 631 721 566 721 c 0
 444 721 371 618 373 583 c 0
 382 426 366 246 398 160 c 0
 400 153 402 147 402 145 c 0
 402 83 63 -19 24 -19 c 0
 18 -19 8 -20 8 -9 c 0
 8 33 127 36 134 160 c 0
 135 181 138 319 138 390 c 0
 138 634 98 738 27 711 c 0
 2 701 -10 705 -10 713 c 0
EndSplineSet
EndChar

StartChar: r.conl
Encoding: 65562 -1 105
Width: 928
VWidth: 0
Flags: HW
LayerCount: 2
Fore
SplineSet
-110 717 m 0
 -110 745 21 895 118 895 c 0
 235 895 336 894 366 703 c 0
 366 702 510 831 652 876 c 0
 691 889 733 896 765 896 c 0
 864 896 902 800 983 800 c 0
 1004 800 1007 801 1007 792 c 0
 1007 757 835 606 738 635 c 0
 667 656 629 724 559 721 c 0
 446 717 397 636 375 598 c 1
 376 446 l 2
 378 251 378 217 396 166 c 0
 399 157 402 148 402 146 c 0
 402 121 311 58 164 19 c 0
 109 4 71 -19 26 -19 c 0
 17 -19 8 -19 8 -9 c 0
 8 38 128 29 134 167 c 0
 136 203 137 369 137 455 c 0
 137 640 83 710 2 710 c 0
 -93 710 -110 701 -110 717 c 0
EndSplineSet
EndChar

StartChar: r.round
Encoding: 65563 -1 106
Width: 680
VWidth: 0
Flags: HW
LayerCount: 2
Fore
SplineSet
18 -7 m 0
 -161 -7 -161 -14 -161 -1 c 0
 -161 22 -88 126 59 186 c 0
 162 228 260 280 302 314 c 0
 429 416 445 745 150 746 c 0
 30 746 37 712 -45 663 c 0
 -69 649 -87 641 -99 641 c 0
 -114 641 -111 653 -104 666 c 0
 -84 706 127 935 343 935 c 0
 657 935 781 563 233 182 c 1
 538 172 480 169 537 169 c 0
 640 169 672 223 689 204 c 0
 691 202 692 200 692 197 c 0
 692 169 542 -20 339 -20 c 0
 275 -20 210 -7 18 -7 c 0
EndSplineSet
EndChar

StartChar: s
Encoding: 115 115 107
Width: 955
VWidth: 0
Flags: HW
LayerCount: 2
Fore
SplineSet
37 144 m 0
 37 183 202 304 258 304 c 0
 275 304 347 139 545 139 c 0
 594 139 632 144 668 151 c 1
 714 367 433 357 275 397 c 0
 166 424 100 474 100 577 c 0
 100 719 361 926 616 926 c 0
 788 926 877 807 877 799 c 0
 877 768 730 640 648 639 c 1
 555 749 452 756 413 756 c 0
 324 756 335 755 335 726 c 0
 335 445 906 646 906 341 c 0
 906 190 640 -31 341 -31 c 0
 117 -31 37 143 37 144 c 0
EndSplineSet
EndChar

StartChar: t
Encoding: 116 116 108
Width: 853
VWidth: 0
Flags: HW
LayerCount: 2
Fore
SplineSet
201 896 m 1
 192 994 174 1029 156 1029 c 0
 146 1029 139 1037 155 1060 c 0
 198 1120 322 1202 364 1202 c 0
 441 1202 433 1001 438 896 c 1
 861 896 l 1
 863 894 868 892 868 886 c 0
 868 859 765 762 659 726 c 1
 569 721 l 2
 465 715 452 716 439 715 c 1
 439 613 l 2
 439 391 431 332 438 294 c 0
 453 214 518 149 605 149 c 0
 756 149 786 253 844 253 c 0
 850 253 853 250 853 244 c 0
 853 214 692 -31 429 -31 c 0
 264 -31 196 95 196 187 c 0
 196 222 207 416 207 653 c 0
 207 692 206 702 205 702 c 0
 183 702 28 692 -16 692 c 0
 -21 692 -25 693 -25 701 c 0
 -25 734 67 850 161 895 c 1
 201 896 l 1
EndSplineSet
EndChar

StartChar: t.conl
Encoding: 65564 -1 109
Width: 853
VWidth: 0
Flags: HW
LayerCount: 2
Fore
SplineSet
201 896 m 1
 192 994 174 1029 156 1029 c 0
 146 1029 139 1037 155 1060 c 0
 198 1120 322 1202 364 1202 c 0
 441 1202 433 1001 438 896 c 1
 861 896 l 1
 863 894 868 892 868 886 c 0
 868 860 736 728 628 725 c 0
 534 722 477 722 439 720 c 1
 439 615 l 2
 439 388 431 332 438 294 c 0
 453 214 518 149 605 149 c 0
 756 149 786 253 844 253 c 0
 850 253 853 250 853 244 c 0
 853 214 692 -31 429 -31 c 0
 264 -31 196 96 196 188 c 0
 196 243 207 404 207 644 c 0
 207 715 208 715 203 715 c 0
 173 715 -37 708 -97 708 c 0
 -100 708 -110 708 -110 717 c 0
 -110 749 1 865 93 896 c 1
 201 896 l 1
EndSplineSet
EndChar

StartChar: t.conr
Encoding: 65565 -1 110
Width: 828
VWidth: 0
Flags: HW
LayerCount: 2
Fore
SplineSet
201 896 m 1
 192 994 174 1029 156 1029 c 0
 146 1029 139 1037 155 1060 c 0
 198 1120 322 1202 364 1202 c 0
 441 1202 433 1001 438 896 c 1
 932 896 l 1
 935 893 938 890 938 886 c 0
 938 851 815 736 745 711 c 0
 727 704 569 707 439 701 c 1
 439 606 l 2
 439 311 430 339 438 294 c 0
 453 214 518 149 605 149 c 0
 756 149 786 253 844 253 c 0
 850 253 853 250 853 244 c 0
 853 214 692 -31 429 -31 c 0
 264 -31 196 95 196 187 c 0
 196 221 207 415 207 648 c 0
 207 696 209 695 201 695 c 0
 159 695 36 692 -6 692 c 0
 -20 692 -25 692 -25 701 c 0
 -25 734 67 850 161 895 c 1
 201 896 l 1
EndSplineSet
EndChar

StartChar: t.conb
Encoding: 65566 -1 111
Width: 828
VWidth: 0
Flags: HW
LayerCount: 2
Fore
SplineSet
201 896 m 1
 192 994 174 1029 156 1029 c 0
 146 1029 139 1037 155 1060 c 0
 198 1120 322 1202 364 1202 c 0
 441 1202 433 1001 438 896 c 1
 684 896 l 2
 938 896 938 899 938 886 c 0
 938 855 833 745 738 708 c 1
 439 707 l 1
 439 609 l 2
 439 390 430 334 438 294 c 0
 453 214 518 149 605 149 c 0
 756 149 786 253 844 253 c 0
 850 253 853 250 853 244 c 0
 853 214 692 -31 429 -31 c 0
 263 -31 196 98 196 187 c 0
 196 252 207 417 207 656 c 0
 207 689 207 688 206 707 c 1
 52 707 l 2
 -101 707 -110 704 -110 717 c 0
 -110 748 -5 858 90 895 c 1
 201 896 l 1
EndSplineSet
EndChar

StartChar: uniFB06
Encoding: 64262 64262 112
Width: 1782
VWidth: 0
Flags: HW
LayerCount: 2
Fore
SplineSet
100 577 m 0
 100 736 375 895 515 916 c 1
 503 1018 513 1151 686 1297 c 0
 800 1393 954 1483 1105 1483 c 0
 1318 1483 1441 1328 1474 1134 c 0
 1482 1087 1486 1038 1488 934 c 2
 1489 896 l 1
 1887 896 l 1
 1919 864 1762 733 1700 711 c 0
 1682 705 1575 708 1489 702 c 1
 1488 663 l 2
 1485 547 1484 448 1484 385 c 0
 1484 308 1486 307 1491 289 c 0
 1517 190 1596 139 1666 139 c 0
 1804 139 1839 254 1901 254 c 0
 1908 254 1911 250 1911 244 c 0
 1911 206 1738 -31 1470 -31 c 0
 1347 -31 1287 49 1265 109 c 0
 1252 143 1251 159 1251 228 c 0
 1251 352 1254 416 1255 592 c 2
 1256 696 l 1
 1243 696 l 2
 1224 696 1095 692 1058 692 c 0
 1044 692 1033 690 1047 721 c 0
 1060 748 1163 892 1250 896 c 1
 1226 1236 1028 1316 888 1312 c 0
 843 1311 826 1306 798 1298 c 1
 769 1254 745 1204 745 1124 c 0
 745 941 877 812 877 798 c 0
 877 767 729 640 648 639 c 1
 555 749 452 756 413 756 c 0
 324 756 335 755 335 726 c 0
 335 445 906 646 906 341 c 0
 906 190 640 -31 341 -31 c 0
 117 -31 37 143 37 144 c 0
 37 183 202 304 258 304 c 0
 275 304 347 139 545 139 c 0
 594 139 632 144 668 151 c 1
 714 367 433 357 275 397 c 0
 166 424 100 474 100 577 c 0
EndSplineSet
EndChar

StartChar: v
Encoding: 118 118 113
Width: 1136
VWidth: 0
Flags: HW
LayerCount: 2
Fore
SplineSet
967 926 m 0
 1041 926 1060 858 1060 793 c 0
 1060 497 687 112 616 54 c 0
 573 19 494 -32 453 -32 c 0
 428 -32 438 48 316 314 c 0
 222 518 110 708 33 685 c 0
 19 681 12 684 12 693 c 0
 12 727 154 920 252 892 c 0
 297 879 338 833 395 734 c 0
 563 441 612 227 619 214 c 0
 619 213 710 340 761 449 c 0
 834 604 834 744 776 753 c 0
 766 755 705 726 727 768 c 0
 753 817 885 926 967 926 c 0
EndSplineSet
EndChar

StartChar: v.conl
Encoding: 65567 -1 114
Width: 1136
VWidth: 0
Flags: HW
LayerCount: 2
Fore
SplineSet
-110 717 m 0
 -110 749 25 898 127 898 c 0
 256 898 305 890 394 737 c 0
 557 458 611 229 619 214 c 0
 619 213 710 340 761 449 c 0
 834 604 834 744 776 753 c 0
 766 755 705 726 727 768 c 0
 753 817 885 926 967 926 c 0
 1041 926 1060 858 1060 793 c 0
 1060 497 687 112 616 54 c 0
 551 1 486 -32 453 -32 c 0
 432 -32 360 301 174 576 c 0
 103 681 87 679 -102 708 c 0
 -108 709 -110 712 -110 717 c 0
EndSplineSet
EndChar

StartChar: w
Encoding: 119 119 115
Width: 1723
VWidth: 0
Flags: HW
LayerCount: 2
Fore
SplineSet
1314 754 m 0
 1314 786 1461 926 1560 926 c 0
 1634 926 1653 854 1653 790 c 0
 1653 451 1179 -32 1041 -32 c 0
 1025 -32 1031 -22 961 177 c 0
 953 200 924 277 923 278 c 0
 922 279 605 -33 502 -33 c 0
 489 -33 488 -27 478 0 c 0
 425 144 171 724 37 685 c 0
 22 681 15 683 15 693 c 0
 15 731 146 895 233 895 c 0
 286 895 346 856 490 595 c 0
 630 341 660 196 681 177 c 0
 692 167 688 166 713 193 c 0
 810 296 839 356 875 400 c 1
 862 429 l 2
 819 530 752 691 696 686 c 0
 661 683 673 704 689 731 c 0
 705 757 832 932 911 886 c 0
 1012 827 1197 242 1203 224 c 2
 1210 199 l 1
 1246 252 l 2
 1283 307 1411 498 1411 663 c 0
 1411 718 1393 765 1350 750 c 0
 1338 746 1314 739 1314 754 c 0
EndSplineSet
EndChar

StartChar: w.conl
Encoding: 65568 -1 116
Width: 1723
VWidth: 0
Flags: HW
LayerCount: 2
Fore
SplineSet
1314 754 m 0
 1314 786 1461 926 1560 926 c 0
 1634 926 1653 854 1653 790 c 0
 1653 451 1179 -32 1041 -32 c 0
 1025 -32 1031 -22 961 177 c 0
 953 200 924 277 923 278 c 0
 922 279 604 -33 502 -33 c 0
 490 -33 486 -23 486 -23 c 0
 486 -2 248 584 85 670 c 0
 32 698 -110 697 -110 716 c 0
 -110 747 24 898 127 898 c 0
 273 898 317 901 472 627 c 0
 547 495 609 361 661 217 c 2
 673 185 l 1
 694 166 685 164 713 193 c 0
 810 296 839 356 875 400 c 1
 862 429 l 2
 819 530 752 691 696 686 c 0
 661 683 673 704 689 731 c 0
 705 757 832 932 911 886 c 0
 1012 827 1197 242 1203 224 c 2
 1210 199 l 1
 1246 252 l 2
 1283 307 1411 498 1411 663 c 0
 1411 718 1393 765 1350 750 c 0
 1338 746 1314 739 1314 754 c 0
EndSplineSet
EndChar

StartChar: y
Encoding: 121 121 117
Width: 1136
VWidth: 0
Flags: HW
LayerCount: 2
Fore
SplineSet
738 751 m 0
 738 786 892 926 991 926 c 0
 1049 926 1087 890 1087 784 c 0
 1087 578 918 142 611 -247 c 0
 522 -361 335 -606 52 -700 c 0
 17 -712 -12 -717 -38 -717 c 0
 -92 -717 -138 -687 -138 -675 c 0
 -138 -639 53 -486 98 -523 c 0
 137 -554 168 -558 176 -559 c 1
 195 -539 l 2
 266 -464 435 -254 545 -84 c 2
 562 -58 l 1
 551 -30 l 2
 414 308 149 718 40 685 c 0
 -36 662 130 886 231 895 c 0
 327 904 441 722 496 639 c 0
 600 482 661 355 718 224 c 1
 724 236 850 481 850 652 c 0
 850 726 821 763 772 746 c 0
 749 738 738 741 738 751 c 0
EndSplineSet
EndChar

StartChar: y.conl
Encoding: 65569 -1 118
Width: 1136
VWidth: 0
Flags: HW
LayerCount: 2
Fore
SplineSet
738 751 m 0
 738 786 892 926 991 926 c 0
 1049 926 1087 890 1087 784 c 0
 1087 578 918 142 611 -247 c 0
 522 -361 335 -606 52 -700 c 0
 17 -712 -12 -717 -38 -717 c 0
 -92 -717 -138 -687 -138 -675 c 0
 -138 -639 53 -486 98 -523 c 0
 137 -554 168 -558 176 -559 c 1
 195 -539 l 2
 322 -405 566 -66 561 -57 c 0
 561 -56 469 193 291 453 c 0
 112 715 87 672 -53 699 c 0
 -96 707 -113 704 -109 722 c 0
 -103 749 19 898 131 898 c 0
 288 898 347 894 559 539 c 0
 617 442 677 323 718 224 c 1
 797 388 850 538 850 652 c 0
 850 726 821 763 772 746 c 0
 749 738 738 741 738 751 c 0
EndSplineSet
EndChar

StartChar: z
Encoding: 122 122 119
Width: 1088
VWidth: 0
Flags: HW
LayerCount: 2
Fore
SplineSet
895 895 m 1
 914 898 954 905 983 905 c 0
 1079 905 1020 845 953 792 c 0
 941 782 915 754 669 480 c 0
 520 314 399 178 399 178 c 0
 402 175 398 182 872 187 c 0
 1022 189 1002 243 1060 243 c 0
 1065 243 1071 241 1071 233 c 0
 1071 193 899 28 758 3 c 0
 745 1 753 0 656 0 c 0
 572 0 318 1 234 1 c 0
 75 1 146 -9 62 -9 c 0
 22 -9 12 -2 12 9 c 0
 12 36 74 83 92 99 c 0
 98 105 644 712 644 713 c 0
 643 714 643 713 387 710 c 2
 83 707 l 1
 51 691 8 670 20 704 c 0
 37 751 175 878 270 894 c 0
 280 896 274 896 369 896 c 0
 419 896 496 896 618 896 c 2
 895 895 l 1
EndSplineSet
EndChar

StartChar: z.conl
Encoding: 65570 -1 120
Width: 1088
VWidth: 0
Flags: HW
LayerCount: 2
Fore
SplineSet
896 896 m 1
 915 899 954 905 983 905 c 0
 1080 905 1016 842 953 792 c 0
 940 782 916 755 669 480 c 0
 520 314 399 178 399 178 c 0
 402 175 398 182 872 187 c 0
 1022 189 1002 243 1060 243 c 0
 1065 243 1071 241 1071 233 c 0
 1071 193 899 28 758 3 c 0
 745 1 753 0 656 0 c 0
 572 0 318 1 234 1 c 0
 73 1 153 -9 60 -9 c 0
 25 -9 12 -4 12 10 c 0
 12 24 40 56 83 91 c 0
 83 91 649 713 646 716 c 0
 646 716 645 716 643 716 c 0
 496 716 53 709 -94 709 c 0
 -104 709 -110 708 -110 717 c 0
 -110 748 0 865 93 896 c 1
 896 896 l 1
EndSplineSet
EndChar

StartChar: interpunctdot
Encoding: 65571 -1 121
Width: 0
VWidth: 0
Flags: HW
LayerCount: 2
Fore
SplineSet
-1 166 m 0
 20 166 22 163 94 91 c 0
 169 16 166 20 166 -0 c 0
 166 -20 169 -17 94 -92 c 0
 21 -165 19 -166 2 -166 c 0
 1 -166 1 -166 0 -166 c 0
 -1 -166 -1 -166 -2 -166 c 0
 -19 -166 -21 -165 -94 -92 c 0
 -169 -17 -166 -20 -166 -0 c 0
 -166 20 -168 16 -94 90 c 0
 -20 164 -20 166 -1 166 c 0
EndSplineSet
EndChar

StartChar: interpunctcomma
Encoding: 65572 -1 122
Width: 0
VWidth: 0
Flags: HW
LayerCount: 2
Fore
SplineSet
56 263 m 0
 77 263 164 188 164 75 c 0
 164 -123 -108 -264 -150 -264 c 0
 -160 -264 -164 -259 -164 -256 c 0
 -164 -213 -44 -185 -74 -37 c 0
 -94 62 -164 91 -164 103 c 0
 -164 143 1 263 56 263 c 0
EndSplineSet
EndChar

StartChar: interpunctinvcomma
Encoding: 65573 -1 123
Width: 0
VWidth: 0
Flags: HW
LayerCount: 2
Fore
SplineSet
-164 -76 m 0
 -164 120 105 263 151 263 c 0
 163 263 164 257 164 255 c 0
 164 212 44 183 74 36 c 0
 94 -63 164 -92 164 -104 c 0
 164 -143 2 -264 -58 -264 c 0
 -76 -264 -164 -191 -164 -76 c 0
EndSplineSet
EndChar

StartChar: parenleft
Encoding: 40 40 124
Width: 635
VWidth: 0
Flags: HW
LayerCount: 2
Fore
SplineSet
659 1665 m 2
 670 1665 672 1659 672 1656 c 0
 672 1626 598 1584 558 1524 c 0
 469 1391 375 1105 375 684 c 0
 375 145 526 -169 653 -265 c 0
 666 -275 672 -279 672 -284 c 0
 672 -321 508 -443 452 -443 c 0
 418 -443 201 -263 151 309 c 0
 144 391 142 446 142 537 c 0
 142 1247 371 1489 522 1596 c 0
 576 1635 631 1665 658 1665 c 2
 659 1665 l 2
EndSplineSet
EndChar

StartChar: parenright
Encoding: 41 41 125
Width: 635
VWidth: 0
Flags: HW
LayerCount: 2
Fore
SplineSet
-37 1506 m 0
 -37 1542 125 1665 183 1665 c 0
 203 1665 249 1615 258 1604 c 0
 370 1477 493 1182 493 684 c 0
 493 150 359 -260 34 -424 c 0
 4 -439 -12 -443 -27 -443 c 0
 -35 -443 -37 -436 -37 -434 c 0
 -37 -404 37 -363 77 -303 c 0
 166 -170 260 117 260 538 c 0
 260 1077 108 1390 -19 1486 c 0
 -32 1496 -37 1501 -37 1506 c 0
EndSplineSet
EndChar

StartChar: less
Encoding: 60 60 126
Width: 1018
VWidth: 0
Flags: HW
LayerCount: 2
Fore
SplineSet
881 1012 m 0
 887 1012 891 1008 891 1002 c 0
 891 956 811 833 755 791 c 0
 736 777 374 551 366 544 c 0
 364 542 372 537 388 497 c 1
 635 277 l 2
 890 50 891 50 891 45 c 0
 891 15 736 -57 652 -57 c 0
 628 -57 644 -66 384 166 c 2
 130 393 l 2
 123 400 120 404 120 411 c 0
 120 452 196 571 252 616 c 0
 252 616 867 1012 881 1012 c 0
EndSplineSet
EndChar

StartChar: greater
Encoding: 62 62 127
Width: 1018
VWidth: 0
Flags: HW
LayerCount: 2
Fore
SplineSet
128 851 m 0
 128 879 282 952 367 952 c 0
 392 952 374 961 610 760 c 0
 837 567 838 571 838 555 c 0
 838 499 768 383 726 343 c 0
 714 331 154 -116 147 -120 c 0
 143 -122 141 -123 138 -123 c 0
 134 -123 128 -121 128 -108 c 0
 128 -73 170 18 217 78 c 0
 255 127 580 372 607 398 c 0
 610 401 594 414 569 472 c 1
 358 651 l 2
 162 818 128 845 128 851 c 0
EndSplineSet
EndChar

StartChar: hyphen
Encoding: 45 45 128
Width: 760
VWidth: 0
Flags: HW
LayerCount: 2
Fore
SplineSet
500 542 m 2
 767 542 768 545 768 532 c 0
 768 501 663 392 568 355 c 1
 286 354 l 2
 241 354 198 354 160 354 c 0
 -8 354 -7 351 -7 364 c 0
 -7 399 120 521 191 540 c 0
 196 541 247 542 478 542 c 2
 500 542 l 2
EndSplineSet
EndChar

StartChar: endash
Encoding: 8211 8211 129
Width: 896
VWidth: 0
Flags: HW
LayerCount: 2
Fore
SplineSet
582 542 m 2
 997 542 1006 548 1006 532 c 0
 1006 501 901 392 806 355 c 1
 354 354 l 2
 282 354 213 354 152 354 c 0
 -110 354 -110 350 -110 364 c 0
 -110 399 18 521 89 540 c 0
 94 541 172 542 546 542 c 2
 582 542 l 2
EndSplineSet
EndChar

StartChar: emdash
Encoding: 8212 8212 130
Width: 1343
VWidth: 0
Flags: HW
LayerCount: 2
Fore
SplineSet
277 354 m 0
 -109 354 -110 348 -110 364 c 0
 -110 399 18 521 89 540 c 0
 94 541 208 542 770 542 c 2
 824 542 l 2
 1216 542 1446 542 1448 541 c 0
 1452 540 1454 536 1454 532 c 0
 1454 501 1349 392 1254 355 c 1
 578 354 l 2
 470 354 368 354 277 354 c 0
EndSplineSet
EndChar

StartChar: quotesingle
Encoding: 39 39 131
Width: 476
VWidth: 0
Flags: HW
LayerCount: 2
Fore
SplineSet
115 1395 m 1
 146 1454 295 1534 345 1534 c 2
 346 1534 l 2
 358 1534 361 1531 361 1522 c 0
 361 1495 318 1203 307 1170 c 0
 277 1081 199 977 172 977 c 0
 151 977 118 1363 118 1363 c 2
 115 1395 l 1
EndSplineSet
EndChar

StartChar: quotedbl
Encoding: 34 34 132
Width: 713
VWidth: 0
Flags: HW
LayerCount: 2
Fore
SplineSet
614 1543 m 2
 620 1543 627 1542 627 1533 c 0
 627 1514 589 1216 584 1192 c 0
 565 1106 474 978 443 978 c 0
 423 978 394 1383 394 1384 c 0
 394 1424 558 1543 613 1543 c 2
 614 1543 l 2
308 1543 m 2
 319 1543 321 1537 321 1534 c 0
 321 1517 282 1208 278 1190 c 0
 265 1124 174 977 138 977 c 0
 134 977 130 980 129 985 c 0
 123 1007 87 1351 87 1382 c 0
 87 1424 252 1543 307 1543 c 2
 308 1543 l 2
EndSplineSet
EndChar

StartChar: exclam
Encoding: 33 33 133
Width: 635
VWidth: 0
Flags: HW
LayerCount: 2
Fore
SplineSet
462 141 m 0
 462 111 446 100 400 54 c 0
 362 17 348 -4 318 -4 c 0
 288 -4 277 11 231 57 c 0
 194 95 173 110 173 140 c 0
 173 170 188 181 234 227 c 0
 318 311 324 304 404 223 c 0
 441 185 462 171 462 141 c 0
436 1663 m 0
 449 1663 449 1659 449 1646 c 0
 449 1587 434 1175 429 1057 c 2
 426 975 l 2
 408 506 419 530 353 421 c 0
 318 364 282 325 266 325 c 0
 253 325 255 338 244 641 c 2
 236 863 l 2
 231 989 216 1429 216 1492 c 0
 216 1512 217 1514 223 1522 c 0
 261 1579 393 1663 436 1663 c 0
EndSplineSet
EndChar

StartChar: question
Encoding: 63 63 134
Width: 1061
VWidth: 0
Flags: HW
LayerCount: 2
Fore
SplineSet
531 -4 m 0
 502 -4 491 11 445 57 c 0
 362 141 366 146 450 229 c 0
 532 311 537 303 616 223 c 0
 699 139 695 135 611 52 c 0
 564 5 555 -4 531 -4 c 0
37 1186 m 0
 37 1436 421 1663 658 1663 c 0
 901 1663 1025 1510 1025 1355 c 0
 1025 1044 595 908 595 631 c 0
 595 503 724 487 724 487 c 0
 771 476 578 318 508 318 c 0
 398 318 272 475 453 718 c 0
 601 916 791 999 791 1208 c 0
 791 1354 660 1493 463 1493 c 2
 462 1493 l 2
 408 1493 317 1480 305 1462 c 0
 283 1428 272 1383 272 1338 c 0
 272 1225 354 1167 403 1150 c 0
 419 1145 438 1139 384 1087 c 0
 384 1087 244 958 181 982 c 0
 65 1025 37 1127 37 1186 c 0
EndSplineSet
EndChar

StartChar: uni204A
Encoding: 8266 8266 135
Width: 941
VWidth: 0
Flags: HW
LayerCount: 2
Fore
SplineSet
-23 409 m 0
 -33 409 -35 412 -39 415 c 1
 -39 473 -49 576 136 730 c 0
 334 895 442 885 541 885 c 0
 790 885 861 884 864 880 c 0
 869 874 861 702 861 284 c 0
 861 176 867 129 877 73 c 1
 847 18 817 44 726 -58 c 0
 632 -163 458 -245 391 -245 c 0
 342 -245 400 -198 435 -177 c 0
 449 -169 452 -166 476 -142 c 2
 526 -91 l 2
 626 10 617 145 620 241 c 2
 625 403 l 2
 626 453 630 583 631 646 c 2
 631 685 l 1
 626 685 235 699 226 694 c 0
 219 690 205 630 205 590 c 0
 205 552 220 545 166 502 c 0
 106 453 13 409 -23 409 c 0
EndSplineSet
EndChar

StartChar: uni200C
Encoding: 8204 8204 206
Width: 0
VWidth: 0
Flags: HW
LayerCount: 2
Fore
SplineSet
-42 -0 m 1
 -42 1980 l 1
 44 1980 l 1
 44 -0 l 1
 -42 -0 l 1
EndSplineSet
EndChar

StartChar: uni200D
Encoding: 8205 8205 207
Width: 0
VWidth: 0
Flags: HW
LayerCount: 2
Fore
SplineSet
-128 2146 m 0
 -128 2146 -99 2117 -64 2082 c 2
 0 2019 l 1
 128 2147 l 1
 189 2086 l 1
 61 1958 l 1
 189 1830 l 1
 128 1769 l 1
 44 1854 l 1
 44 -0 l 1
 -42 -0 l 1
 -42 1855 l 1
 -128 1769 l 1
 -189 1830 l 1
 -61 1958 l 1
 -189 2086 l 1
 -159 2116 l 2
 -142 2133 -128 2146 -128 2146 c 0
EndSplineSet
EndChar

StartChar: uniE02C
Encoding: 57388 57388 214
Width: 615
VWidth: 0
Flags: HW
LayerCount: 2
Fore
SplineSet
322 882 m 0
 424 882 439 733 450 585 c 0
 454 525 451 -401 459 -450 c 0
 465 -490 480 -508 480 -514 c 0
 480 -547 386 -591 316 -652 c 0
 172 -777 65 -820 28 -820 c 0
 18 -820 13 -817 13 -811 c 0
 13 -748 204 -740 209 -498 c 0
 211 -411 215 284 215 371 c 0
 215 393 225 747 104 698 c 0
 61 681 57 702 95 746 c 0
 111 764 231 882 322 882 c 0
EndSplineSet
EndChar

StartChar: uniE02C.conl
Encoding: 65594 -1 215
Width: 615
VWidth: 0
Flags: HW
LayerCount: 2
Fore
SplineSet
480 -548 m 0
 480 -578 373 -638 338 -667 c 0
 220 -765 114 -819 68 -819 c 0
 9 -819 138 -728 143 -721 c 0
 219 -631 215 -674 215 393 c 0
 215 477 218 667 113 697 c 0
 101 700 91 702 -18 708 c 0
 -121 714 -116 713 -116 722 c 0
 -116 758 18 861 89 880 c 0
 97 882 105 883 195 883 c 2
 215 883 l 2
 278 883 320 888 361 859 c 0
 467 784 454 621 454 -267 c 0
 454 -479 456 -495 473 -530 c 0
 478 -539 480 -544 480 -548 c 0
EndSplineSet
EndChar

StartChar: uniE02D
Encoding: 57389 57389 216
Width: 615
VWidth: 0
Flags: HW
LayerCount: 2
Fore
SplineSet
68 1520 m 0
 68 1559 231 1702 323 1702 c 0
 479 1702 452 1333 454 928 c 2
 456 607 l 2
 459 148 467 155 467 148 c 0
 467 102 163 -27 105 -27 c 0
 62 -27 102 11 146 38 c 0
 222 85 203 141 212 900 c 0
 214 1071 215 1164 215 1222 c 0
 215 1222 220 1564 106 1517 c 0
 86 1509 68 1507 68 1520 c 0
EndSplineSet
EndChar

StartChar: uniE02E
Encoding: 57390 57390 217
Width: 615
VWidth: 0
Flags: HW
LayerCount: 2
Fore
SplineSet
68 703 m 0
 68 741 223 882 315 882 c 0
 339 882 402 876 435 740 c 0
 467 610 443 300 464 169 c 0
 465 163 466 160 466 158 c 0
 466 108 169 -21 107 -21 c 0
 93 -21 88 -17 88 -11 c 0
 88 26 183 30 206 140 c 0
 211 165 214 444 214 469 c 0
 214 576 177 725 101 699 c 0
 78 691 68 694 68 703 c 0
EndSplineSet
EndChar

StartChar: uniE02E.conl
Encoding: 65595 -1 218
Width: 615
VWidth: 0
Flags: HW
LayerCount: 2
Fore
SplineSet
107 -21 m 0
 93 -21 88 -17 88 -11 c 0
 88 26 184 32 206 141 c 0
 212 168 215 466 215 466 c 0
 215 561 189 692 87 701 c 0
 -92 716 -116 705 -116 722 c 0
 -116 758 18 861 89 880 c 0
 95 882 101 882 145 882 c 0
 159 882 177 882 200 882 c 2
 301 882 l 1
 440 844 450 704 452 523 c 0
 456 157 466 168 466 158 c 0
 466 108 169 -21 107 -21 c 0
EndSplineSet
EndChar

StartChar: uniE02E.conr
Encoding: 65596 -1 219
Width: 615
VWidth: 0
Flags: HW
LayerCount: 2
Fore
SplineSet
68 703 m 0
 68 741 223 882 315 882 c 0
 339 882 402 876 435 740 c 0
 467 610 443 294 464 170 c 0
 466 156 466 154 461 146 c 0
 458 141 457 140 459 141 c 0
 481 148 716 176 727 168 c 0
 730 166 731 162 731 159 c 0
 731 136 598 0 493 0 c 0
 467 0 424 1 407 1 c 0
 211 1 135 -22 105 -22 c 0
 97 -22 88 -19 88 -11 c 0
 88 26 183 31 206 140 c 0
 211 165 214 444 214 469 c 0
 214 576 177 725 101 699 c 0
 78 691 68 694 68 703 c 0
EndSplineSet
EndChar

StartChar: uniE02E.conb
Encoding: 65597 -1 220
Width: 615
VWidth: 0
Flags: HW
LayerCount: 2
Fore
SplineSet
105 -22 m 0
 97 -22 88 -19 88 -11 c 0
 88 26 184 32 206 141 c 0
 212 168 215 466 215 466 c 0
 215 561 189 692 87 701 c 0
 -92 716 -116 705 -116 722 c 0
 -116 758 18 861 89 880 c 0
 95 882 101 882 145 882 c 0
 159 882 177 882 200 882 c 2
 301 882 l 1
 440 844 450 704 452 523 c 0
 455 251 457 214 464 170 c 0
 466 156 466 154 461 146 c 0
 458 141 457 140 459 141 c 0
 481 148 716 176 727 168 c 0
 730 166 731 162 731 159 c 0
 731 136 598 0 493 0 c 0
 467 0 424 1 407 1 c 0
 211 1 135 -22 105 -22 c 0
EndSplineSet
EndChar

StartChar: uniE02F
Encoding: 57391 57391 221
Width: 615
VWidth: 0
Flags: HW
LayerCount: 2
Fore
SplineSet
69 1520 m 0
 69 1558 227 1701 323 1701 c 0
 481 1701 453 1423 456 127 c 0
 458 -501 454 -507 481 -552 c 0
 483 -556 485 -561 485 -563 c 0
 485 -581 430 -620 360 -652 c 0
 316 -672 148 -834 67 -834 c 0
 60 -834 58 -830 58 -825 c 0
 58 -775 176 -751 201 -612 c 0
 208 -575 216 1202 216 1202 c 0
 216 1424 176 1546 109 1518 c 0
 85 1508 69 1508 69 1520 c 0
EndSplineSet
EndChar

StartChar: uniE036
Encoding: 57398 57398 286
Width: 1212
VWidth: 0
Flags: HW
LayerCount: 2
Fore
SplineSet
50 694 m 0
 50 733 195 882 285 882 c 0
 316 882 400 862 400 739 c 0
 400 632 350 547 350 442 c 0
 350 301 452 170 604 170 c 0
 737 170 789 235 862 362 c 1
 862 401 l 2
 859 730 843 717 843 729 c 0
 843 770 1041 875 1137 875 c 0
 1171 875 1153 849 1126 827 c 0
 1104 809 1101 754 1101 310 c 0
 1101 129 1173 191 1173 164 c 0
 1173 125 1016 -6 956 -6 c 2
 954 -6 l 2
 880 -6 867 74 864 228 c 1
 763 127 590 0 407 -0 c 0
 227 0 111 142 111 298 c 0
 111 407 169 499 169 599 c 0
 169 661 124 706 79 690 c 0
 58 683 50 687 50 694 c 0
EndSplineSet
EndChar

StartChar: uniE036.conl
Encoding: 65662 -1 287
Width: 1212
VWidth: 0
Flags: HW
LayerCount: 2
Fore
SplineSet
-116 722 m 0
 -116 738 2 887 156 888 c 2
 157 888 l 2
 551 888 350 654 350 442 c 0
 350 310 445 170 604 170 c 0
 737 170 789 235 862 362 c 1
 862 401 l 2
 859 730 843 717 843 729 c 0
 843 770 1041 875 1137 875 c 0
 1171 875 1153 849 1126 827 c 0
 1104 809 1101 754 1101 310 c 0
 1101 129 1173 191 1173 164 c 0
 1173 125 1016 -6 956 -6 c 2
 954 -6 l 2
 880 -6 867 74 864 228 c 1
 763 127 590 0 407 -0 c 0
 227 0 111 143 111 298 c 0
 111 459 276 687 49 691 c 0
 21 691 -116 704 -116 722 c 0
EndSplineSet
EndChar

StartChar: uniE036.dec
Encoding: 65663 -1 288
Width: 1517
VWidth: 0
Flags: HW
LayerCount: 2
Fore
SplineSet
46 828 m 0
 46 862 184 1014 281 1014 c 0
 344 1014 401 945 401 841 c 0
 401 725 350 618 350 498 c 0
 350 344 441 170 616 170 c 0
 645 170 725 176 762 215 c 0
 828 285 872 379 891 424 c 1
 891 439 891 454 891 469 c 0
 891 771 888 751 950 815 c 0
 1052 920 1113 921 1389 1072 c 0
 1420 1089 1475 1116 1504 1116 c 0
 1510 1116 1519 1115 1519 1107 c 0
 1519 1067 1474 1114 1459 945 c 0
 1449 834 1448 616 1448 483 c 0
 1448 284 1452 189 1493 189 c 0
 1551 189 1362 -8 1303 -8 c 0
 1220 -8 1232 207 1226 207 c 0
 1206 207 1020 -36 957 -4 c 0
 912 19 900 123 895 249 c 1
 793 142 611 0 421 0 c 0
 204 0 111 196 111 353 c 0
 111 475 170 589 170 702 c 0
 170 777 120 841 74 823 c 0
 55 816 46 817 46 828 c 0
1221 601 m 0
 1221 849 1237 911 1237 911 c 0
 1235 911 1118 843 1117 842 c 0
 1119 756 1120 692 1120 628 c 0
 1120 508 1116 483 1116 387 c 0
 1116 248 1130 228 1137 213 c 1
 1224 300 l 1
 1222 378 l 2
 1221 427 1221 518 1221 601 c 0
EndSplineSet
EndChar

StartChar: uniE03E
Encoding: 57406 57406 289
Width: 1308
VWidth: 0
Flags: HW
LayerCount: 2
Fore
SplineSet
581 170 m 0
 740 170 812 258 885 365 c 1
 885 401 l 2
 884 557 885 652 870 711 c 1
 796 708 796 708 746 706 c 1
 738 493 748 510 693 453 c 0
 636 394 559 343 530 343 c 0
 515 343 515 343 506 699 c 1
 484 698 454 697 419 697 c 1
 349 630 296 552 296 455 c 0
 296 316 436 170 581 170 c 0
10 771 m 0
 10 859 186 986 230 986 c 0
 259 986 217 954 235 917 c 0
 254 878 265 876 655 876 c 0
 1195 876 1172 888 1206 905 c 0
 1259 931 1274 925 1274 915 c 0
 1274 891 1207 828 1132 785 c 1
 1126 754 1124 657 1124 310 c 0
 1124 129 1195 191 1195 164 c 0
 1195 125 1039 -6 979 -6 c 2
 977 -6 l 2
 899 -6 888 82 886 249 c 1
 769 134 582 0 380 -0 c 0
 207 0 62 155 62 306 c 0
 62 384 111 537 316 697 c 1
 297 697 277 697 258 697 c 0
 117 697 10 679 10 771 c 0
EndSplineSet
EndChar

StartChar: uniE024.lig_harma
Encoding: 65664 -1 290
Width: 817
VWidth: 0
Flags: HW
LayerCount: 2
Fore
SplineSet
461 -31 m 0
 295 -31 88 88 88 326 c 0
 88 836 1162 1691 1842 1691 c 0
 1851 1691 1858 1691 1858 1682 c 0
 1858 1646 1740 1530 1670 1505 c 0
 1643 1495 1089 1547 563 965 c 0
 407 793 322 623 322 470 c 0
 322 248 549 118 696 141 c 0
 725 146 742 153 758 167 c 0
 900 297 899 447 906 461 c 0
 933 517 1067 623 1110 623 c 0
 1115 623 1117 621 1122 617 c 1
 1108 287 674 -31 461 -31 c 0
EndSplineSet
EndChar

StartChar: uniE067
Encoding: 57447 57447 291
Width: 767
VWidth: 0
Flags: HW
LayerCount: 2
Fore
SplineSet
-44 -578 m 0
 -57 -578 -59 -572 -59 -569 c 0
 -59 -557 -17 -478 107 -361 c 1
 146 -237 156 12 156 540 c 0
 156 1032 152 1314 17 1261 c 0
 -83 1221 109 1464 231 1464 c 0
 352 1464 357 1233 363 1227 c 0
 380 1210 661 1483 701 1451 c 1
 701 795 l 2
 701 434 702 112 702 80 c 2
 702 22 l 1
 623 -137 434 -161 327 -273 c 1
 297 -304 l 2
 208 -394 200 -446 113 -507 c 0
 74 -534 -6 -578 -44 -578 c 0
382 506 m 0
 382 -160 361 -123 361 -160 c 0
 361 -161 375 -151 393 -139 c 2
 486 -76 l 1
 487 87 l 2
 487 152 488 326 488 520 c 0
 488 592 487 666 487 738 c 2
 487 1227 l 1
 370 1141 l 1
 376 1078 382 823 382 506 c 0
EndSplineSet
EndChar

StartChar: uniE037
Encoding: 57399 57399 292
Width: 1247
VWidth: 0
Flags: HW
LayerCount: 2
Fore
SplineSet
172 134 m 0
 172 137 99 222 99 369 c 0
 99 686 548 913 765 913 c 0
 1011 913 1114 705 1146 488 c 0
 1159 399 1159 218 1159 142 c 0
 1159 -505 1168 -476 1184 -504 c 0
 1186 -508 1188 -511 1188 -514 c 0
 1188 -549 1099 -586 1020 -655 c 0
 868 -788 762 -820 736 -820 c 0
 723 -820 721 -815 721 -811 c 0
 721 -761 887 -727 915 -550 c 0
 916 -541 917 -519 918 -472 c 2
 924 -131 l 2
 925 -95 926 -51 926 -33 c 2
 927 -0 l 1
 884 -0 l 2
 860 0 636 0 386 0 c 2
 -69 0 l 1
 -75 4 -77 6 -77 10 c 0
 -77 39 68 125 160 132 c 0
 167 132 172 134 172 134 c 0
929 201 m 0
 929 378 854 743 556 743 c 0
 484 743 416 723 408 716 c 0
 393 702 337 625 337 511 c 0
 337 281 535 159 556 159 c 0
 560 159 564 160 593 161 c 2
 720 167 l 2
 913 177 889 175 928 178 c 1
 929 190 929 192 929 201 c 0
EndSplineSet
EndChar

StartChar: uniE037.var
Encoding: 65665 -1 293
Width: 1222
VWidth: 0
Flags: HW
LayerCount: 2
Fore
SplineSet
172 134 m 0
 172 138 99 225 99 364 c 0
 99 685 517 913 727 913 c 0
 1021 913 1157 624 1157 337 c 0
 1157 -525 454 -895 359 -895 c 0
 306 -895 394 -825 457 -787 c 0
 693 -645 867 -348 916 -0 c 1
 859 -0 l 2
 827 0 606 0 367 0 c 2
 -69 0 l 1
 -75 4 -77 6 -77 10 c 0
 -77 39 68 125 160 132 c 0
 167 132 172 134 172 134 c 0
552 158 m 1
 930 178 l 1
 929 205 l 2
 921 462 794 743 507 743 c 0
 399 743 394 705 394 705 c 0
 356 647 338 585 338 512 c 0
 338 433 363 264 552 158 c 1
EndSplineSet
EndChar

StartChar: uniE06A
Encoding: 57450 57450 294
Width: 793
VWidth: 0
Flags: HW
LayerCount: 2
Fore
SplineSet
439 825 m 0
 421 825 426 825 426 1188 c 0
 426 1243 426 1290 426 1330 c 0
 426 1572 427 1548 435 1560 c 0
 473 1617 605 1702 647 1702 c 0
 652 1702 656 1700 658 1698 c 0
 660 1695 660 1684 660 1339 c 2
 660 983 l 1
 628 914 481 825 439 825 c 0
146 825 m 0
 128 825 133 825 133 1188 c 0
 133 1243 133 1290 133 1330 c 0
 133 1572 133 1548 141 1560 c 0
 179 1617 311 1702 353 1702 c 0
 358 1702 363 1700 365 1698 c 0
 367 1695 367 1684 367 1339 c 2
 367 983 l 1
 335 914 188 825 146 825 c 0
EndSplineSet
EndChar

StartChar: uniE06C
Encoding: 57452 57452 295
Width: 2098
VWidth: 0
Flags: HW
LayerCount: 2
Fore
SplineSet
1050 632 m 0
 1062 632 1063 631 1152 542 c 0
 1237 457 1240 454 1240 440 c 0
 1240 428 1238 426 1151 339 c 0
 1062 250 1062 250 1050 250 c 0
 1038 250 1038 250 949 339 c 0
 862 426 859 428 859 440 c 0
 859 467 1037 629 1037 629 c 0
 1041 631 1047 632 1050 632 c 0
2139 662 m 0
 2139 628 1931 436 1792 436 c 0
 1671 436 1560 536 1489 611 c 0
 1331 779 1185 953 1045 1138 c 1
 1014 1177 l 1
 1002 1165 878 938 586 680 c 0
 322 447 81 370 -16 513 c 0
 -22 521 -24 526 -24 530 c 0
 -24 574 170 705 203 688 c 0
 212 683 236 619 322 619 c 0
 404 619 478 672 527 715 c 0
 819 970 929 1284 959 1323 c 0
 1001 1379 1108 1463 1150 1463 c 0
 1167 1463 1318 1198 1667 829 c 0
 1873 611 2025 629 2077 655 c 0
 2121 677 2139 676 2139 662 c 0
EndSplineSet
EndChar

StartChar: uniE039.var1
Encoding: 65666 -1 296
Width: 1165
VWidth: 0
Flags: HW
LayerCount: 2
Fore
SplineSet
319 1363 m 0
 319 1418 552 1663 754 1663 c 0
 888 1663 965 1556 965 1485 c 0
 965 1297 695 980 695 978 c 0
 695 940 923 378 996 267 c 0
 1018 233 1065 197 1111 197 c 0
 1127 197 1157 210 1157 192 c 0
 1157 149 964 -1 894 -1 c 0
 839 -1 818 38 732 228 c 0
 723 247 728 246 706 221 c 0
 616 120 450 -16 279 -16 c 0
 128 -16 63 113 63 231 c 0
 63 314 96 435 278 648 c 1
 401 785 l 1
 632 1035 731 1225 731 1335 c 0
 731 1404 636 1512 532 1491 c 0
 467 1478 443 1415 363 1367 c 0
 336 1351 319 1349 319 1363 c 0
297 384 m 0
 297 281 356 155 473 155 c 0
 552 155 591 189 652 260 c 0
 673 285 694 309 694 311 c 0
 694 316 614 484 517 748 c 0
 512 761 508 772 508 772 c 0
 508 772 327 579 301 433 c 0
 298 417 297 400 297 384 c 0
EndSplineSet
EndChar

StartChar: uniE039.var2
Encoding: 65667 -1 297
Width: 1138
VWidth: 0
Flags: HW
LayerCount: 2
Fore
SplineSet
-133 69 m 0
 -133 108 32 229 87 229 c 0
 107 229 116 171 189 180 c 0
 208 182 200 173 257 277 c 0
 458 646 567 960 573 1267 c 0
 576 1436 439 1534 366 1478 c 0
 366 1478 200 1320 205 1378 c 0
 210 1437 427 1664 625 1664 c 0
 704 1664 807 1572 807 1433 c 0
 807 1105 680 834 680 827 c 0
 680 806 916 322 983 241 c 0
 1002 219 1038 204 1072 204 c 0
 1099 204 1131 221 1131 204 c 0
 1131 158 925 -1 854 -1 c 0
 817 -1 802 27 792 44 c 0
 676 240 543 507 536 528 c 0
 535 530 418 324 396 290 c 0
 300 145 106 -3 -14 -3 c 0
 -101 -3 -133 64 -133 69 c 0
EndSplineSet
EndChar

StartChar: uniE039
Encoding: 57401 57401 298
Width: 1152
VWidth: 0
Flags: HW
LayerCount: 2
Fore
SplineSet
138 1236 m 0
 138 1327 346 1665 641 1665 c 0
 776 1665 891 1563 916 1452 c 0
 927 1403 950 983 526 484 c 0
 520 477 515 471 515 471 c 0
 517 468 551 496 629 496 c 0
 853 496 840 225 1040 225 c 0
 1104 225 1158 250 1158 229 c 0
 1158 192 935 0 857 -0 c 0
 686 0 665 280 445 280 c 0
 295 280 208 150 71 48 c 0
 32 19 -5 0 -22 -0 c 0
 -28 0 -33 4 -33 9 c 0
 -33 79 306 271 517 664 c 2
 533 693 l 2
 687 978 694 1243 681 1299 c 0
 655 1409 545 1494 452 1494 c 0
 300 1494 255 1318 179 1242 c 0
 154 1217 138 1214 138 1236 c 0
EndSplineSet
EndChar

StartChar: uniE028
Encoding: 57384 57384 299
Width: 1126
VWidth: 0
Flags: HW
LayerCount: 2
Fore
SplineSet
-3 -1 m 0
 -90 -1 -129 63 -129 72 c 0
 -129 107 17 221 84 232 c 0
 115 237 127 161 210 179 c 0
 226 182 379 454 482 695 c 0
 496 727 502 731 502 734 c 0
 502 741 285 1214 249 1277 c 0
 178 1403 87 1481 6 1481 c 0
 -44 1481 -81 1434 -79 1471 c 0
 -76 1521 87 1704 183 1704 c 0
 343 1704 432 1471 653 987 c 1
 864 530 l 1
 968 309 1043 166 1118 191 c 0
 1140 198 1149 197 1149 185 c 0
 1149 146 969 -1 893 -1 c 0
 854 -1 817 21 734 211 c 1
 596 522 l 2
 573 574 573 584 566 570 c 0
 395 229 308 150 188 71 c 0
 115 23 51 -1 -3 -1 c 0
EndSplineSet
EndChar

StartChar: uniE028.conr
Encoding: 65668 -1 300
Width: 1228
VWidth: 0
Flags: HW
LayerCount: 2
Fore
SplineSet
-3 -1 m 0
 -90 -1 -129 63 -129 72 c 0
 -129 107 17 221 84 232 c 0
 115 237 127 161 210 179 c 0
 226 182 379 454 482 695 c 0
 496 727 502 731 502 734 c 0
 502 739 282 1224 239 1295 c 0
 183 1388 93 1485 1 1481 c 0
 -43 1479 -81 1435 -79 1471 c 0
 -76 1521 87 1704 183 1704 c 0
 278 1704 362 1594 407 1511 c 0
 434 1461 533 1248 653 986 c 2
 722 837 l 2
 793 681 972 194 1324 170 c 0
 1342 169 1345 167 1345 160 c 0
 1345 129 1238 35 1136 0 c 1
 1102 0 l 2
 922 0 767 125 652 393 c 1
 571 579 l 1
 400 241 321 159 188 71 c 0
 115 23 51 -1 -3 -1 c 0
EndSplineSet
EndChar

StartChar: uniE028.dec
Encoding: 65669 -1 301
Width: 1510
VWidth: 0
Flags: HW
LayerCount: 2
Fore
SplineSet
-25 -1 m 0
 -104 -1 -137 60 -137 66 c 0
 -137 108 70 260 98 217 c 0
 124 177 158 178 183 177 c 1
 203 210 327 461 429 766 c 0
 457 852 463 849 463 850 c 0
 463 853 451 881 408 967 c 2
 300 1186 l 2
 283 1220 146 1567 -33 1561 c 0
 -53 1560 -64 1557 -76 1549 c 0
 -104 1530 -119 1533 -113 1556 c 0
 -96 1624 50 1788 139 1788 c 0
 270 1788 364 1592 376 1574 c 0
 376 1574 543 1737 546 1740 c 0
 593 1779 620 1789 627 1789 c 0
 635 1789 645 1766 750 1557 c 2
 1289 492 l 2
 1334 404 1448 165 1528 198 c 0
 1551 208 1564 205 1564 194 c 0
 1564 151 1384 -2 1311 -2 c 0
 1278 -2 1237 17 1148 213 c 1
 1071 137 l 2
 1016 82 930 -4 895 -4 c 0
 890 -4 891 -6 814 148 c 2
 554 672 l 1
 393 279 348 226 249 139 c 0
 214 109 85 -1 -25 -1 c 0
459 1565 m 0
 459 1565 447 1553 433 1539 c 2
 406 1512 l 1
 969 394 l 1
 1059 221 1052 231 1065 222 c 1
 1118 274 l 1
 725 1068 l 2
 479 1563 493 1541 469 1558 c 0
 464 1562 459 1565 459 1565 c 0
EndSplineSet
EndChar

StartChar: uniE02A
Encoding: 57386 57386 302
Width: 1126
VWidth: 0
Flags: HW
LayerCount: 2
Fore
SplineSet
100 245 m 0
 127 245 113 188 224 178 c 1
 309 309 370 434 412 522 c 2
 429 557 l 1
 409 584 l 2
 395 603 358 672 268 691 c 0
 222 701 198 684 193 697 c 0
 179 730 330 916 423 916 c 0
 493 916 525 876 570 812 c 2
 746 559 l 1
 881 363 999 159 1100 195 c 0
 1110 198 1134 204 1134 190 c 0
 1134 151 948 -2 865 -2 c 0
 795 -2 762 64 641 245 c 0
 537 401 509 441 508 441 c 0
 506 441 407 263 358 202 c 0
 337 176 180 -1 27 -1 c 0
 -73 -1 -120 76 -120 85 c 0
 -120 125 46 245 100 245 c 0
EndSplineSet
EndChar

StartChar: uniE02A.conr
Encoding: 65670 -1 303
Width: 1203
VWidth: 0
Flags: HW
LayerCount: 2
Fore
SplineSet
100 245 m 0
 127 245 113 188 224 178 c 1
 309 309 370 434 412 522 c 2
 429 557 l 1
 409 584 l 2
 396 603 358 672 268 691 c 0
 222 701 198 684 193 697 c 0
 179 730 330 916 423 916 c 0
 552 916 577 760 815 476 c 0
 1024 226 1207 170 1305 170 c 0
 1315 170 1320 166 1320 160 c 0
 1320 138 1193 0 1071 -0 c 0
 725 0 527 441 508 441 c 0
 506 441 407 263 358 202 c 0
 337 176 180 -1 27 -1 c 0
 -73 -1 -120 76 -120 85 c 0
 -120 125 46 245 100 245 c 0
EndSplineSet
EndChar

StartChar: uniE02A.dec
Encoding: 65671 -1 304
Width: 1510
VWidth: 0
Flags: HW
LayerCount: 2
Fore
SplineSet
8 -1 m 0
 -85 -1 -126 68 -126 77 c 0
 -126 112 25 230 91 237 c 0
 118 240 118 179 203 179 c 2
 217 179 l 1
 277 277 358 418 433 586 c 2
 449 623 l 2
 461 650 466 653 466 656 c 0
 466 656 398 837 242 819 c 1
 212 855 366 1047 456 1047 c 0
 559 1047 615 874 655 828 c 0
 656 827 861 1047 910 1047 c 0
 918 1047 920 1043 950 997 c 2
 1162 668 l 2
 1355 371 1456 166 1566 203 c 0
 1586 210 1596 208 1596 198 c 0
 1596 155 1412 -3 1336 -3 c 0
 1270 -3 1230 79 1194 136 c 2
 1146 212 l 1
 1069 135 l 2
 1032 98 931 -5 896 -5 c 0
 891 -5 889 -2 873 21 c 2
 721 248 l 1
 564 496 l 2
 542 532 548 531 533 504 c 0
 384 224 336 177 251 109 c 0
 206 73 105 -1 8 -1 c 0
690 772 m 1
 797 594 1050 225 1055 228 c 0
 1056 229 1059 227 1065 222 c 1
 1088 245 l 2
 1101 258 1111 268 1111 269 c 0
 1111 269 778 800 766 808 c 0
 762 811 743 824 742 824 c 0
 742 824 730 812 716 798 c 2
 690 772 l 1
EndSplineSet
EndChar

StartChar: uniE040.norm
Encoding: 65672 -1 305
Width: 0
VWidth: 0
Flags: HW
LayerCount: 2
Fore
SplineSet
315 1164 m 0
 315 1120 190 1021 189 1021 c 0
 180 1017 179 1016 166 1016 c 0
 142 1016 143 1016 82 1077 c 0
 -6 1164 -4 1166 81 1251 c 0
 169 1339 171 1331 251 1251 c 0
 299 1203 315 1192 315 1164 c 0
-166 1016 m 0
 -190 1016 -190 1016 -251 1077 c 0
 -292 1118 -315 1135 -315 1164 c 0
 -315 1192 -298 1205 -252 1251 c 0
 -163 1339 -162 1330 -82 1251 c 0
 6 1164 3 1162 -82 1077 c 0
 -134 1025 -139 1016 -166 1016 c 0
-1 1594 m 0
 28 1594 33 1585 85 1533 c 0
 133 1485 148 1473 148 1445 c 0
 148 1401 24 1302 23 1302 c 0
 14 1298 13 1298 0 1298 c 0
 -24 1298 -24 1298 -85 1359 c 0
 -141 1414 -148 1422 -148 1446 c 0
 -148 1475 -126 1492 -85 1533 c 0
 -24 1594 -22 1594 -1 1594 c 0
EndSplineSet
EndChar

StartChar: uniE041.norm
Encoding: 65673 -1 306
Width: 0
VWidth: 0
Flags: HW
LayerCount: 2
Fore
SplineSet
0 -712 m 0
 -24 -712 -24 -712 -85 -651 c 0
 -173 -564 -170 -562 -85 -477 c 0
 3 -389 5 -397 85 -477 c 0
 173 -564 171 -566 85 -651 c 0
 33 -703 27 -712 0 -712 c 0
166 -134 m 0
 195 -134 199 -143 251 -195 c 0
 299 -243 315 -255 315 -283 c 0
 315 -327 190 -426 189 -426 c 0
 180 -430 179 -430 166 -430 c 0
 142 -430 143 -430 82 -369 c 0
 -6 -282 -4 -280 81 -195 c 0
 142 -134 145 -134 166 -134 c 0
-167 -134 m 0
 -138 -134 -134 -143 -82 -195 c 0
 -34 -243 -18 -255 -18 -283 c 0
 -18 -327 -142 -426 -143 -426 c 0
 -152 -430 -153 -430 -166 -430 c 0
 -190 -430 -190 -430 -251 -369 c 0
 -307 -314 -315 -306 -315 -282 c 0
 -315 -253 -293 -236 -252 -195 c 0
 -191 -134 -188 -134 -167 -134 c 0
EndSplineSet
EndChar

StartChar: uniE056.norm
Encoding: 65674 -1 307
Width: 0
VWidth: 0
Flags: HW
LayerCount: 2
Fore
SplineSet
0 1016 m 0
 -24 1016 -24 1016 -85 1077 c 0
 -173 1164 -170 1166 -85 1251 c 0
 3 1339 5 1331 85 1251 c 0
 173 1164 171 1162 85 1077 c 0
 33 1025 27 1016 0 1016 c 0
166 1594 m 0
 195 1594 199 1585 251 1533 c 0
 299 1485 315 1473 315 1445 c 0
 315 1401 190 1302 189 1302 c 0
 180 1298 179 1298 166 1298 c 0
 142 1298 143 1298 82 1359 c 0
 -6 1446 -4 1448 81 1533 c 0
 142 1594 145 1594 166 1594 c 0
-167 1594 m 0
 -138 1594 -134 1585 -82 1533 c 0
 -34 1485 -18 1473 -18 1445 c 0
 -18 1401 -142 1302 -143 1302 c 0
 -152 1298 -153 1298 -166 1298 c 0
 -190 1298 -190 1298 -251 1359 c 0
 -307 1414 -315 1422 -315 1446 c 0
 -315 1475 -293 1492 -252 1533 c 0
 -191 1594 -188 1594 -167 1594 c 0
EndSplineSet
EndChar

StartChar: uniE042.norm
Encoding: 65675 -1 308
Width: 0
VWidth: 0
Flags: HW
LayerCount: 2
Fore
SplineSet
198 1318 m 0
 224 1318 233 1307 288 1251 c 0
 339 1200 352 1190 352 1164 c 0
 352 1138 338 1128 286 1076 c 0
 234 1024 224 1011 198 1011 c 0
 172 1011 163 1024 111 1076 c 0
 22 1165 21 1163 109 1251 c 0
 157 1299 170 1318 198 1318 c 0
-198 1318 m 0
 -172 1318 -164 1307 -109 1251 c 0
 -58 1200 -45 1190 -45 1164 c 0
 -45 1138 -59 1128 -111 1076 c 0
 -163 1024 -172 1011 -198 1011 c 0
 -224 1011 -234 1024 -286 1076 c 0
 -339 1129 -352 1138 -352 1164 c 0
 -352 1190 -339 1200 -288 1251 c 0
 -240 1299 -226 1318 -198 1318 c 0
EndSplineSet
EndChar

StartChar: uniE043.norm
Encoding: 65676 -1 309
Width: 0
VWidth: 0
Flags: HW
LayerCount: 2
Fore
SplineSet
198 -129 m 0
 224 -129 233 -140 288 -196 c 0
 339 -247 352 -256 352 -282 c 0
 352 -308 338 -318 286 -370 c 0
 234 -422 224 -436 198 -436 c 0
 172 -436 163 -422 111 -370 c 0
 22 -281 21 -284 109 -196 c 0
 157 -148 170 -129 198 -129 c 0
-198 -129 m 0
 -172 -129 -164 -140 -109 -196 c 0
 -58 -247 -45 -256 -45 -282 c 0
 -45 -308 -59 -318 -111 -370 c 0
 -163 -422 -172 -436 -198 -436 c 0
 -224 -436 -234 -422 -286 -370 c 0
 -339 -317 -352 -308 -352 -282 c 0
 -352 -256 -339 -247 -288 -196 c 0
 -240 -148 -226 -129 -198 -129 c 0
EndSplineSet
EndChar

StartChar: uniE044.norm
Encoding: 65677 -1 310
Width: 0
VWidth: 0
Flags: HW
LayerCount: 2
Fore
SplineSet
-2 1329 m 0
 25 1329 27 1322 92 1257 c 0
 161 1188 164 1186 164 1169 c 0
 164 1167 164 1166 164 1163 c 0
 164 1143 166 1146 92 1072 c 0
 22 1002 21 1000 4 1000 c 2
 0 1000 l 1
 -4 1000 l 2
 -21 1000 -22 1002 -92 1072 c 0
 -167 1147 -164 1143 -164 1164 c 0
 -164 1185 -167 1182 -92 1257 c 0
 -24 1325 -20 1329 -2 1329 c 0
EndSplineSet
EndChar

StartChar: uniE045.norm
Encoding: 65678 -1 311
Width: 0
VWidth: 0
Flags: HW
LayerCount: 2
Fore
SplineSet
-0 -119 m 0
 24 -119 30 -128 96 -194 c 0
 167 -265 164 -263 164 -283 c 0
 164 -303 167 -300 96 -371 c 0
 29 -438 23 -447 0 -447 c 0
 -23 -447 -34 -433 -96 -371 c 0
 -167 -300 -164 -303 -164 -283 c 0
 -164 -263 -167 -265 -96 -194 c 0
 -41 -138 -25 -119 -0 -119 c 0
EndSplineSet
EndChar

StartChar: uniE046.norm
Encoding: 65679 -1 312
Width: 0
VWidth: 0
Flags: HW
LayerCount: 2
Fore
SplineSet
-133 1080 m 0
 -141 1080 -143 1087 -143 1089 c 0
 -143 1096 -127 1120 -90 1177 c 2
 114 1489 l 2
 150 1543 300 1612 342 1612 c 0
 360 1612 364 1608 364 1602 c 0
 364 1589 76 1211 57 1192 c 0
 15 1150 -85 1080 -133 1080 c 0
EndSplineSet
EndChar

StartChar: uniE046.double_norm
Encoding: 65680 -1 313
Width: 0
VWidth: 0
Flags: HW
LayerCount: 2
Fore
SplineSet
496 1612 m 0
 514 1612 517 1608 517 1602 c 0
 517 1589 230 1211 211 1192 c 0
 168 1149 69 1080 21 1080 c 0
 -4 1080 23 1114 64 1177 c 2
 267 1489 l 2
 305 1547 458 1612 496 1612 c 0
-287 1080 m 0
 -295 1080 -297 1087 -297 1089 c 0
 -297 1096 -281 1120 -244 1177 c 2
 -40 1489 l 2
 -4 1543 147 1612 189 1612 c 0
 207 1612 210 1608 210 1602 c 0
 210 1589 -78 1211 -97 1192 c 0
 -139 1150 -239 1080 -287 1080 c 0
EndSplineSet
EndChar

StartChar: uniE047.norm
Encoding: 65681 -1 314
Width: 0
VWidth: 0
Flags: HW
LayerCount: 2
Fore
SplineSet
-346 -729 m 0
 -357 -729 -364 -728 -364 -720 c 0
 -364 -713 -362 -711 -216 -516 c 0
 -57 -304 -61 -311 -24 -281 c 0
 25 -242 97 -198 131 -198 c 0
 141 -198 143 -203 143 -207 c 0
 143 -214 127 -238 90 -295 c 2
 -114 -607 l 2
 -146 -656 -290 -729 -346 -729 c 0
EndSplineSet
EndChar

StartChar: uniE047.double_norm
Encoding: 65682 -1 315
Width: 0
VWidth: 0
Flags: HW
LayerCount: 2
Fore
SplineSet
284 -198 m 0
 294 -198 297 -203 297 -207 c 0
 297 -214 281 -238 244 -295 c 2
 40 -607 l 2
 8 -656 -137 -729 -193 -729 c 0
 -236 -729 -188 -684 -62 -516 c 0
 97 -304 92 -311 129 -281 c 0
 178 -242 250 -198 284 -198 c 0
-500 -729 m 0
 -511 -729 -517 -728 -517 -720 c 0
 -517 -712 -512 -707 -369 -516 c 0
 -210 -304 -215 -311 -178 -281 c 0
 -129 -242 -57 -198 -23 -198 c 0
 -13 -198 -10 -203 -10 -207 c 0
 -10 -214 -27 -238 -64 -295 c 2
 -267 -607 l 2
 -301 -659 -447 -729 -500 -729 c 0
EndSplineSet
EndChar

StartChar: uniE054.norm
Encoding: 65683 -1 316
Width: 0
VWidth: 0
Flags: HW
LayerCount: 2
Fore
SplineSet
-381 1588 m 0
 -381 1594 -377 1598 -364 1598 c 0
 -317 1598 -198 1541 -147 1493 c 0
 -138 1484 -142 1491 -42 1354 c 2
 65 1207 l 2
 141 1103 145 1098 145 1089 c 0
 145 1082 141 1080 133 1080 c 0
 96 1080 3 1136 -50 1187 c 0
 -60 1196 -99 1242 -173 1331 c 2
 -328 1516 l 2
 -364 1559 -381 1578 -381 1588 c 0
EndSplineSet
EndChar

StartChar: uniE050.norm
Encoding: 65684 -1 317
Width: 0
VWidth: 0
Flags: HW
LayerCount: 2
Fore
SplineSet
-539 1036 m 0
 -539 1078 -371 1200 -321 1200 c 0
 -281 1200 -324 1163 175 1163 c 0
 522 1163 471 1195 526 1195 c 0
 533 1195 538 1191 538 1186 c 0
 538 1166 438 1038 288 1010 c 0
 223 998 180 995 34 995 c 0
 -142 995 -539 1004 -539 1036 c 0
EndSplineSet
EndChar

StartChar: uniE050.lambe
Encoding: 65685 -1 318
Width: 0
VWidth: 0
Flags: HW
LayerCount: 2
Fore
SplineSet
-720 1036 m 0
 -720 1077 -554 1200 -503 1200 c 0
 -474 1200 -427 1172 -120 1165 c 2
 -36 1163 l 2
 28 1162 100 1161 171 1161 c 0
 670 1161 703 1205 716 1192 c 0
 718 1190 719 1188 719 1186 c 0
 719 1153 589 1040 515 1020 c 0
 440 1000 256 994 50 994 c 0
 -85 994 -670 1005 -716 1028 c 0
 -719 1030 -720 1033 -720 1036 c 0
EndSplineSet
EndChar

StartChar: uniE050.wide
Encoding: 65686 -1 319
Width: 0
VWidth: 0
Flags: HW
LayerCount: 2
Fore
SplineSet
-665 1200 m 0
 -607 1200 -565 1159 187 1159 c 0
 809 1159 864 1206 878 1192 c 0
 880 1190 880 1188 880 1186 c 0
 880 1151 739 1029 667 1018 c 0
 549 1000 279 992 70 992 c 0
 -146 992 -840 1009 -877 1028 c 0
 -880 1030 -881 1033 -881 1036 c 0
 -881 1079 -714 1199 -665 1200 c 0
EndSplineSet
EndChar

StartChar: uniE050.silme
Encoding: 65687 -1 320
Width: 0
VWidth: 0
Flags: HW
LayerCount: 2
Fore
SplineSet
-221 1200 m 0
 -190 1200 -224 1163 161 1163 c 0
 435 1163 407 1207 432 1194 c 0
 436 1192 436 1190 436 1185 c 0
 436 1163 334 1038 182 1006 c 0
 139 997 122 996 23 996 c 0
 -158 996 -438 1004 -438 1036 c 0
 -438 1077 -271 1200 -221 1200 c 0
EndSplineSet
EndChar

StartChar: uniE051.roomen
Encoding: 65688 -1 321
Width: 0
VWidth: 0
Flags: HW
LayerCount: 2
Fore
SplineSet
58 -149 m 0
 372 -149 268 -143 406 -143 c 0
 435 -143 436 -144 436 -153 c 0
 436 -192 279 -319 218 -319 c 2
 -268 -313 l 1
 -418 -313 -438 -328 -438 -308 c 0
 -438 -280 -296 -144 -205 -145 c 0
 -152 -145 -179 -149 58 -149 c 0
EndSplineSet
EndChar

StartChar: uniE051.lambe
Encoding: 65689 -1 322
Width: 0
VWidth: 0
Flags: HW
LayerCount: 2
Fore
SplineSet
471 -143 m 1
 475 -147 477 -148 477 -152 c 0
 477 -187 326 -318 256 -318 c 0
 229 -318 216 -316 121 -316 c 0
 71 -316 46 -317 -4 -317 c 0
 -123 -317 -242 -313 -301 -313 c 0
 -353 -313 -426 -317 -458 -317 c 0
 -475 -317 -478 -315 -478 -308 c 0
 -478 -271 -322 -144 -254 -144 c 0
 -196 -144 -196 -150 37 -150 c 0
 349 -150 310 -144 427 -143 c 2
 471 -143 l 1
EndSplineSet
EndChar

StartChar: uniE051.norm
Encoding: 65690 -1 323
Width: 0
VWidth: 0
Flags: HW
LayerCount: 2
Fore
SplineSet
-318 -144 m 0
 -231 -144 -275 -150 116 -150 c 0
 225 -150 292 -149 348 -146 c 2
 400 -144 l 2
 420 -143 472 -143 503 -143 c 0
 527 -143 538 -141 538 -152 c 0
 538 -187 388 -319 314 -319 c 0
 289 -319 238 -316 188 -316 c 0
 141 -316 125 -317 31 -317 c 0
 -101 -317 -258 -313 -345 -313 c 0
 -416 -313 -487 -317 -522 -317 c 0
 -534 -317 -539 -317 -539 -308 c 0
 -539 -268 -376 -144 -318 -144 c 0
EndSplineSet
EndChar

StartChar: uniE051.wide
Encoding: 65691 -1 324
Width: 0
VWidth: 0
Flags: HW
LayerCount: 2
Fore
SplineSet
178 -152 m 0
 616 -152 528 -142 762 -142 c 0
 859 -142 880 -139 880 -152 c 0
 880 -186 732 -319 656 -319 c 0
 613 -319 570 -315 441 -315 c 0
 414 -315 390 -315 372 -315 c 2
 284 -318 l 2
 255 -319 184 -318 103 -318 c 0
 -285 -318 -286 -313 -545 -313 c 0
 -672 -313 -799 -317 -863 -317 c 0
 -877 -317 -881 -315 -881 -308 c 0
 -881 -277 -775 -185 -697 -153 c 0
 -680 -146 -678 -144 -640 -144 c 0
 -547 -144 -443 -152 178 -152 c 0
EndSplineSet
EndChar

StartChar: uniE051.silme
Encoding: 65692 -1 325
Width: 0
VWidth: 0
Flags: HW
LayerCount: 2
Fore
SplineSet
58 -149 m 0
 372 -149 268 -143 406 -143 c 0
 435 -143 436 -144 436 -153 c 0
 436 -192 279 -319 218 -319 c 2
 -268 -313 l 1
 -418 -313 -438 -328 -438 -308 c 0
 -438 -280 -296 -144 -205 -145 c 0
 -152 -145 -179 -149 58 -149 c 0
EndSplineSet
EndChar

StartChar: uniE049.norm
Encoding: 65693 -1 326
Width: 0
VWidth: 0
Flags: HW
LayerCount: 2
Fore
SplineSet
-215 -659 m 0
 -247 -659 -197 -578 -85 -503 c 0
 -85 -503 341 -219 380 -208 c 0
 395 -204 402 -209 402 -216 c 0
 402 -244 330 -317 268 -359 c 0
 249 -372 -144 -627 -159 -636 c 0
 -183 -651 -203 -659 -215 -659 c 0
-391 -511 m 0
 -397 -511 -402 -508 -402 -502 c 0
 -402 -474 -330 -401 -268 -359 c 0
 -249 -346 144 -91 159 -82 c 0
 184 -67 203 -59 214 -59 c 0
 219 -59 225 -61 225 -67 c 0
 225 -96 154 -169 87 -214 c 0
 -141 -367 -365 -511 -391 -511 c 0
EndSplineSet
EndChar

StartChar: uniE053.norm
Encoding: 65694 -1 327
Width: 0
VWidth: 0
Flags: HW
LayerCount: 2
Fore
SplineSet
-293 1217 m 0
 -293 1255 -129 1377 -73 1377 c 0
 -57 1377 -64 1372 -44 1333 c 0
 4 1240 84 1226 122 1223 c 1
 154 1256 l 2
 221 1326 292 1394 326 1394 c 0
 330 1394 335 1393 335 1384 c 0
 335 1369 317 1340 290 1307 c 2
 264 1274 l 1
 186 1173 41 1054 -71 1054 c 0
 -232 1054 -293 1192 -293 1217 c 0
EndSplineSet
EndChar

StartChar: uniE053.wide
Encoding: 65695 -1 328
Width: 0
VWidth: 0
Flags: HW
LayerCount: 2
Fore
SplineSet
-61 1054 m 0
 -257 1054 -358 1203 -358 1217 c 0
 -358 1254 -204 1372 -141 1376 c 0
 -114 1378 -49 1223 134 1223 c 0
 240 1223 257 1290 357 1365 c 0
 383 1384 404 1395 413 1395 c 0
 417 1395 423 1392 423 1384 c 0
 423 1336 178 1054 -61 1054 c 0
EndSplineSet
EndChar

StartChar: uniE055.norm
Encoding: 65696 -1 329
Width: 0
VWidth: 0
Flags: HW
LayerCount: 2
Fore
SplineSet
-363 1030 m 0
 -368 1030 -375 1031 -375 1040 c 0
 -375 1075 -246 1200 -165 1218 c 0
 -118 1229 -120 1231 -97 1261 c 0
 -82 1281 -48 1329 -45 1336 c 0
 -42 1341 -85 1413 -172 1420 c 0
 -189 1421 -190 1422 -190 1432 c 0
 -189 1473 -49 1625 7 1625 c 0
 224 1625 206 1257 408 1241 c 0
 424 1240 425 1239 425 1231 c 0
 425 1198 295 1025 208 1038 c 0
 118 1051 76 1119 23 1222 c 2
 4 1259 l 1
 -20 1236 l 2
 -194 1065 -333 1030 -363 1030 c 0
EndSplineSet
EndChar

StartChar: uniE052.narrow
Encoding: 65697 -1 330
Width: 0
VWidth: 0
Flags: HW
LayerCount: 2
Fore
SplineSet
-377 1217 m 0
 -377 1364 -129 1512 -92 1512 c 0
 -71 1512 -79 1485 -126 1437 c 2
 -145 1418 l 1
 -167 1317 -100 1237 -10 1227 c 0
 29 1223 176 1241 256 1241 c 0
 336 1241 350 1174 350 1140 c 0
 350 1011 144 832 100 832 c 0
 94 832 90 835 90 842 c 0
 90 877 135 893 135 955 c 0
 135 1082 15 1064 15 1064 c 0
 -66 1064 -107 1060 -188 1060 c 0
 -355 1060 -377 1163 -377 1217 c 0
EndSplineSet
EndChar

StartChar: uniE052.norm
Encoding: 65698 -1 331
Width: 0
VWidth: 0
Flags: HW
LayerCount: 2
Fore
SplineSet
-527 1241 m 0
 -527 1367 -299 1512 -259 1512 c 0
 -219 1512 -296 1437 -298 1424 c 0
 -309 1359 -255 1226 -75 1226 c 0
 16 1226 290 1241 381 1241 c 0
 490 1241 507 1165 507 1126 c 0
 507 1001 307 832 266 832 c 0
 235 832 287 898 291 915 c 0
 302 966 275 1033 219 1056 c 0
 201 1063 194 1064 133 1064 c 2
 124 1064 l 2
 10 1064 -104 1060 -257 1060 c 0
 -301 1060 -330 1061 -339 1062 c 0
 -476 1079 -527 1175 -527 1241 c 0
EndSplineSet
EndChar

StartChar: uniE052.wide
Encoding: 65699 -1 332
Width: 0
VWidth: 0
Flags: HW
LayerCount: 2
Fore
SplineSet
-648 1255 m 0
 -648 1372 -427 1512 -387 1512 c 0
 -365 1512 -372 1488 -420 1436 c 1
 -420 1416 -427 1381 -388 1329 c 0
 -336 1260 -251 1226 -136 1226 c 0
 -13 1226 354 1241 477 1241 c 0
 612 1241 629 1156 629 1114 c 0
 629 999 437 832 394 832 c 0
 388 832 384 836 384 842 c 0
 384 875 435 894 410 968 c 0
 371 1085 247 1064 210 1064 c 0
 2 1064 -102 1060 -310 1060 c 0
 -397 1060 -455 1057 -532 1095 c 0
 -600 1129 -648 1191 -648 1255 c 0
EndSplineSet
EndChar

StartChar: uniE020
Encoding: 57376 57376 333
Width: 1165
VWidth: 0
Flags: HW
LayerCount: 2
Fore
SplineSet
-6 673 m 0
 -6 708 123 882 234 882 c 0
 350 882 429 667 442 652 c 0
 446 648 643 898 879 898 c 0
 1061 898 1102 736 1102 654 c 0
 1102 570 1073 452 886 234 c 1
 763 97 l 1
 532 -153 434 -343 434 -453 c 0
 434 -520 526 -629 633 -608 c 0
 698 -595 722 -533 802 -485 c 0
 829 -469 846 -467 846 -481 c 0
 846 -531 622 -781 406 -781 c 2
 403 -781 l 2
 288 -781 200 -682 200 -603 c 0
 200 -502 282 -328 471 -96 c 1
 394 150 214 601 92 663 c 0
 35 692 -6 645 -6 673 c 0
868 498 m 0
 868 615 796 728 694 728 c 0
 608 728 571 691 536 656 c 0
 513 633 475 590 475 587 c 0
 475 581 574 391 651 132 c 0
 654 120 658 111 658 111 c 0
 658 111 868 319 868 498 c 0
EndSplineSet
EndChar

StartChar: uniE020.conl
Encoding: 65700 -1 334
Width: 1165
VWidth: 0
Flags: HW
LayerCount: 2
Fore
SplineSet
165 881 m 0
 192 881 207 882 218 882 c 0
 345 882 402 740 448 665 c 0
 453 657 644 898 879 898 c 0
 1063 898 1102 734 1102 654 c 0
 1102 570 1073 452 886 234 c 1
 763 97 l 1
 532 -153 434 -343 434 -453 c 0
 434 -520 526 -629 633 -608 c 0
 698 -595 722 -533 802 -485 c 0
 829 -469 846 -467 846 -481 c 0
 846 -531 622 -781 406 -781 c 2
 403 -781 l 2
 288 -781 200 -682 200 -603 c 0
 200 -502 282 -328 471 -96 c 1
 388 205 251 467 179 576 c 0
 89 713 35 714 -56 714 c 0
 -98 714 -116 707 -116 723 c 0
 -116 749 -16 844 93 882 c 1
 122 881 l 2
 138 881 152 881 165 881 c 0
868 498 m 0
 868 592 815 728 687 728 c 0
 580 728 520 646 480 601 c 1
 492 576 l 2
 613 324 652 117 658 111 c 0
 658 111 837 294 864 449 c 0
 867 465 868 482 868 498 c 0
EndSplineSet
EndChar

StartChar: uniE021
Encoding: 57377 57377 335
Width: 1165
VWidth: 0
Flags: HW
LayerCount: 2
Fore
SplineSet
-6 673 m 0
 -6 708 123 882 234 882 c 0
 350 882 429 667 442 652 c 0
 446 648 643 898 879 898 c 0
 1061 898 1102 736 1102 654 c 0
 1102 570 1073 452 886 234 c 1
 763 97 l 1
 532 -153 434 -343 434 -453 c 0
 434 -520 526 -629 633 -608 c 0
 698 -595 722 -533 802 -485 c 0
 829 -469 846 -467 846 -481 c 0
 846 -531 622 -781 406 -781 c 2
 403 -781 l 2
 288 -781 200 -682 200 -603 c 0
 200 -502 282 -328 471 -96 c 1
 405 114 370 183 369 183 c 0
 354 175 205 17 208 -19 c 0
 214 -90 280 -110 280 -122 c 0
 280 -159 31 -376 7 -229 c 0
 -6 -148 233 143 323 235 c 2
 342 254 l 1
 327 288 l 2
 243 475 137 711 22 668 c 0
 10 664 -6 658 -6 673 c 0
868 498 m 0
 868 615 796 728 694 728 c 0
 608 728 571 691 536 656 c 0
 513 633 475 590 475 587 c 0
 475 581 574 391 651 132 c 0
 654 120 658 111 658 111 c 0
 658 111 868 319 868 498 c 0
EndSplineSet
EndChar

StartChar: uniE021.conl
Encoding: 65701 -1 336
Width: 1165
VWidth: 0
Flags: HW
LayerCount: 2
Fore
SplineSet
165 881 m 0
 192 881 207 882 218 882 c 0
 345 882 402 740 448 665 c 0
 453 657 644 898 879 898 c 0
 1063 898 1102 734 1102 654 c 0
 1102 570 1073 452 886 234 c 1
 763 97 l 1
 532 -153 434 -343 434 -453 c 0
 434 -520 526 -629 633 -608 c 0
 698 -595 722 -533 802 -485 c 0
 829 -469 846 -467 846 -481 c 0
 846 -531 622 -781 406 -781 c 2
 403 -781 l 2
 288 -781 200 -682 200 -603 c 0
 200 -502 282 -328 471 -96 c 1
 446 -5 392 152 380 173 c 0
 380 173 298 110 221 -13 c 1
 231 -148 351 -84 261 -174 c 0
 204 -231 111 -286 73 -286 c 0
 38 -286 7 -252 28 -189 c 0
 48 -127 192 81 351 245 c 1
 315 330 251 457 202 540 c 0
 99 713 40 714 -56 714 c 0
 -98 714 -116 707 -116 723 c 0
 -116 749 -16 844 93 882 c 1
 122 881 l 2
 138 881 152 881 165 881 c 0
868 498 m 0
 868 592 815 728 687 728 c 0
 580 728 520 646 480 601 c 1
 492 576 l 2
 604 343 657 112 658 111 c 0
 658 111 837 294 864 449 c 0
 867 465 868 482 868 498 c 0
EndSplineSet
EndChar

StartChar: uniE020.open
Encoding: 65702 -1 337
Width: 1165
VWidth: 0
Flags: HW
LayerCount: 2
Fore
SplineSet
-6 673 m 0
 -6 708 123 882 234 882 c 0
 350 882 429 667 442 652 c 0
 446 648 643 898 879 898 c 0
 1060 898 1102 740 1102 654 c 0
 1102 409 838 122 613 -52 c 0
 526 -119 282 -311 296 -462 c 0
 299 -493 332 -623 436 -610 c 2
 448 -608 l 1
 474 -588 508 -561 529 -561 c 0
 536 -561 539 -565 539 -571 c 0
 539 -606 450 -704 385 -747 c 0
 345 -773 310 -783 253 -783 c 0
 187 -783 174 -777 158 -769 c 0
 116 -747 63 -682 63 -604 c 0
 63 -386 466 -87 466 -82 c 0
 466 -62 240 588 92 663 c 0
 35 692 -6 645 -6 673 c 0
868 496 m 0
 868 609 801 728 694 728 c 0
 603 728 564 684 536 656 c 0
 513 633 475 590 475 587 c 0
 475 578 562 421 649 136 c 0
 660 102 657 107 670 96 c 1
 832 280 868 416 868 496 c 0
EndSplineSet
EndChar

StartChar: uniE020.conl_open
Encoding: 65703 -1 338
Width: 1165
VWidth: 0
Flags: HW
LayerCount: 2
Fore
SplineSet
165 881 m 0
 192 881 207 882 218 882 c 0
 345 882 402 740 448 665 c 0
 453 657 644 898 879 898 c 0
 1060 898 1102 740 1102 654 c 0
 1102 409 837 121 613 -52 c 0
 526 -119 282 -311 296 -462 c 0
 299 -493 332 -623 436 -610 c 2
 448 -608 l 1
 474 -588 508 -561 529 -561 c 0
 536 -561 539 -565 539 -571 c 0
 539 -606 450 -704 385 -747 c 0
 345 -773 310 -783 253 -783 c 0
 187 -783 174 -777 158 -769 c 0
 116 -747 63 -681 63 -603 c 0
 63 -388 465 -84 467 -83 c 0
 481 -75 305 384 179 576 c 0
 89 713 35 714 -56 714 c 0
 -98 714 -116 707 -116 723 c 0
 -116 749 -16 844 93 882 c 1
 122 881 l 2
 138 881 152 881 165 881 c 0
868 496 m 0
 868 582 822 728 687 728 c 0
 581 728 521 647 480 601 c 1
 492 576 l 2
 558 440 612 289 652 133 c 2
 659 105 l 1
 670 96 l 1
 832 280 868 416 868 496 c 0
EndSplineSet
EndChar

StartChar: uniE021.open
Encoding: 65704 -1 339
Width: 1165
VWidth: 0
Flags: HW
LayerCount: 2
Fore
SplineSet
-29 -189 m 0
 -62 -189 -101 -159 -101 -113 c 0
 -101 -84 -86 -53 -54 -18 c 0
 127 182 318 296 320 302 c 0
 321 305 247 454 221 503 c 0
 201 539 119 704 22 668 c 0
 -4 658 -19 662 7 707 c 0
 26 740 131 882 234 882 c 0
 350 882 429 667 442 652 c 0
 446 648 643 898 879 898 c 0
 1060 898 1102 740 1102 654 c 0
 1102 409 838 122 613 -52 c 0
 526 -119 282 -311 296 -462 c 0
 299 -493 332 -623 436 -610 c 2
 448 -608 l 1
 474 -588 508 -561 529 -561 c 0
 536 -561 539 -565 539 -571 c 0
 539 -606 450 -704 385 -747 c 0
 345 -773 310 -783 253 -783 c 0
 187 -783 174 -777 158 -769 c 0
 116 -747 63 -682 63 -604 c 0
 63 -386 466 -87 466 -82 c 0
 466 -75 418 66 380 161 c 2
 364 202 l 1
 337 230 l 1
 258 182 207 141 150 84 c 2
 128 63 l 1
 121 -21 192 -12 192 -28 c 0
 192 -67 28 -189 -29 -189 c 0
868 496 m 0
 868 609 801 728 694 728 c 0
 603 728 564 684 536 656 c 0
 513 633 475 590 475 587 c 0
 475 578 562 421 649 136 c 0
 660 102 657 107 670 96 c 1
 832 280 868 416 868 496 c 0
EndSplineSet
EndChar

StartChar: uniE021.conl_open
Encoding: 65705 -1 340
Width: 1165
VWidth: 0
Flags: HW
LayerCount: 2
Fore
SplineSet
165 881 m 0
 192 881 207 882 218 882 c 0
 345 882 402 740 448 665 c 0
 453 657 644 898 879 898 c 0
 1060 898 1102 740 1102 654 c 0
 1102 409 837 121 613 -52 c 0
 526 -119 282 -311 296 -462 c 0
 299 -493 332 -623 436 -610 c 2
 448 -608 l 1
 474 -588 508 -561 529 -561 c 0
 536 -561 539 -565 539 -571 c 0
 539 -606 450 -704 385 -747 c 0
 345 -773 310 -783 253 -783 c 0
 187 -783 174 -777 158 -769 c 0
 116 -747 63 -681 63 -603 c 0
 63 -385 467 -86 467 -83 c 0
 467 -82 393 180 351 225 c 1
 263 172 211 128 142 59 c 1
 137 -28 206 -15 206 -32 c 0
 206 -66 63 -179 -6 -192 c 0
 -45 -199 -99 -158 -85 -98 c 0
 -58 20 329 294 329 294 c 0
 329 301 235 490 179 576 c 0
 89 713 35 714 -56 714 c 0
 -98 714 -116 707 -116 723 c 0
 -116 749 -16 844 93 882 c 1
 122 881 l 2
 138 881 152 881 165 881 c 0
868 496 m 0
 868 582 822 728 687 728 c 0
 581 728 521 647 480 601 c 1
 492 576 l 2
 558 440 612 289 652 133 c 2
 659 105 l 1
 670 96 l 1
 832 280 868 416 868 496 c 0
EndSplineSet
EndChar

StartChar: uniE022
Encoding: 57378 57378 341
Width: 1618
VWidth: 0
Flags: HW
LayerCount: 2
Fore
SplineSet
559 714 m 0
 525 714 493 721 336 721 c 0
 84 721 29 690 16 700 c 0
 13 702 13 704 13 707 c 0
 13 736 103 814 178 852 c 0
 248 887 447 895 540 895 c 0
 791 895 1013 859 1297 859 c 0
 1491 859 1573 883 1595 883 c 0
 1601 883 1606 879 1606 873 c 0
 1606 842 1476 723 1380 707 c 0
 1292 692 1189 685 1080 685 c 0
 938 685 761 699 726 702 c 2
 664 706 l 1
 518 608 323 425 323 135 c 0
 323 -113 583 -283 876 -283 c 0
 1057 -283 1211 -209 1235 -188 c 0
 1254 -171 1298 -113 1298 -38 c 0
 1298 54 1234 112 1169 128 c 0
 1152 132 1150 134 1150 140 c 0
 1150 174 1318 315 1388 297 c 0
 1518 263 1590 112 1472 -54 c 0
 1353 -221 1007 -453 665 -453 c 0
 395 -453 89 -305 89 -7 c 0
 89 269 290 507 536 693 c 0
 561 712 563 714 559 714 c 0
EndSplineSet
EndChar

StartChar: uniE022.conr
Encoding: 65706 -1 342
Width: 1618
VWidth: 0
Flags: HW
LayerCount: 2
Fore
SplineSet
26 698 m 0
 18 698 13 699 13 708 c 0
 13 748 160 857 219 870 c 0
 231 873 490 887 909 887 c 0
 950 887 1727 884 1732 880 c 0
 1734 878 1736 876 1736 873 c 0
 1736 845 1627 747 1526 713 c 1
 1403 713 l 2
 1335 713 1142 713 975 714 c 2
 671 715 l 1
 367 512 323 273 323 142 c 0
 323 -113 579 -283 875 -283 c 0
 1055 -283 1214 -209 1239 -182 c 0
 1334 -80 1316 91 1168 130 c 0
 1151 134 1149 136 1150 143 c 0
 1156 185 1309 297 1366 301 c 0
 1410 304 1532 249 1532 115 c 0
 1532 -126 1052 -453 667 -453 c 0
 387 -453 89 -300 89 -5 c 0
 89 415 556 703 556 713 c 0
 556 714 548 714 533 714 c 0
 381 714 128 698 26 698 c 0
EndSplineSet
EndChar

StartChar: uniE022.conl
Encoding: 65707 -1 343
Width: 1618
VWidth: 0
Flags: HW
LayerCount: 2
Fore
SplineSet
-116 722 m 0
 -116 746 14 882 126 882 c 0
 472 882 718 864 1113 864 c 0
 1450 864 1547 882 1595 882 c 0
 1603 882 1606 878 1606 873 c 0
 1606 844 1474 717 1373 708 c 0
 1187 692 1046 692 906 692 c 0
 830 692 754 692 719 693 c 2
 668 694 l 1
 369 497 323 269 323 133 c 0
 323 -122 591 -283 877 -283 c 0
 1043 -283 1201 -215 1233 -191 c 0
 1254 -175 1298 -117 1298 -40 c 0
 1298 28 1251 106 1161 125 c 0
 1101 137 1316 306 1381 293 c 0
 1500 269 1687 66 1299 -224 c 0
 1103 -370 864 -453 667 -453 c 0
 402 -453 89 -314 89 -13 c 0
 89 267 295 500 532 678 c 2
 557 696 l 1
 541 697 533 698 478 700 c 2
 352 704 l 2
 -116 718 -116 706 -116 722 c 0
EndSplineSet
EndChar

StartChar: uniE022.conb
Encoding: 65708 -1 344
Width: 1618
VWidth: 0
Flags: HW
LayerCount: 2
Fore
SplineSet
1729 883 m 1
 1732 881 1736 879 1736 873 c 0
 1736 846 1635 751 1526 713 c 1
 673 712 l 1
 554 631 486 565 426 473 c 0
 358 370 323 257 323 143 c 0
 323 -112 576 -283 875 -283 c 0
 1037 -283 1208 -218 1242 -180 c 0
 1278 -140 1298 -88 1298 -38 c 0
 1298 57 1224 118 1162 130 c 0
 1148 133 1147 137 1153 151 c 0
 1170 188 1320 316 1389 297 c 0
 1520 262 1647 68 1348 -182 c 0
 1134 -361 874 -453 667 -453 c 0
 403 -453 89 -310 89 -9 c 0
 89 273 292 510 539 696 c 2
 561 712 l 1
 225 712 l 2
 -114 713 -116 708 -116 722 c 0
 -116 754 11 859 89 880 c 0
 98 882 118 883 913 883 c 2
 1729 883 l 1
EndSplineSet
EndChar

StartChar: uniE022.dec
Encoding: 65709 -1 345
Width: 1933
VWidth: 0
Flags: HW
LayerCount: 2
Fore
SplineSet
815 -490 m 0
 490 -490 89 -345 89 21 c 0
 89 395 414 682 668 848 c 0
 686 860 687 860 684 861 c 0
 682 861 542 885 380 885 c 0
 261 885 151 868 58 835 c 0
 26 824 13 825 13 837 c 0
 13 867 163 1059 592 1059 c 0
 917 1059 1222 957 1554 957 c 0
 1824 957 1921 1042 1921 1005 c 0
 1921 985 1796 783 1341 783 c 0
 1184 783 1021 808 824 840 c 2
 794 845 l 1
 726 809 670 773 616 732 c 1
 616 -237 l 1
 691 -269 819 -320 1022 -320 c 0
 1254 -320 1500 -231 1552 -172 c 0
 1659 -49 1617 123 1479 154 c 0
 1463 157 1461 162 1468 176 c 0
 1485 212 1634 340 1704 322 c 0
 1784 301 1847 231 1847 136 c 0
 1847 -140 1308 -490 815 -490 c 0
446 554 m 0
 446 554 323 394 323 171 c 0
 323 32 381 -58 447 -123 c 1
 447 216 l 2
 447 402 446 554 446 554 c 0
EndSplineSet
EndChar

StartChar: uniE022.conrbot
Encoding: 65710 -1 346
Width: 1618
VWidth: 0
Flags: HW
LayerCount: 2
Fore
SplineSet
576 712 m 1
 481 720 409 721 337 721 c 0
 85 721 29 690 16 700 c 0
 13 702 13 704 13 707 c 0
 13 736 103 814 178 852 c 0
 248 887 447 895 540 895 c 0
 791 895 1013 859 1297 859 c 0
 1491 859 1573 883 1595 883 c 0
 1601 883 1606 879 1606 873 c 0
 1606 842 1476 723 1380 707 c 0
 1292 692 1189 685 1080 685 c 0
 940 685 765 698 730 701 c 2
 674 706 l 1
 363 462 323 217 323 84 c 0
 323 -191 585 -374 882 -374 c 0
 1017 -374 1188 -314 1231 -268 c 0
 1273 -223 1298 -165 1298 -108 c 0
 1298 18 1162 -7 1161 6 c 0
 1158 46 1304 153 1369 168 c 0
 1375 169 1391 170 1483 170 c 0
 1734 170 1735 174 1735 160 c 0
 1735 132 1630 34 1528 1 c 1
 1515 -52 1490 -137 1352 -257 c 0
 1152 -430 890 -544 668 -544 c 0
 358 -544 89 -352 89 -64 c 0
 89 240 309 498 556 696 c 2
 576 712 l 1
EndSplineSet
EndChar

StartChar: uniE022.conbbot
Encoding: 65711 -1 347
Width: 1618
VWidth: 0
Flags: HW
LayerCount: 2
Fore
SplineSet
-116 722 m 0
 -116 746 14 882 126 882 c 0
 472 882 718 864 1113 864 c 0
 1450 864 1547 882 1595 882 c 0
 1648 882 1487 718 1373 708 c 0
 1185 692 1042 692 900 692 c 0
 827 692 754 692 722 693 c 2
 678 694 l 1
 528 587 323 377 323 71 c 0
 323 -184 579 -374 877 -374 c 0
 1026 -374 1192 -310 1231 -268 c 0
 1273 -223 1298 -165 1298 -108 c 0
 1298 18 1162 -7 1161 6 c 0
 1158 46 1304 153 1369 168 c 0
 1375 169 1391 170 1483 170 c 0
 1734 170 1735 174 1735 160 c 0
 1735 132 1630 34 1528 1 c 1
 1515 -52 1490 -137 1352 -257 c 0
 1142 -439 878 -544 667 -544 c 0
 400 -544 89 -385 89 -70 c 0
 89 271 368 537 573 696 c 1
 476 700 l 2
 -116 719 -116 708 -116 722 c 0
EndSplineSet
EndChar

StartChar: uniE023
Encoding: 57379 57379 348
Width: 1618
VWidth: 0
Flags: HW
LayerCount: 2
Fore
SplineSet
454 718 m 1
 436 721 417 721 348 721 c 0
 75 721 29 690 16 700 c 0
 13 702 13 704 13 707 c 0
 13 736 103 814 178 852 c 0
 248 887 447 895 540 895 c 0
 791 895 1013 859 1297 859 c 0
 1491 859 1573 883 1595 883 c 0
 1601 883 1606 879 1606 873 c 0
 1606 842 1476 723 1380 707 c 0
 1292 692 1189 685 1080 685 c 0
 908 685 670 707 643 707 c 0
 623 707 441 641 403 608 c 0
 389 596 323 526 323 403 c 0
 323 187 596 133 793 133 c 0
 963 133 1114 171 1278 171 c 0
 1426 171 1544 129 1531 -50 c 0
 1512 -313 1155 -537 938 -537 c 0
 778 -537 721 -415 721 -412 c 0
 721 -366 915 -234 949 -252 c 0
 960 -258 1003 -366 1145 -366 c 0
 1233 -366 1268 -357 1291 -241 c 0
 1295 -219 1298 -198 1298 -177 c 0
 1298 -44 1213 2 1075 2 c 0
 921 2 762 -37 584 -37 c 0
 370 -37 89 21 89 253 c 0
 89 346 122 517 454 718 c 1
EndSplineSet
EndChar

StartChar: uniE023.conr
Encoding: 65712 -1 349
Width: 1618
VWidth: 0
Flags: HW
LayerCount: 2
Fore
SplineSet
89 256 m 0
 89 530 448 712 434 712 c 0
 331 712 65 698 24 698 c 0
 19 698 13 699 13 708 c 0
 13 748 160 857 219 870 c 0
 231 873 490 887 909 887 c 0
 950 887 1727 884 1732 880 c 0
 1734 878 1736 876 1736 873 c 0
 1736 845 1627 747 1526 713 c 1
 1403 713 l 2
 1335 713 1137 713 963 714 c 2
 646 715 l 1
 612 704 l 2
 396 633 381 599 353 541 c 0
 326 486 288 354 381 258 c 0
 456 180 607 135 791 135 c 0
 948 135 1138 175 1278 175 c 0
 1420 175 1532 136 1532 -22 c 0
 1532 -309 1151 -537 937 -537 c 0
 779 -537 721 -416 721 -412 c 0
 721 -366 915 -234 949 -252 c 0
 959 -257 1025 -408 1227 -356 c 0
 1245 -352 1244 -352 1256 -332 c 0
 1288 -278 1298 -222 1298 -174 c 0
 1298 -41 1214 4 1074 4 c 0
 928 4 746 -35 588 -35 c 0
 373 -35 89 23 89 256 c 0
EndSplineSet
EndChar

StartChar: uniE023.conl
Encoding: 65713 -1 350
Width: 1618
VWidth: 0
Flags: HW
LayerCount: 2
Fore
SplineSet
-116 722 m 0
 -116 746 14 882 126 882 c 0
 472 882 718 864 1113 864 c 0
 1450 864 1547 882 1595 882 c 0
 1603 882 1606 878 1606 873 c 0
 1606 843 1473 716 1373 708 c 0
 1188 692 1047 692 907 692 c 0
 833 692 756 692 714 693 c 2
 644 695 l 1
 613 685 l 2
 473 641 323 601 323 391 c 0
 323 180 594 128 790 128 c 0
 961 128 1120 166 1279 166 c 0
 1388 166 1532 152 1532 -31 c 0
 1532 -299 1164 -537 935 -537 c 0
 787 -537 721 -420 721 -412 c 0
 721 -366 915 -234 949 -252 c 0
 960 -258 1015 -391 1194 -363 c 0
 1252 -354 1249 -352 1269 -311 c 0
 1288 -272 1298 -228 1298 -180 c 0
 1298 -38 1202 -3 1071 -3 c 0
 925 -3 755 -42 585 -42 c 0
 373 -42 89 15 89 242 c 0
 89 332 120 500 430 691 c 0
 443 699 445 701 442 701 c 0
 381 706 -109 712 -113 715 c 0
 -115 717 -116 719 -116 722 c 0
EndSplineSet
EndChar

StartChar: uniE023.conb
Encoding: 65714 -1 351
Width: 1618
VWidth: 0
Flags: HW
LayerCount: 2
Fore
SplineSet
1729 883 m 1
 1732 881 1736 879 1736 873 c 0
 1736 846 1635 751 1526 713 c 1
 647 712 l 1
 621 703 l 2
 501 664 418 629 388 593 c 0
 346 542 323 475 323 404 c 0
 323 188 596 134 793 134 c 0
 956 134 1118 173 1278 173 c 0
 1434 173 1514 129 1530 11 c 0
 1568 -273 1172 -536 937 -536 c 0
 777 -536 721 -415 721 -412 c 0
 721 -366 915 -234 949 -252 c 0
 960 -258 1003 -366 1145 -366 c 0
 1184 -366 1195 -364 1243 -352 c 1
 1273 -306 1298 -252 1298 -176 c 0
 1298 -68 1247 3 1075 3 c 0
 922 3 757 -36 585 -36 c 2
 583 -36 l 2
 370 -36 89 22 89 254 c 0
 89 437 235 581 442 712 c 1
 165 712 l 2
 -117 713 -116 709 -116 722 c 0
 -116 754 11 859 89 880 c 0
 98 882 118 883 913 883 c 2
 1729 883 l 1
EndSplineSet
EndChar

StartChar: uniE023.dec
Encoding: 65715 -1 352
Width: 1933
VWidth: 0
Flags: HW
LayerCount: 2
Fore
SplineSet
562 876 m 1
 490 885 417 885 381 885 c 0
 261 885 151 868 58 835 c 0
 26 824 13 825 13 837 c 0
 13 867 163 1059 592 1059 c 0
 917 1059 1222 957 1554 957 c 0
 1824 957 1921 1042 1921 1005 c 0
 1921 985 1795 783 1342 783 c 0
 1104 783 812 847 778 847 c 0
 766 847 679 823 616 803 c 1
 616 192 l 1
 646 186 l 2
 728 170 814 162 914 162 c 0
 992 162 1067 169 1196 186 c 2
 1300 200 l 2
 1413 215 1491 222 1554 222 c 0
 1718 222 1847 174 1847 -20 c 0
 1847 -317 1437 -581 1156 -581 c 0
 992 -581 937 -456 937 -456 c 0
 937 -418 1101 -296 1159 -296 c 0
 1182 -296 1212 -411 1365 -411 c 0
 1446 -411 1531 -389 1547 -369 c 0
 1585 -322 1613 -254 1613 -167 c 0
 1613 -7 1515 52 1347 52 c 0
 1288 52 1212 45 1106 31 c 2
 1002 17 l 2
 872 0 787 -8 704 -8 c 0
 417 -8 89 58 89 322 c 0
 89 544 276 727 562 876 c 1
446 733 m 1
 364 680 323 576 323 472 c 0
 323 366 369 311 446 258 c 1
 446 377 l 2
 446 410 447 453 447 496 c 0
 447 539 446 582 446 615 c 2
 446 733 l 1
EndSplineSet
EndChar

StartChar: uniE024
Encoding: 57380 57380 353
Width: 1165
VWidth: 0
Flags: HW
LayerCount: 2
Fore
SplineSet
512 1541 m 0
 512 1579 674 1702 734 1702 c 0
 843 1702 878 1579 772 1363 c 0
 729 1276 683 1203 558 1033 c 1
 456 892 l 1
 316 689 296 582 296 504 c 0
 296 304 454 139 645 139 c 0
 702 139 775 157 793 176 c 0
 831 218 868 289 868 364 c 0
 868 507 735 542 733 544 c 0
 731 546 730 547 730 550 c 0
 730 591 892 705 947 710 c 0
 975 712 1102 658 1102 514 c 0
 1102 259 697 -31 438 -31 c 0
 236 -31 62 132 62 354 c 0
 62 720 603 1108 603 1446 c 0
 603 1538 512 1525 512 1541 c 0
EndSplineSet
EndChar

StartChar: uniE024.flat
Encoding: 65716 -1 354
Width: 1165
VWidth: 0
Flags: HW
LayerCount: 2
Fore
SplineSet
437 -31 m 0
 218 -31 62 145 62 336 c 0
 62 757 845 1007 861 1452 c 0
 865 1572 758 1517 779 1559 c 0
 804 1608 950 1701 1000 1701 c 0
 1057 1701 1110 1658 1110 1589 c 0
 1110 1367 893 1165 745 1035 c 1
 633 939 l 1
 441 776 296 655 296 483 c 0
 296 307 445 139 646 139 c 0
 705 139 776 157 793 176 c 0
 831 218 868 289 868 364 c 0
 868 507 735 542 733 544 c 0
 731 546 730 547 730 550 c 0
 730 591 892 705 947 710 c 0
 975 712 1102 658 1102 514 c 0
 1102 260 699 -31 437 -31 c 0
EndSplineSet
EndChar

StartChar: uniE024.open
Encoding: 65717 -1 355
Width: 1165
VWidth: 0
Flags: HW
LayerCount: 2
Fore
SplineSet
342 1525 m 0
 342 1561 493 1701 554 1701 c 0
 578 1701 653 1689 653 1588 c 0
 653 1273 296 859 296 527 c 0
 296 313 457 139 646 139 c 0
 702 139 775 157 793 176 c 0
 831 218 868 289 868 364 c 0
 868 507 735 542 733 544 c 0
 731 546 730 547 730 550 c 0
 730 591 892 705 947 710 c 0
 975 712 1102 658 1102 514 c 0
 1102 257 695 -31 438 -31 c 0
 214 -31 62 168 62 378 c 0
 62 696 421 1120 430 1420 c 0
 430 1421 441 1506 358 1514 c 0
 344 1515 342 1517 342 1525 c 0
EndSplineSet
EndChar

StartChar: uniE024.lig
Encoding: 65718 -1 356
Width: 745
VWidth: 0
Flags: HW
LayerCount: 2
Fore
SplineSet
630 1445 m 0
 630 1520 568 1532 554 1532 c 0
 537 1532 536 1544 550 1564 c 0
 585 1613 713 1702 762 1702 c 0
 797 1702 864 1680 864 1595 c 0
 864 1234 296 855 296 504 c 0
 296 300 467 139 662 139 c 0
 727 139 754 160 769 174 c 0
 910 308 910 460 913 466 c 0
 944 523 1113 637 1143 607 c 1
 1124 291 670 -31 453 -31 c 0
 241 -31 62 138 62 352 c 0
 62 726 630 1104 630 1445 c 0
EndSplineSet
EndChar

StartChar: uniE024.lig_flat
Encoding: 65719 -1 357
Width: 745
VWidth: 0
Flags: HW
LayerCount: 2
Fore
SplineSet
62 335 m 0
 62 773 902 1006 902 1463 c 0
 902 1544 824 1539 820 1543 c 0
 789 1574 992 1701 1041 1701 c 0
 1089 1701 1150 1667 1150 1590 c 0
 1150 1219 584 937 391 709 c 0
 300 601 296 528 296 482 c 0
 296 303 457 140 661 140 c 0
 702 140 739 146 769 174 c 0
 910 308 910 460 913 466 c 0
 944 523 1113 637 1143 607 c 1
 1124 292 671 -31 451 -31 c 0
 241 -31 62 131 62 335 c 0
EndSplineSet
EndChar

StartChar: uniE024.lig_open
Encoding: 65720 -1 358
Width: 745
VWidth: 0
Flags: HW
LayerCount: 2
Fore
SplineSet
454 -31 m 0
 235 -31 62 156 62 377 c 0
 62 710 448 1124 449 1429 c 0
 449 1556 325 1479 372 1550 c 0
 411 1611 526 1701 571 1701 c 0
 600 1701 676 1683 672 1583 c 0
 659 1246 296 856 296 529 c 0
 296 193 662 74 769 175 c 0
 910 308 910 460 913 466 c 0
 944 523 1113 637 1143 607 c 1
 1124 289 667 -31 454 -31 c 0
EndSplineSet
EndChar

StartChar: uniE025
Encoding: 57381 57381 359
Width: 1165
VWidth: 0
Flags: HW
LayerCount: 2
Fore
SplineSet
62 365 m 0
 62 642 465 913 685 913 c 0
 911 913 1102 725 1102 414 c 0
 1102 83 927 -385 502 -688 c 0
 388 -769 294 -819 251 -819 c 2
 250 -819 l 2
 209 -819 253 -770 323 -727 c 0
 671 -514 868 -92 868 284 c 0
 868 617 598 783 407 734 c 0
 382 728 379 727 369 714 c 0
 332 669 296 598 296 515 c 0
 296 338 436 220 556 220 c 0
 621 220 641 261 687 261 c 0
 701 261 701 250 696 240 c 0
 673 195 497 51 350 51 c 0
 188 51 62 194 62 365 c 0
EndSplineSet
EndChar

StartChar: uniE026
Encoding: 57382 57382 360
Width: 1177
VWidth: 0
Flags: HW
LayerCount: 2
Fore
SplineSet
310 314 m 0
 310 317 200 387 200 535 c 0
 200 841 629 1133 662 1418 c 0
 665 1439 671 1496 622 1522 c 0
 612 1527 597 1532 588 1532 c 0
 576 1532 572 1539 578 1552 c 0
 601 1602 744 1702 798 1702 c 0
 835 1702 898 1677 898 1597 c 0
 898 1445 772 1276 657 1124 c 2
 575 1014 l 1
 447 836 434 748 434 682 c 0
 434 555 533 445 660 445 c 0
 816 445 881 599 955 599 c 0
 963 599 966 596 965 587 c 0
 960 534 696 265 467 265 c 0
 425 265 398 273 382 278 c 1
 333 216 296 117 296 10 c 0
 296 -172 456 -313 648 -313 c 0
 714 -313 826 -290 840 -269 c 0
 861 -236 868 -200 868 -171 c 0
 868 -34 733 5 733 5 c 0
 706 25 900 191 964 169 c 0
 1048 140 1102 63 1102 -22 c 0
 1102 -223 731 -483 440 -483 c 0
 236 -483 62 -344 62 -137 c 0
 62 146 310 307 310 314 c 0
EndSplineSet
EndChar

StartChar: uniE026.flat
Encoding: 65721 -1 361
Width: 1177
VWidth: 0
Flags: HW
LayerCount: 2
Fore
SplineSet
441 -483 m 0
 237 -483 62 -345 62 -137 c 0
 62 142 310 308 310 313 c 0
 310 315 200 385 200 528 c 0
 200 876 854 1087 866 1455 c 0
 870 1567 770 1522 783 1555 c 0
 801 1602 955 1701 1005 1701 c 0
 1064 1701 1115 1656 1115 1590 c 0
 1115 1261 572 1003 461 784 c 0
 442 746 434 714 434 672 c 0
 434 556 527 445 659 445 c 0
 798 445 837 547 929 591 c 0
 962 607 974 599 960 571 c 0
 929 509 688 265 465 265 c 0
 415 265 391 275 383 277 c 1
 320 191 296 100 296 10 c 0
 296 -191 476 -313 645 -313 c 0
 724 -313 828 -288 840 -269 c 0
 861 -236 868 -200 868 -171 c 0
 868 -34 733 5 733 5 c 0
 706 25 900 191 964 169 c 0
 1048 140 1102 63 1102 -22 c 0
 1102 -224 730 -483 441 -483 c 0
EndSplineSet
EndChar

StartChar: uniE026.open
Encoding: 65722 -1 362
Width: 1177
VWidth: 0
Flags: HW
LayerCount: 2
Fore
SplineSet
200 561 m 0
 200 820 509 1186 509 1433 c 0
 509 1470 486 1509 437 1514 c 0
 423 1515 421 1517 421 1525 c 0
 422 1563 571 1701 631 1701 c 0
 661 1701 731 1683 731 1592 c 0
 730 1329 434 967 434 715 c 0
 434 535 554 445 661 445 c 0
 814 445 882 599 955 599 c 0
 971 599 967 578 945 547 c 0
 897 481 673 264 466 264 c 0
 372 264 391 294 372 266 c 0
 323 194 296 104 296 12 c 0
 296 -163 447 -313 648 -313 c 0
 727 -313 828 -288 840 -269 c 0
 861 -236 868 -200 868 -171 c 0
 868 -34 733 5 733 5 c 0
 706 25 900 191 964 169 c 0
 1048 140 1102 63 1102 -22 c 0
 1102 -224 730 -483 439 -483 c 0
 239 -483 62 -344 62 -136 c 0
 62 65 180 207 311 317 c 1
 285 339 200 415 200 561 c 0
EndSplineSet
EndChar

StartChar: uniE027
Encoding: 57383 57383 363
Width: 1177
VWidth: 0
Flags: HW
LayerCount: 2
Fore
SplineSet
62 452 m 0
 62 658 440 913 718 913 c 0
 974 913 1102 737 1102 577 c 0
 1102 317 878 166 874 156 c 0
 874 155 1062 104 1062 -120 c 0
 1062 -637 509 -913 366 -913 c 0
 350 -913 343 -905 352 -893 c 0
 407 -819 625 -811 764 -528 c 0
 811 -432 828 -336 828 -263 c 0
 828 -97 705 -15 600 -15 c 0
 446 -15 380 -168 307 -168 c 0
 292 -168 293 -155 303 -137 c 0
 345 -57 581 150 762 164 c 1
 762 164 780 151 824 240 c 0
 869 331 911 505 778 638 c 0
 721 695 630 743 519 743 c 0
 446 743 336 720 323 699 c 0
 263 606 303 472 419 431 c 0
 434 426 436 423 434 414 c 0
 425 382 307 277 213 258 c 1
 92 296 62 390 62 452 c 0
EndSplineSet
EndChar

StartChar: uniE02B
Encoding: 57387 57387 364
Width: 1123
VWidth: 0
Flags: HW
LayerCount: 2
Fore
SplineSet
448 -31 m 0
 248 -31 62 119 62 343 c 0
 62 662 444 913 673 913 c 0
 897 913 1061 742 1061 541 c 0
 1061 217 678 -31 448 -31 c 0
826 391 m 0
 826 575 685 743 454 743 c 0
 422 743 378 733 373 729 c 0
 363 721 296 627 296 491 c 0
 296 280 472 139 659 139 c 0
 751 139 754 152 779 197 c 0
 816 265 826 333 826 391 c 0
EndSplineSet
EndChar

StartChar: uniE02B.conr
Encoding: 65723 -1 365
Width: 1175
VWidth: 0
Flags: HW
LayerCount: 2
Fore
SplineSet
448 -31 m 0
 248 -31 62 119 62 343 c 0
 62 663 444 913 672 913 c 0
 723 913 872 887 1211 883 c 0
 1291 882 1291 884 1291 873 c 0
 1291 846 1191 751 1082 713 c 1
 1019 712 l 1
 1045 657 1061 609 1061 540 c 0
 1061 216 677 -31 448 -31 c 0
826 391 m 0
 826 593 664 743 452 743 c 0
 420 743 378 733 373 729 c 0
 362 721 296 627 296 491 c 0
 296 280 472 139 659 139 c 0
 751 139 754 152 779 197 c 0
 816 265 826 333 826 391 c 0
EndSplineSet
EndChar

StartChar: uniE032
Encoding: 57394 57394 366
Width: 1026
VWidth: 0
Flags: HW
LayerCount: 2
Fore
SplineSet
62 304 m 0
 62 609 477 882 682 882 c 0
 818 882 877 779 877 772 c 0
 877 735 719 618 660 613 c 0
 632 610 602 712 477 712 c 0
 440 712 416 705 391 697 c 1
 334 628 296 550 296 456 c 0
 296 285 446 139 608 139 c 0
 876 139 968 341 1086 349 c 0
 1097 350 1102 349 1102 340 c 0
 1102 298 719 -31 401 -31 c 0
 197 -31 62 145 62 304 c 0
EndSplineSet
EndChar

StartChar: uniE032.desc
Encoding: 65724 -1 367
Width: 1087
VWidth: 0
Flags: HW
LayerCount: 2
Fore
SplineSet
62 304 m 0
 62 609 477 882 682 882 c 0
 818 882 877 779 877 772 c 0
 877 735 719 618 660 613 c 0
 632 610 602 712 477 712 c 0
 440 712 416 705 391 697 c 1
 334 628 296 550 296 456 c 0
 296 285 446 139 608 139 c 0
 876 139 968 341 1086 349 c 0
 1099 350 1102 347 1102 340 c 0
 1102 332 1093 319 1071 290 c 2
 935 110 l 1
 750 -141 687 -273 640 -273 c 0
 599 -273 698 -123 796 58 c 2
 824 111 l 1
 732 55 570 -31 401 -31 c 0
 197 -31 62 145 62 304 c 0
EndSplineSet
EndChar

StartChar: uniE032.dec
Encoding: 65725 -1 368
Width: 1171
VWidth: 0
Flags: HW
LayerCount: 2
Fore
SplineSet
62 364 m 0
 62 707 530 1015 768 1015 c 0
 907 1015 978 929 1000 897 c 0
 1036 845 833 722 787 722 c 0
 760 722 737 840 553 846 c 1
 553 152 l 1
 590 142 611 139 643 139 c 0
 932 139 1070 342 1169 349 c 0
 1182 350 1185 347 1185 340 c 0
 1185 288 768 -31 434 -31 c 0
 219 -31 62 167 62 364 c 0
383 765 m 1
 337 699 296 618 296 508 c 0
 296 392 356 307 383 271 c 1
 384 394 l 2
 384 428 384 473 384 518 c 0
 384 563 384 607 384 641 c 2
 383 765 l 1
EndSplineSet
EndChar

StartChar: uniE031
Encoding: 57393 57393 369
Width: 1077
VWidth: 0
Flags: HW
LayerCount: 2
Fore
SplineSet
80 387 m 0
 60 387 37 438 37 484 c 0
 37 679 357 913 672 913 c 0
 852 913 989 817 989 674 c 0
 989 483 863 331 640 196 c 2
 618 182 l 1
 770 183 l 2
 924 183 941 178 984 207 c 0
 1036 241 1084 262 1106 262 c 0
 1114 262 1119 260 1119 253 c 0
 1119 214 835 -4 684 -4 c 0
 599 -4 387 7 259 7 c 0
 31 7 31 -9 31 10 c 0
 31 42 157 142 234 163 c 0
 277 175 335 164 423 188 c 0
 662 253 690 307 720 367 c 0
 744 414 756 465 756 523 c 0
 756 651 633 743 461 743 c 0
 355 743 291 719 291 719 c 0
 286 715 247 623 294 559 c 0
 328 513 129 387 80 387 c 0
EndSplineSet
EndChar

StartChar: uniE031.desc
Encoding: 65726 -1 370
Width: 1065
VWidth: 0
Flags: HW
LayerCount: 2
Fore
SplineSet
37 440 m 0
 37 672 397 913 663 913 c 0
 865 913 989 779 989 607 c 0
 989 128 294 -327 294 -327 c 0
 293 -328 376 -321 714 -320 c 0
 934 -319 941 -324 989 -293 c 0
 1040 -260 1082 -240 1105 -240 c 0
 1114 -240 1119 -242 1119 -249 c 0
 1119 -297 857 -467 748 -498 c 0
 729 -503 721 -506 680 -506 c 0
 591 -506 368 -496 234 -496 c 0
 31 -496 5 -503 -20 -503 c 0
 -30 -503 -33 -496 -33 -492 c 0
 -33 -459 70 -360 141 -326 c 0
 258 -269 362 -215 483 -94 c 0
 615 38 756 242 756 466 c 0
 756 593 653 743 463 743 c 0
 406 743 357 734 318 721 c 0
 292 712 272 639 272 591 c 0
 272 497 340 479 340 465 c 0
 340 423 148 282 106 310 c 0
 61 340 37 385 37 440 c 0
EndSplineSet
EndChar

StartChar: uniE029
Encoding: 57385 57385 371
Width: 1440
VWidth: 0
Flags: HW
LayerCount: 2
Fore
SplineSet
676 1508 m 0
 676 1547 826 1702 928 1702 c 0
 1031 1702 1050 1544 1057 1390 c 0
 1075 1006 1044 306 1089 209 c 0
 1104 177 1104 204 1124 177 c 0
 1129 170 1131 168 1134 168 c 0
 1163 168 1293 154 1341 154 c 0
 1404 154 1505 241 1505 198 c 0
 1505 165 1307 -15 1132 -15 c 0
 1063 -15 979 -2 914 -2 c 0
 755 -2 585 -31 442 -31 c 0
 195 -31 62 161 62 342 c 0
 62 678 434 913 644 913 c 0
 757 913 826 875 827 879 c 0
 827 880 829 925 829 979 c 2
 830 1135 l 2
 830 1145 830 1155 830 1165 c 0
 830 1325 818 1550 712 1506 c 0
 689 1497 676 1497 676 1508 c 0
650 140 m 0
 761 140 816 149 835 149 c 0
 837 149 838 150 838 151 c 0
 838 175 831 151 826 391 c 0
 825 429 831 533 728 631 c 0
 654 701 546 743 431 743 c 0
 406 743 394 741 370 736 c 1
 331 676 296 602 296 492 c 0
 296 319 425 140 650 140 c 0
EndSplineSet
EndChar

StartChar: uniE03D
Encoding: 57405 57405 372
Width: 1358
VWidth: 0
Flags: HW
LayerCount: 2
Fore
SplineSet
62 341 m 0
 62 687 448 913 637 913 c 0
 870 913 1060 771 1060 557 c 0
 1060 301 846 154 849 151 c 0
 853 147 958 167 1110 167 c 0
 1180 167 1214 155 1284 155 c 2
 1314 155 l 1
 1359 182 1392 197 1412 197 c 0
 1420 197 1425 194 1425 188 c 0
 1425 153 1232 -16 1083 -16 c 0
 1025 -16 968 -3 891 -3 c 0
 767 -3 575 -31 440 -31 c 0
 210 -31 62 147 62 341 c 0
825 408 m 0
 825 609 640 743 431 743 c 0
 406 743 394 741 370 736 c 1
 331 676 296 602 296 492 c 0
 296 296 452 139 643 139 c 0
 676 139 702 142 741 153 c 1
 788 217 825 293 825 408 c 0
EndSplineSet
EndChar

StartChar: uniE03C
Encoding: 57404 57404 373
Width: 1285
VWidth: 0
Flags: HW
LayerCount: 2
Fore
SplineSet
262 -781 m 0
 169 -781 63 -713 63 -594 c 0
 63 -497 100 -299 349 -109 c 0
 359 -101 369 -94 369 -94 c 0
 374 -90 383 341 383 697 c 0
 383 1127 397 1565 242 1506 c 0
 135 1466 335 1702 459 1702 c 0
 586 1702 613 1482 618 839 c 0
 618 782 619 736 619 736 c 0
 623 736 792 898 1004 898 c 0
 1113 898 1222 822 1222 637 c 0
 1222 264 721 74 508 -97 c 0
 288 -273 281 -453 309 -507 c 0
 359 -604 497 -645 553 -580 c 0
 609 -515 712 -440 707 -482 c 0
 700 -537 500 -781 262 -781 c 0
989 503 m 0
 989 597 932 727 795 727 c 0
 718 727 668 693 618 649 c 1
 618 577 l 2
 614 195 603 57 605 55 c 0
 605 55 824 173 910 280 c 0
 964 347 989 416 989 503 c 0
EndSplineSet
EndChar

StartChar: uniE058
Encoding: 57432 57432 374
Width: 1091
VWidth: 0
Flags: HW
LayerCount: 2
Fore
SplineSet
-94 -1 m 0
 -109 -1 -116 0 -116 10 c 0
 -116 37 -13 133 93 169 c 1
 153 170 l 2
 347 173 347 174 396 174 c 0
 492 174 1004 200 1004 -124 c 0
 1004 -402 617 -658 366 -658 c 0
 209 -658 144 -541 150 -526 c 0
 170 -478 314 -379 364 -375 c 0
 377 -374 378 -374 386 -386 c 0
 419 -436 480 -488 572 -488 c 0
 609 -488 653 -482 689 -471 c 0
 706 -466 707 -465 720 -445 c 0
 759 -386 771 -320 771 -267 c 0
 771 -93 573 -22 430 -4 c 0
 384 2 308 5 218 5 c 0
 127 5 -30 -1 -94 -1 c 0
EndSplineSet
EndChar

StartChar: uniE058.high
Encoding: 65727 -1 375
Width: 1011
VWidth: 0
Flags: HW
LayerCount: 2
Fore
SplineSet
168 718 m 0
 -81 718 -116 702 -116 723 c 0
 -116 750 -13 846 93 882 c 1
 144 883 l 2
 283 886 330 888 376 888 c 0
 555 888 655 875 761 823 c 0
 877 766 924 683 924 590 c 0
 924 304 534 47 284 47 c 0
 159 47 97 123 75 156 c 0
 66 169 66 172 71 182 c 0
 99 242 268 346 296 331 c 0
 305 326 355 217 491 217 c 0
 629 217 637 261 637 261 c 0
 668 307 690 368 690 444 c 0
 690 636 457 702 317 713 c 0
 279 716 225 718 168 718 c 0
EndSplineSet
EndChar

StartChar: uniE034
Encoding: 57396 57396 376
Width: 846
VWidth: 0
Flags: HW
LayerCount: 2
Fore
SplineSet
163 215 m 0
 163 384 166 411 166 496 c 0
 166 639 112 709 66 690 c 0
 46 682 36 685 36 693 c 0
 36 736 171 865 252 881 c 0
 258 882 265 882 294 882 c 0
 294 882 1235 876 1241 871 c 0
 1243 869 1244 867 1244 864 c 0
 1244 833 1126 736 1047 709 c 0
 1006 695 399 703 395 697 c 0
 395 697 402 598 402 328 c 0
 402 294 401 288 401 271 c 0
 401 196 407 160 432 160 c 0
 489 160 305 -31 239 -31 c 0
 153 -31 163 158 163 215 c 0
EndSplineSet
EndChar

StartChar: uniE034.conr
Encoding: 65728 -1 377
Width: 846
VWidth: 0
Flags: HW
LayerCount: 2
Fore
SplineSet
163 215 m 0
 163 384 166 411 166 496 c 0
 166 639 112 709 66 690 c 0
 46 682 36 685 36 693 c 0
 36 735 172 867 255 881 c 0
 270 884 489 885 616 885 c 0
 962 885 962 887 962 873 c 0
 962 841 850 746 753 713 c 1
 703 712 l 2
 557 709 396 705 395 704 c 0
 393 702 402 647 402 332 c 0
 402 295 401 289 401 271 c 0
 401 196 407 160 432 160 c 0
 489 160 305 -31 239 -31 c 0
 153 -31 163 158 163 215 c 0
EndSplineSet
EndChar

StartChar: uniE057.norm
Encoding: 65729 -1 378
Width: 0
VWidth: 0
Flags: HW
LayerCount: 2
Fore
SplineSet
101 -77 m 0
 116 -77 113 -83 116 -168 c 0
 120 -298 122 -402 122 -509 c 0
 122 -652 137 -697 -35 -780 c 0
 -86 -805 -130 -819 -157 -819 c 0
 -167 -819 -176 -818 -176 -810 c 0
 -176 -791 -129 -766 -125 -752 c 0
 -115 -720 -111 -642 -111 -398 c 0
 -111 -244 -113 -248 -111 -242 c 0
 -94 -189 56 -77 101 -77 c 0
EndSplineSet
EndChar

StartChar: uniE057.lambe
Encoding: 65730 -1 379
Width: 0
VWidth: 0
Flags: HW
LayerCount: 2
Fore
SplineSet
-113 203 m 1
 -77 279 63 370 100 370 c 0
 116 370 113 368 116 274 c 0
 123 67 125 -89 125 -333 c 0
 125 -568 132 -655 56 -719 c 0
 1 -765 -113 -819 -167 -819 c 0
 -173 -819 -183 -819 -183 -809 c 0
 -183 -788 -146 -783 -134 -741 c 0
 -114 -674 -108 -515 -108 -161 c 0
 -108 -55 -109 50 -111 140 c 2
 -113 203 l 1
EndSplineSet
EndChar

StartChar: uniE04C.norm
Encoding: 65731 -1 380
Width: 0
VWidth: 0
Flags: HW
LayerCount: 2
Fore
SplineSet
-246 1320 m 0
 -246 1476 33 1630 162 1630 c 0
 319 1630 345 1546 345 1491 c 0
 345 1377 212 1190 89 1024 c 1
 -4 896 l 2
 -20 873 -87 779 -119 779 c 0
 -170 779 -36 938 61 1172 c 0
 100 1267 109 1306 109 1339 c 0
 109 1447 1 1466 -8 1466 c 2
 -12 1466 l 1
 -8 1421 0 1418 -7 1403 c 0
 -32 1352 -176 1254 -225 1254 c 0
 -243 1254 -246 1291 -246 1320 c 0
EndSplineSet
EndChar

StartChar: uniE04C.double_norm
Encoding: 65732 -1 381
Width: 0
VWidth: 0
Flags: HW
LayerCount: 2
Fore
SplineSet
131 1550 m 0
 137 1550 238 1624 355 1624 c 0
 453 1624 528 1579 528 1482 c 0
 528 1365 389 1179 262 1017 c 1
 160 885 l 2
 106 814 60 771 45 783 c 0
 4 816 333 1196 289 1365 c 0
 269 1440 203 1457 151 1462 c 1
 144 1400 102 1304 9 1162 c 1
 -173 899 l 1
 -223 824 -265 776 -286 776 c 0
 -342 776 -85 1162 -85 1323 c 0
 -85 1429 -178 1447 -205 1451 c 1
 -205 1444 l 2
 -205 1428 -200 1410 -197 1396 c 1
 -230 1325 -378 1238 -419 1238 c 0
 -431 1238 -440 1253 -440 1307 c 0
 -440 1452 -176 1614 -20 1614 c 0
 92 1614 130 1550 131 1550 c 0
EndSplineSet
EndChar

StartChar: uniE04B.norm
Encoding: 65733 -1 382
Width: 0
VWidth: 0
Flags: HW
LayerCount: 2
Fore
SplineSet
-234 -699 m 0
 -302 -699 -405 -671 -405 -556 c 0
 -405 -394 -196 -205 -60 -79 c 1
 26 2 l 2
 60 35 120 89 148 89 c 0
 164 89 160 68 138 34 c 0
 69 -70 -144 -197 -169 -381 c 0
 -186 -505 -68 -532 -52 -532 c 0
 -45 -532 -59 -483 -56 -474 c 0
 -40 -426 114 -321 164 -321 c 0
 177 -321 185 -336 185 -384 c 0
 185 -532 -79 -699 -234 -699 c 0
EndSplineSet
EndChar

StartChar: uniE04A.norm
Encoding: 65734 -1 383
Width: 0
VWidth: 0
Flags: HW
LayerCount: 2
Fore
SplineSet
406 1641 m 0
 505 1641 602 1558 602 1433 c 0
 602 1248 310 1153 269 1165 c 0
 233 1176 323 1232 338 1240 c 0
 409 1279 360 1442 241 1416 c 0
 35 1370 -134 767 -210 767 c 0
 -217 767 -220 774 -220 787 c 0
 -220 852 -29 1289 172 1513 c 0
 224 1570 313 1641 406 1641 c 0
EndSplineSet
EndChar

StartChar: uniE04A.wide
Encoding: 65735 -1 384
Width: 0
VWidth: 0
Flags: HW
LayerCount: 2
Fore
SplineSet
660 1372 m 0
 660 1157 356 1122 313 1122 c 0
 289 1122 275 1126 275 1135 c 0
 275 1158 364 1189 375 1193 c 0
 423 1210 430 1379 303 1379 c 0
 87 1379 -207 779 -289 779 c 0
 -295 779 -298 782 -298 791 c 0
 -298 869 58 1362 279 1509 c 0
 373 1572 444 1575 462 1575 c 0
 581 1575 660 1479 660 1372 c 0
EndSplineSet
EndChar

StartChar: uniE04A.narrow
Encoding: 65736 -1 385
Width: 0
VWidth: 0
Flags: HW
LayerCount: 2
Fore
SplineSet
-129 1441 m 0
 -129 1734 23 1769 82 1769 c 0
 198 1769 296 1689 296 1568 c 0
 296 1443 195 1272 163 1272 c 0
 132 1272 180 1387 178 1396 c 0
 169 1451 118 1489 68 1489 c 0
 22 1489 -49 1464 -49 1308 c 0
 -49 1109 47 914 47 798 c 0
 47 766 42 760 33 760 c 0
 -11 760 -129 1188 -129 1441 c 0
EndSplineSet
EndChar

StartChar: uniE04A.double_norm
Encoding: 65737 -1 386
Width: 0
VWidth: 0
Flags: HW
LayerCount: 2
Fore
SplineSet
376 1518 m 1
 404 1547 493 1621 589 1621 c 0
 696 1621 786 1530 786 1414 c 0
 786 1212 461 1133 439 1153 c 0
 426 1165 459 1193 512 1221 c 0
 536 1233 550 1255 550 1293 c 0
 550 1352 508 1403 445 1403 c 0
 226 1403 31 769 -49 769 c 0
 -55 769 -59 776 -59 787 c 0
 -59 881 183 1275 181 1279 c 0
 180 1280 168 1398 63 1387 c 0
 -147 1366 -278 766 -358 766 c 0
 -366 766 -368 776 -368 787 c 0
 -368 870 -161 1359 14 1522 c 0
 176 1673 311 1619 376 1518 c 1
EndSplineSet
EndChar

StartChar: uniE04A.double_wide
Encoding: 65738 -1 387
Width: 0
VWidth: 0
Flags: HW
LayerCount: 2
Fore
SplineSet
-445 776 m 0
 -450 776 -454 780 -454 790 c 0
 -454 812 -435 856 -406 903 c 2
 -307 1057 l 1
 -53 1440 135 1557 245 1557 c 0
 252 1557 353 1566 416 1472 c 0
 421 1464 425 1458 425 1457 c 0
 425 1456 434 1463 445 1471 c 0
 517 1523 591 1551 656 1551 c 0
 773 1551 852 1455 852 1346 c 0
 852 1139 563 1104 503 1104 c 0
 444 1104 453 1124 484 1142 c 0
 532 1169 597 1161 597 1252 c 0
 597 1352 489 1396 386 1322 c 0
 304 1263 237 1198 151 1091 c 1
 38 944 l 2
 -16 872 -83 782 -118 782 c 0
 -124 782 -127 785 -127 793 c 0
 -127 854 103 1138 185 1230 c 2
 205 1253 l 1
 202 1269 190 1356 98 1356 c 0
 -114 1356 -363 776 -445 776 c 0
EndSplineSet
EndChar

StartChar: uniE04A.double_narrow
Encoding: 65739 -1 388
Width: 0
VWidth: 0
Flags: HW
LayerCount: 2
Fore
SplineSet
80 1672 m 0
 81 1672 136 1765 241 1765 c 0
 354 1765 452 1685 452 1565 c 0
 452 1458 366 1301 321 1271 c 0
 292 1251 291 1299 325 1374 c 0
 340 1407 293 1486 218 1486 c 0
 162 1486 127 1444 111 1395 c 0
 102 1368 98 1337 98 1282 c 0
 98 1087 224 759 163 759 c 0
 109 759 30 1204 23 1358 c 2
 21 1392 l 1
 -5 1424 -35 1441 -73 1441 c 0
 -118 1441 -186 1403 -186 1286 c 0
 -186 1077 -54 832 -86 768 c 0
 -101 739 -133 803 -150 847 c 0
 -150 847 -272 1173 -272 1424 c 0
 -272 1606 -186 1722 -57 1722 c 0
 27 1722 77 1672 80 1672 c 0
EndSplineSet
EndChar

StartChar: uniE04D.norm
Encoding: 65740 -1 389
Width: 0
VWidth: 0
Flags: HW
LayerCount: 2
Fore
SplineSet
-405 -987 m 0
 -519 -987 -601 -883 -601 -783 c 0
 -601 -547 -119 -398 -357 -577 c 0
 -423 -626 -373 -749 -281 -749 c 0
 -79 -749 87 -97 136 29 c 0
 156 80 181 121 196 121 c 0
 201 121 208 116 208 91 c 0
 208 23 -33 -829 -309 -964 c 0
 -343 -981 -367 -987 -405 -987 c 0
EndSplineSet
EndChar

StartChar: uniE04D.narrow
Encoding: 65741 -1 390
Width: 0
VWidth: 0
Flags: HW
LayerCount: 2
Fore
SplineSet
-166 -584 m 1
 -155 -653 -100 -682 -54 -682 c 0
 -33 -682 42 -675 60 -557 c 0
 62 -547 62 -520 62 -492 c 0
 62 -259 -99 122 -34 122 c 0
 15 122 143 -368 143 -625 c 0
 143 -914 12 -963 -76 -963 c 0
 -180 -963 -282 -884 -282 -762 c 0
 -282 -617 -139 -396 -139 -485 c 0
 -139 -515 -155 -555 -166 -584 c 1
EndSplineSet
EndChar

StartChar: uniE04D.wide
Encoding: 65742 -1 391
Width: 0
VWidth: 0
Flags: HW
LayerCount: 2
Fore
SplineSet
-341 -431 m 0
 -321 -431 -317 -435 -317 -441 c 0
 -317 -468 -409 -505 -417 -517 c 0
 -428 -534 -434 -555 -434 -576 c 0
 -434 -661 -342 -728 -237 -651 c 0
 -221 -639 -122 -552 -8 -366 c 0
 131 -141 233 112 285 112 c 0
 292 112 295 105 295 97 c 0
 295 54 272 5 143 -232 c 0
 -157 -782 -354 -900 -478 -900 c 0
 -583 -900 -672 -810 -672 -693 c 0
 -672 -506 -394 -431 -341 -431 c 0
EndSplineSet
EndChar

StartChar: uniE04D.long
Encoding: 65743 -1 392
Width: 0
VWidth: 0
Flags: HW
LayerCount: 2
Fore
SplineSet
-500 -724 m 0
 -500 -781 -459 -834 -395 -834 c 0
 -281 -834 -103 -601 10 -428 c 0
 184 -161 305 109 359 109 c 0
 368 109 369 102 369 95 c 0
 369 59 350 7 153 -320 c 0
 -138 -805 -349 -968 -417 -1006 c 0
 -461 -1030 -506 -1043 -548 -1043 c 0
 -646 -1043 -742 -961 -742 -839 c 0
 -742 -634 -443 -578 -404 -578 c 0
 -383 -578 -379 -584 -379 -589 c 0
 -379 -612 -460 -649 -466 -652 c 0
 -488 -661 -500 -695 -500 -724 c 0
EndSplineSet
EndChar

StartChar: uniE059.norm
Encoding: 65744 -1 393
Width: 0
VWidth: 0
Flags: HW
LayerCount: 2
Fore
SplineSet
-353 -319 m 0
 -353 -121 -34 84 26 84 c 0
 34 84 40 82 40 75 c 0
 40 16 -119 -14 -119 -171 c 0
 -119 -306 37 -368 103 -330 c 0
 144 -306 193 -288 193 -309 c 0
 193 -348 -6 -511 -153 -511 c 0
 -273 -511 -353 -420 -353 -319 c 0
EndSplineSet
EndChar

StartChar: tenginterpdot
Encoding: 65745 -1 394
Width: 0
VWidth: 0
Flags: HW
LayerCount: 2
Fore
SplineSet
-1 166 m 0
 20 166 22 163 94 91 c 0
 169 16 166 20 166 -0 c 0
 166 -20 169 -17 94 -92 c 0
 21 -165 19 -166 2 -166 c 0
 1 -166 1 -166 0 -166 c 0
 -1 -166 -1 -166 -2 -166 c 0
 -19 -166 -21 -165 -94 -92 c 0
 -169 -17 -166 -20 -166 -0 c 0
 -166 20 -168 16 -94 90 c 0
 -20 164 -20 166 -1 166 c 0
EndSplineSet
EndChar

StartChar: uniE065
Encoding: 57445 57445 395
Width: 618
VWidth: 0
Flags: HW
LayerCount: 2
Fore
SplineSet
281 568 m 0
 281 783 117 1031 117 1250 c 0
 117 1334 139 1444 301 1583 c 0
 350 1625 406 1663 432 1663 c 0
 440 1663 444 1661 444 1654 c 0
 444 1597 337 1591 337 1422 c 0
 337 1199 502 955 502 735 c 0
 502 624 457 537 357 439 c 0
 283 366 214 322 185 322 c 0
 159 322 194 374 230 410 c 0
 238 418 281 450 281 568 c 0
EndSplineSet
EndChar

StartChar: uniE066
Encoding: 57446 57446 396
Width: 962
VWidth: 0
Flags: HW
LayerCount: 2
Fore
SplineSet
-8 1102 m 0
 -8 1141 138 1301 235 1301 c 0
 329 1301 357 1185 371 998 c 1
 453 1058 553 1125 675 1125 c 0
 779 1125 822 1048 822 989 c 0
 822 836 680 710 683 705 c 0
 684 704 808 696 808 573 c 0
 808 382 569 137 379 40 c 1
 364 -141 379 -238 282 -319 c 0
 221 -370 125 -419 86 -419 c 0
 43 -419 105 -371 113 -350 c 0
 157 -227 154 209 154 530 c 0
 154 959 134 1104 50 1104 c 0
 22 1104 -8 1078 -8 1102 c 0
616 799 m 0
 616 880 559 921 487 921 c 0
 453 921 411 912 375 897 c 1
 380 757 378 607 382 586 c 1
 558 717 616 671 616 799 c 0
604 388 m 0
 604 462 545 500 484 500 c 0
 427 500 382 480 382 479 c 0
 382 478 381 416 381 340 c 2
 381 202 l 1
 399 202 l 2
 458 202 549 231 572 272 c 0
 595 313 604 353 604 388 c 0
EndSplineSet
EndChar

StartChar: uniE068
Encoding: 57448 57448 397
Width: 1412
VWidth: 0
Flags: HW
LayerCount: 2
Fore
SplineSet
149 353 m 0
 149 389 351 569 552 569 c 0
 739 569 897 484 1061 484 c 0
 1187 484 1187 534 1249 538 c 0
 1260 539 1264 538 1264 529 c 0
 1264 497 1072 313 854 313 c 0
 686 313 512 398 352 398 c 0
 226 398 226 348 164 344 c 0
 153 343 149 344 149 353 c 0
EndSplineSet
EndChar

StartChar: uniE000
Encoding: 57344 57344 401
Width: 1391
VWidth: 0
Flags: HW
LayerCount: 2
Fore
SplineSet
421 611 m 1
 544 731 753 882 975 882 c 0
 1171 882 1328 731 1328 575 c 0
 1328 258 949 0 766 -0 c 0
 656 0 592 108 606 136 c 0
 632 189 777 285 823 285 c 0
 835 285 835 278 837 272 c 0
 860 200 955 153 1007 173 c 0
 1011 174 1196 416 1012 607 c 0
 968 653 886 712 779 712 c 2
 778 712 l 2
 593 712 497 601 425 512 c 1
 435 -318 416 -467 448 -530 c 0
 453 -539 454 -544 454 -548 c 0
 454 -578 347 -638 312 -667 c 0
 194 -765 88 -819 42 -819 c 0
 -17 -819 113 -728 118 -721 c 0
 193 -631 189 -666 189 361 c 0
 189 370 197 604 119 682 c 0
 68 732 17 668 17 701 c 0
 17 737 173 883 274 883 c 0
 333 883 400 833 421 611 c 1
EndSplineSet
EndChar

StartChar: uniE000.conr
Encoding: 65748 -1 402
Width: 1391
VWidth: 0
Flags: HW
LayerCount: 2
Fore
SplineSet
421 611 m 1
 575 762 783 882 969 882 c 0
 1252 882 1554 563 1073 182 c 2
 1057 170 l 1
 1500 170 l 1
 1503 168 1507 166 1507 160 c 0
 1507 133 1407 38 1298 0 c 1
 659 -0 l 1
 622 29 800 165 880 170 c 0
 903 171 966 177 997 208 c 0
 1038 249 1093 333 1093 430 c 0
 1093 573 934 712 781 712 c 0
 585 712 484 586 425 512 c 1
 435 -317 416 -467 448 -530 c 0
 453 -539 454 -544 454 -548 c 0
 454 -578 347 -638 312 -667 c 0
 194 -765 88 -819 42 -819 c 0
 -17 -819 113 -728 118 -721 c 0
 193 -631 189 -666 189 361 c 0
 189 370 197 604 119 682 c 0
 68 732 17 668 17 701 c 0
 17 737 173 883 274 883 c 0
 333 883 400 833 421 611 c 1
EndSplineSet
EndChar

StartChar: uniE000.conl
Encoding: 65749 -1 403
Width: 1391
VWidth: 0
Flags: HW
LayerCount: 2
Fore
SplineSet
423 612 m 1
 546 732 754 882 975 882 c 0
 1171 882 1328 731 1328 575 c 0
 1328 258 949 0 766 -0 c 0
 656 0 592 108 606 136 c 0
 632 189 777 285 823 285 c 0
 835 285 835 278 837 272 c 0
 860 200 955 153 1007 173 c 0
 1011 174 1196 416 1012 607 c 0
 968 653 886 712 779 712 c 2
 778 712 l 2
 593 712 498 602 426 513 c 1
 435 -409 416 -468 447 -530 c 0
 452 -539 454 -544 454 -548 c 0
 454 -578 347 -638 312 -667 c 0
 194 -765 88 -819 42 -819 c 0
 -17 -819 113 -728 118 -721 c 0
 194 -631 189 -674 189 393 c 0
 189 433 201 664 87 697 c 0
 76 700 69 701 -31 708 c 0
 -120 714 -116 713 -116 722 c 0
 -116 758 18 861 89 880 c 0
 97 882 104 883 182 883 c 2
 197 883 l 2
 302 883 406 894 423 612 c 1
EndSplineSet
EndChar

StartChar: uniE000.conb
Encoding: 65750 -1 404
Width: 1391
VWidth: 0
Flags: HW
LayerCount: 2
Fore
SplineSet
423 612 m 1
 576 762 784 882 969 882 c 0
 1252 882 1554 563 1073 182 c 2
 1057 170 l 1
 1500 170 l 1
 1503 168 1507 166 1507 160 c 0
 1507 133 1407 38 1298 0 c 1
 659 -0 l 1
 622 29 800 165 880 170 c 0
 903 171 966 177 997 208 c 0
 1038 249 1093 333 1093 430 c 0
 1093 573 934 712 781 712 c 0
 584 712 484 585 426 513 c 1
 435 -409 416 -468 447 -530 c 0
 452 -539 454 -544 454 -548 c 0
 454 -578 347 -638 312 -667 c 0
 194 -765 88 -819 42 -819 c 0
 -17 -819 113 -728 118 -721 c 0
 194 -631 189 -674 189 393 c 0
 189 433 201 664 87 697 c 0
 76 700 69 701 -31 708 c 0
 -120 714 -116 713 -116 722 c 0
 -116 758 18 861 89 880 c 0
 97 882 104 883 182 883 c 2
 197 883 l 2
 302 883 406 894 423 612 c 1
EndSplineSet
EndChar

StartChar: uniE000.dec
Encoding: 65751 -1 405
Width: 1710
VWidth: 0
Flags: HW
LayerCount: 2
Fore
SplineSet
701 718 m 1
 836 858 1051 1016 1284 1016 c 0
 1461 1016 1646 848 1646 652 c 0
 1646 255 1249 0 1067 -0 c 0
 958 0 877 109 904 150 c 0
 946 212 1097 304 1125 289 c 0
 1125 289 1167 170 1274 170 c 0
 1310 170 1312 173 1342 229 c 0
 1393 324 1413 431 1413 498 c 0
 1413 682 1242 845 1080 845 c 0
 875 845 778 707 701 588 c 1
 701 -11 702 -310 702 -410 c 2
 702 -470 l 1
 619 -637 410 -658 314 -777 c 0
 302 -792 282 -802 187 -928 c 0
 127 -1008 -4 -1070 -44 -1070 c 0
 -52 -1070 -59 -1068 -59 -1062 c 0
 -59 -1020 73 -885 106 -854 c 1
 133 -770 156 -649 156 99 c 0
 156 506 157 876 19 821 c 0
 -16 807 -19 821 -7 845 c 0
 14 887 134 1023 228 1023 c 0
 354 1023 354 784 363 786 c 0
 412 795 663 1039 698 1013 c 0
 700 1012 701 1006 701 718 c 1
370 695 m 0
 370 626 382 557 382 5 c 0
 382 -642 361 -651 362 -652 c 0
 362 -652 375 -643 391 -632 c 2
 486 -567 l 1
 487 -396 l 2
 487 -327 488 -146 488 55 c 0
 488 129 487 206 487 281 c 2
 487 786 l 1
 433 742 370 703 370 695 c 0
EndSplineSet
EndChar

StartChar: uniE004
Encoding: 57348 57348 406
Width: 2036
VWidth: 0
Flags: HW
LayerCount: 2
Fore
SplineSet
419 632 m 1
 530 743 720 882 921 882 c 0
 1064 882 1163 792 1218 678 c 1
 1324 772 1483 883 1660 883 c 0
 1826 883 1973 725 1973 558 c 0
 1973 235 1611 0 1447 0 c 0
 1351 0 1289 86 1298 118 c 0
 1313 170 1519 308 1532 262 c 0
 1546 213 1603 170 1654 170 c 2
 1667 170 l 1
 1713 244 1739 326 1739 407 c 0
 1739 557 1601 712 1459 712 c 0
 1326 712 1269 638 1238 604 c 1
 1237 574 l 2
 1233 220 863 0 710 -0 c 0
 616 0 562 85 562 113 c 0
 562 163 784 308 796 262 c 0
 799 249 826 174 928 169 c 1
 1121 493 898 712 722 712 c 2
 721 712 l 2
 574 712 507 640 425 518 c 1
 435 -298 416 -467 448 -530 c 0
 453 -539 454 -544 454 -548 c 0
 454 -578 347 -638 312 -667 c 0
 194 -765 88 -819 42 -819 c 0
 -17 -819 113 -728 118 -721 c 0
 193 -631 189 -666 189 361 c 0
 189 370 197 604 119 682 c 0
 68 732 17 668 17 701 c 0
 17 737 173 883 274 883 c 0
 390 883 413 685 419 632 c 1
EndSplineSet
EndChar

StartChar: uniE004.conr
Encoding: 65752 -1 407
Width: 2036
VWidth: 0
Flags: HW
LayerCount: 2
Fore
SplineSet
419 632 m 1
 530 743 720 882 921 882 c 0
 1064 882 1163 792 1218 678 c 1
 1324 772 1483 883 1660 883 c 0
 1850 883 2030 670 1954 462 c 0
 1905 327 1768 216 1709 170 c 1
 2145 170 l 1
 2148 168 2152 166 2152 160 c 0
 2152 133 2052 38 1943 0 c 1
 1624 -0 l 2
 1569 -0 1523 0 1484 -0 c 0
 1302 0 1289 -6 1300 18 c 0
 1323 69 1467 170 1522 170 c 0
 1533 170 1619 176 1652 210 c 0
 1707 268 1739 343 1739 410 c 0
 1739 552 1604 712 1459 712 c 0
 1326 712 1269 638 1238 604 c 1
 1237 574 l 2
 1233 220 863 0 710 -0 c 0
 616 0 562 85 562 113 c 0
 562 163 784 308 796 262 c 0
 799 249 826 174 928 169 c 1
 1121 493 898 712 722 712 c 2
 721 712 l 2
 574 712 507 640 425 518 c 1
 435 -298 416 -467 448 -530 c 0
 453 -539 454 -544 454 -548 c 0
 454 -578 347 -638 312 -667 c 0
 194 -765 88 -819 42 -819 c 0
 -17 -819 113 -728 118 -721 c 0
 193 -631 189 -666 189 361 c 0
 189 370 197 604 119 682 c 0
 68 732 17 668 17 701 c 0
 17 737 173 883 274 883 c 0
 390 883 413 685 419 632 c 1
EndSplineSet
EndChar

StartChar: uniE004.conl
Encoding: 65753 -1 408
Width: 2036
VWidth: 0
Flags: HW
LayerCount: 2
Fore
SplineSet
421 634 m 1
 532 744 721 882 921 882 c 0
 1064 882 1163 792 1218 678 c 1
 1324 772 1483 883 1660 883 c 0
 1826 883 1973 725 1973 558 c 0
 1973 235 1611 0 1447 0 c 0
 1351 0 1289 86 1298 118 c 0
 1313 170 1519 308 1532 262 c 0
 1546 213 1603 170 1654 170 c 2
 1667 170 l 1
 1713 244 1739 326 1739 407 c 0
 1739 557 1601 712 1459 712 c 0
 1326 712 1269 638 1238 604 c 1
 1237 574 l 2
 1233 220 863 0 710 -0 c 0
 616 0 562 85 562 113 c 0
 562 163 784 308 796 262 c 0
 799 249 826 174 928 169 c 1
 1121 493 898 712 722 712 c 2
 721 712 l 2
 574 712 508 639 426 518 c 1
 436 -363 415 -466 447 -530 c 0
 452 -539 454 -544 454 -548 c 0
 454 -578 347 -638 312 -667 c 0
 194 -765 88 -819 42 -819 c 0
 -17 -819 113 -728 118 -721 c 0
 194 -631 189 -674 189 393 c 0
 189 433 201 664 87 697 c 0
 76 700 69 701 -31 708 c 0
 -120 714 -116 713 -116 722 c 0
 -116 758 18 861 89 880 c 0
 97 882 104 883 182 883 c 2
 197 883 l 2
 302 883 399 893 421 634 c 1
EndSplineSet
EndChar

StartChar: uniE004.conb
Encoding: 65754 -1 409
Width: 2036
VWidth: 0
Flags: HW
LayerCount: 2
Fore
SplineSet
421 634 m 1
 532 744 721 882 921 882 c 0
 1064 882 1163 792 1218 678 c 1
 1324 772 1483 883 1660 883 c 0
 1850 883 2030 670 1954 462 c 0
 1905 327 1768 216 1709 170 c 1
 2145 170 l 1
 2148 168 2152 166 2152 160 c 0
 2152 133 2052 38 1943 0 c 1
 1624 -0 l 2
 1569 -0 1523 0 1484 -0 c 0
 1302 0 1289 -6 1300 18 c 0
 1323 69 1467 170 1522 170 c 0
 1533 170 1619 176 1652 210 c 0
 1707 268 1739 343 1739 410 c 0
 1739 552 1604 712 1459 712 c 0
 1326 712 1269 638 1238 604 c 1
 1237 574 l 2
 1233 220 863 0 710 -0 c 0
 616 0 562 85 562 113 c 0
 562 163 784 308 796 262 c 0
 799 249 826 174 928 169 c 1
 1121 493 898 712 722 712 c 2
 721 712 l 2
 574 712 508 639 426 518 c 1
 436 -363 415 -466 447 -530 c 0
 452 -539 454 -544 454 -548 c 0
 454 -578 347 -638 312 -667 c 0
 194 -765 88 -819 42 -819 c 0
 -17 -819 113 -728 118 -721 c 0
 194 -631 189 -674 189 393 c 0
 189 433 201 664 87 697 c 0
 76 700 69 701 -31 708 c 0
 -120 714 -116 713 -116 722 c 0
 -116 758 18 861 89 880 c 0
 97 882 104 883 182 883 c 2
 197 883 l 2
 302 883 399 893 421 634 c 1
EndSplineSet
EndChar

StartChar: uniE004.dec
Encoding: 65755 -1 410
Width: 2386
VWidth: 0
Flags: HW
LayerCount: 2
Fore
SplineSet
701 746 m 1
 805 856 1007 1015 1222 1015 c 0
 1440 1015 1527 782 1527 782 c 0
 1529 780 1740 1014 1993 1015 c 1
 1995 1015 l 2
 2192 1015 2323 802 2323 637 c 0
 2323 218 1934 0 1781 -0 c 0
 1673 0 1622 101 1626 121 c 0
 1635 167 1846 318 1861 266 c 0
 1865 253 1894 171 2000 170 c 1
 2066 275 2090 389 2090 479 c 0
 2090 661 1947 845 1793 845 c 0
 1648 845 1596 754 1551 691 c 1
 1551 650 l 2
 1549 223 1171 0 1007 -0 c 0
 904 0 845 100 855 125 c 0
 875 177 1075 317 1088 267 c 0
 1092 250 1122 174 1225 169 c 1
 1294 280 1317 400 1317 497 c 0
 1317 689 1162 845 1019 845 c 0
 993 845 901 837 851 797 c 0
 813 766 757 698 701 593 c 1
 701 -8 702 -310 702 -410 c 2
 702 -470 l 1
 619 -637 410 -658 314 -777 c 0
 302 -792 282 -802 187 -928 c 0
 127 -1008 -4 -1070 -44 -1070 c 0
 -52 -1070 -59 -1068 -59 -1062 c 0
 -59 -1020 73 -885 106 -854 c 1
 133 -770 156 -649 156 99 c 0
 156 506 157 876 19 821 c 0
 -16 807 -19 821 -7 845 c 0
 14 887 134 1023 228 1023 c 0
 354 1023 354 784 363 786 c 0
 412 795 663 1039 698 1013 c 0
 700 1012 701 1006 701 746 c 1
370 695 m 0
 370 626 382 557 382 5 c 0
 382 -642 361 -651 362 -652 c 0
 362 -652 375 -643 391 -632 c 2
 486 -567 l 1
 487 -396 l 2
 487 -327 488 -146 488 55 c 0
 488 129 487 206 487 281 c 2
 487 786 l 1
 433 742 370 703 370 695 c 0
EndSplineSet
EndChar

StartChar: uniE008
Encoding: 57352 57352 411
Width: 1346
VWidth: 0
Flags: HW
LayerCount: 2
Fore
SplineSet
379 614 m 1
 501 733 710 882 930 882 c 0
 1126 882 1283 731 1283 575 c 0
 1283 258 904 0 721 -0 c 0
 611 0 547 108 561 136 c 0
 587 189 732 285 778 285 c 0
 790 285 790 278 792 272 c 0
 815 200 910 153 962 173 c 0
 966 174 1151 416 967 607 c 0
 923 653 841 712 734 712 c 2
 733 712 l 2
 548 712 452 601 380 512 c 1
 382 148 390 165 390 148 c 0
 390 102 86 -27 31 -27 c 2
 29 -27 l 2
 -14 -27 26 11 69 38 c 0
 144 84 127 140 136 899 c 0
 138 1070 139 1164 139 1222 c 0
 139 1222 143 1564 29 1517 c 0
 9 1509 -8 1507 -8 1520 c 0
 -8 1559 154 1702 246 1702 c 0
 323 1702 365 1618 374 1390 c 0
 377 1313 376 1079 379 614 c 1
EndSplineSet
EndChar

StartChar: uniE008.conr
Encoding: 65756 -1 412
Width: 1346
VWidth: 0
Flags: HW
LayerCount: 2
Fore
SplineSet
379 614 m 1
 531 763 739 882 924 882 c 0
 1207 882 1509 563 1028 182 c 2
 1012 170 l 1
 1455 170 l 1
 1458 168 1462 166 1462 160 c 0
 1462 133 1362 38 1253 0 c 1
 614 -0 l 1
 577 29 755 165 835 170 c 0
 858 171 921 177 952 208 c 0
 993 249 1048 333 1048 430 c 0
 1048 573 889 712 736 712 c 0
 540 712 439 586 380 512 c 1
 382 148 390 165 390 148 c 0
 390 102 86 -27 31 -27 c 2
 29 -27 l 2
 -14 -27 26 11 69 38 c 0
 144 84 127 140 136 899 c 0
 138 1070 139 1164 139 1222 c 0
 139 1222 143 1564 29 1517 c 0
 9 1509 -8 1507 -8 1520 c 0
 -8 1559 154 1702 246 1702 c 0
 323 1702 365 1618 374 1390 c 0
 377 1313 376 1079 379 614 c 1
EndSplineSet
EndChar

StartChar: uniE008.dec
Encoding: 65757 -1 413
Width: 1710
VWidth: 0
Flags: HW
LayerCount: 2
Fore
SplineSet
701 717 m 1
 836 857 1052 1016 1286 1016 c 0
 1463 1016 1647 848 1647 652 c 0
 1647 255 1250 0 1068 -0 c 0
 959 0 879 109 906 150 c 0
 948 212 1098 304 1126 289 c 0
 1126 289 1169 170 1276 170 c 0
 1312 170 1314 173 1344 229 c 0
 1395 324 1414 431 1414 498 c 0
 1414 682 1243 845 1081 845 c 0
 876 845 780 707 702 587 c 1
 702 412 702 290 702 270 c 2
 702 206 l 1
 675 152 593 67 507 31 c 0
 301 -56 302 -136 215 -212 c 0
 154 -265 57 -314 18 -314 c 0
 -1 -314 3 -303 10 -290 c 0
 25 -261 47 -234 82 -200 c 2
 105 -178 l 1
 146 -51 157 216 157 766 c 0
 157 1269 163 1650 14 1592 c 0
 -6 1584 -15 1586 -15 1597 c 0
 -15 1635 126 1795 227 1795 c 0
 346 1795 356 1562 360 1556 c 0
 368 1546 630 1758 630 1758 c 0
 664 1781 689 1791 698 1785 c 0
 701 1783 701 1313 701 717 c 1
383 799 m 0
 383 29 361 60 361 30 c 0
 361 30 376 40 395 53 c 2
 486 114 l 1
 487 296 l 2
 487 369 488 561 488 776 c 0
 488 855 487 938 487 1018 c 2
 487 1558 l 1
 365 1457 367 1487 370 1452 c 0
 377 1356 383 1081 383 799 c 0
EndSplineSet
EndChar

StartChar: uniE00C
Encoding: 57356 57356 414
Width: 1991
VWidth: 0
Flags: HW
LayerCount: 2
Fore
SplineSet
379 637 m 1
 489 746 677 882 876 882 c 0
 1019 882 1118 792 1173 678 c 1
 1279 772 1438 883 1615 883 c 0
 1781 883 1928 725 1928 558 c 0
 1928 235 1566 0 1402 0 c 0
 1306 0 1244 86 1253 118 c 0
 1268 170 1474 308 1487 262 c 0
 1501 213 1558 170 1609 170 c 2
 1622 170 l 1
 1668 244 1694 326 1694 407 c 0
 1694 557 1556 712 1414 712 c 0
 1281 712 1224 638 1193 604 c 1
 1192 574 l 2
 1188 220 818 0 665 -0 c 0
 571 0 517 85 517 113 c 0
 517 163 739 308 751 262 c 0
 754 249 781 174 883 169 c 1
 1076 493 853 712 677 712 c 2
 676 712 l 2
 528 712 462 638 380 517 c 1
 382 148 390 166 390 148 c 0
 390 102 86 -27 31 -27 c 2
 29 -27 l 2
 -14 -27 26 11 69 38 c 0
 144 84 127 140 136 899 c 0
 138 1070 139 1164 139 1222 c 0
 139 1222 143 1564 29 1517 c 0
 9 1509 -8 1507 -8 1520 c 0
 -8 1559 154 1702 246 1702 c 0
 323 1702 365 1618 374 1390 c 0
 377 1315 376 1089 379 637 c 1
EndSplineSet
EndChar

StartChar: uniE00C.conr
Encoding: 65758 -1 415
Width: 1991
VWidth: 0
Flags: HW
LayerCount: 2
Fore
SplineSet
379 637 m 1
 489 746 677 882 876 882 c 0
 1019 882 1118 792 1173 678 c 1
 1279 772 1438 883 1615 883 c 0
 1805 883 1985 670 1909 462 c 0
 1860 327 1723 216 1664 170 c 1
 2100 170 l 1
 2103 168 2107 166 2107 160 c 0
 2107 133 2007 38 1898 0 c 1
 1579 -0 l 2
 1524 -0 1478 0 1439 -0 c 0
 1257 0 1244 -6 1255 18 c 0
 1278 69 1422 170 1477 170 c 0
 1488 170 1574 176 1607 210 c 0
 1662 268 1694 343 1694 410 c 0
 1694 552 1559 712 1414 712 c 0
 1281 712 1224 638 1193 604 c 1
 1192 574 l 2
 1188 220 818 0 665 -0 c 0
 571 0 517 85 517 113 c 0
 517 163 739 308 751 262 c 0
 754 249 781 174 883 169 c 1
 1076 493 853 712 677 712 c 2
 676 712 l 2
 528 712 462 638 380 517 c 1
 382 148 390 166 390 148 c 0
 390 102 86 -27 31 -27 c 2
 29 -27 l 2
 -14 -27 26 11 69 38 c 0
 144 84 127 140 136 899 c 0
 138 1070 139 1164 139 1222 c 0
 139 1222 143 1564 29 1517 c 0
 9 1509 -8 1507 -8 1520 c 0
 -8 1559 154 1702 246 1702 c 0
 323 1702 365 1618 374 1390 c 0
 377 1315 376 1089 379 637 c 1
EndSplineSet
EndChar

StartChar: uniE00C.dec
Encoding: 65759 -1 416
Width: 2387
VWidth: 0
Flags: HW
LayerCount: 2
Fore
SplineSet
701 746 m 1
 805 857 1008 1015 1223 1015 c 0
 1441 1015 1528 782 1528 782 c 0
 1530 780 1741 1014 1994 1015 c 1
 1997 1015 l 2
 2194 1015 2325 802 2325 637 c 0
 2325 218 1935 0 1782 -0 c 0
 1674 0 1624 101 1628 121 c 0
 1637 167 1847 318 1862 266 c 0
 1866 253 1895 171 2001 170 c 1
 2067 275 2091 389 2091 479 c 0
 2091 661 1948 845 1794 845 c 0
 1649 845 1597 754 1552 691 c 1
 1552 650 l 2
 1550 223 1173 0 1009 -0 c 0
 906 0 847 100 857 125 c 0
 877 177 1076 317 1089 267 c 0
 1093 250 1123 174 1226 169 c 1
 1295 280 1318 400 1318 497 c 0
 1318 689 1163 845 1020 845 c 0
 994 845 903 837 853 797 c 0
 815 766 758 696 702 591 c 1
 702 414 702 290 702 270 c 2
 702 206 l 1
 675 152 593 67 507 31 c 0
 301 -56 302 -136 215 -212 c 0
 154 -265 57 -314 18 -314 c 0
 -1 -314 3 -303 10 -290 c 0
 25 -261 47 -234 82 -200 c 2
 105 -178 l 1
 146 -51 157 216 157 766 c 0
 157 1269 163 1650 14 1592 c 0
 -6 1584 -15 1586 -15 1597 c 0
 -15 1635 126 1795 227 1795 c 0
 346 1795 356 1562 360 1556 c 0
 368 1546 630 1758 630 1758 c 0
 664 1781 689 1791 698 1785 c 0
 701 1783 701 1343 701 746 c 1
383 799 m 0
 383 29 361 60 361 30 c 0
 361 30 376 40 395 53 c 2
 486 114 l 1
 487 296 l 2
 487 369 488 561 488 776 c 0
 488 855 487 938 487 1018 c 2
 487 1558 l 1
 365 1457 367 1487 370 1452 c 0
 377 1356 383 1081 383 799 c 0
EndSplineSet
EndChar

StartChar: uniE014
Encoding: 57364 57364 417
Width: 1392
VWidth: 0
Flags: HW
LayerCount: 2
Fore
SplineSet
425 613 m 1
 547 732 756 882 977 882 c 0
 1173 882 1329 731 1329 575 c 0
 1329 258 950 0 767 -0 c 0
 657 0 593 108 607 136 c 0
 633 189 778 285 824 285 c 0
 836 285 837 278 839 272 c 0
 862 200 956 153 1008 173 c 0
 1012 174 1197 416 1013 607 c 0
 969 653 887 712 780 712 c 2
 779 712 l 2
 594 712 499 602 427 513 c 1
 431 157 440 168 440 158 c 0
 440 108 143 -21 81 -21 c 0
 67 -21 62 -17 62 -11 c 0
 62 26 159 32 181 141 c 0
 187 168 189 459 189 459 c 0
 189 584 137 730 46 697 c 0
 27 690 17 693 17 703 c 0
 17 739 170 882 267 882 c 0
 355 882 419 774 425 613 c 1
EndSplineSet
EndChar

StartChar: uniE014.conr
Encoding: 65760 -1 418
Width: 1392
VWidth: 0
Flags: HW
LayerCount: 2
Fore
SplineSet
425 613 m 1
 577 762 785 882 970 882 c 0
 1253 882 1556 563 1075 182 c 2
 1059 170 l 1
 1501 170 l 1
 1504 168 1508 166 1508 160 c 0
 1508 133 1408 38 1299 0 c 1
 660 -0 l 1
 623 29 801 165 881 170 c 0
 904 171 967 177 998 208 c 0
 1039 249 1095 333 1095 430 c 0
 1095 573 935 712 782 712 c 0
 585 712 485 586 427 513 c 1
 431 157 440 168 440 158 c 0
 440 108 143 -21 81 -21 c 0
 67 -21 62 -17 62 -11 c 0
 62 26 159 32 181 141 c 0
 187 168 189 459 189 459 c 0
 189 584 137 730 46 697 c 0
 27 690 17 693 17 703 c 0
 17 739 170 882 267 882 c 0
 355 882 419 773 425 613 c 1
EndSplineSet
EndChar

StartChar: uniE014.conl
Encoding: 65761 -1 419
Width: 1392
VWidth: 0
Flags: HW
LayerCount: 2
Fore
SplineSet
425 614 m 1
 547 733 756 882 977 882 c 0
 1173 882 1329 731 1329 575 c 0
 1329 258 950 0 767 -0 c 0
 657 0 593 108 607 136 c 0
 633 189 778 285 824 285 c 0
 836 285 837 278 839 272 c 0
 862 200 956 153 1008 173 c 0
 1012 174 1197 416 1013 607 c 0
 969 653 887 712 780 712 c 2
 779 712 l 2
 594 712 499 602 427 513 c 1
 432 168 440 169 440 168 c 0
 440 117 118 -20 60 -21 c 2
 59 -21 l 2
 15 -21 53 18 111 51 c 0
 189 96 189 159 189 466 c 0
 189 563 162 692 61 701 c 0
 -114 716 -116 709 -116 722 c 0
 -116 758 18 861 89 880 c 0
 95 882 100 882 139 882 c 0
 151 882 167 882 187 882 c 2
 276 882 l 1
 307 874 417 853 425 614 c 1
EndSplineSet
EndChar

StartChar: uniE014.conb
Encoding: 65762 -1 420
Width: 1392
VWidth: 0
Flags: HW
LayerCount: 2
Fore
SplineSet
425 613 m 1
 577 762 785 882 970 882 c 0
 1253 882 1556 563 1075 182 c 2
 1059 170 l 1
 1501 170 l 1
 1504 168 1508 166 1508 160 c 0
 1508 133 1408 38 1299 0 c 1
 660 -0 l 1
 623 29 801 165 881 170 c 0
 904 171 967 177 998 208 c 0
 1039 249 1095 333 1095 430 c 0
 1095 573 935 712 782 712 c 0
 585 712 485 585 427 513 c 1
 432 167 440 169 440 168 c 0
 440 117 118 -20 60 -21 c 2
 59 -21 l 2
 15 -21 53 18 111 51 c 0
 189 96 189 159 189 466 c 0
 189 563 162 692 61 701 c 0
 -114 716 -116 709 -116 722 c 0
 -116 758 18 861 89 880 c 0
 95 882 100 882 139 882 c 0
 151 882 167 882 187 882 c 2
 276 882 l 1
 306 874 417 853 425 613 c 1
EndSplineSet
EndChar

StartChar: uniE014.dec
Encoding: 65763 -1 421
Width: 1708
VWidth: 0
Flags: HW
LayerCount: 2
Fore
SplineSet
701 718 m 1
 836 858 1051 1016 1284 1016 c 0
 1461 1016 1646 848 1646 652 c 0
 1646 255 1249 0 1067 -0 c 0
 958 0 877 109 904 150 c 0
 946 212 1097 304 1125 289 c 0
 1125 289 1167 170 1274 170 c 0
 1310 170 1312 173 1342 229 c 0
 1393 324 1413 431 1413 498 c 0
 1413 682 1242 845 1080 845 c 0
 875 845 778 708 701 589 c 1
 701 410 702 258 702 241 c 2
 702 206 l 1
 617 35 407 20 333 -88 c 0
 333 -88 242 -196 224 -212 c 0
 180 -251 76 -314 24 -314 c 0
 7 -314 11 -302 18 -289 c 0
 34 -259 54 -234 92 -197 c 2
 119 -172 l 1
 149 -81 152 134 152 451 c 0
 152 551 154 870 33 822 c 0
 14 814 4 815 4 825 c 0
 4 865 144 1023 244 1023 c 0
 355 1023 369 790 369 790 c 0
 369 790 453 838 561 932 c 0
 579 947 675 1030 698 1013 c 0
 700 1011 701 1006 701 718 c 1
374 702 m 1
 378 624 378 351 378 312 c 0
 378 116 376 88 370 32 c 1
 396 51 440 81 458 93 c 2
 486 111 l 1
 487 170 l 2
 487 194 488 281 488 386 c 0
 488 425 487 467 487 508 c 2
 487 786 l 1
 469 772 415 731 397 718 c 2
 374 702 l 1
EndSplineSet
EndChar

StartChar: uniE010
Encoding: 57360 57360 422
Width: 2037
VWidth: 0
Flags: HW
LayerCount: 2
Fore
SplineSet
424 635 m 1
 535 744 724 882 923 882 c 0
 1066 882 1164 792 1219 678 c 1
 1325 772 1485 883 1662 883 c 0
 1828 883 1974 725 1974 558 c 0
 1974 235 1612 0 1448 0 c 0
 1352 0 1291 86 1300 118 c 0
 1315 170 1520 308 1533 262 c 0
 1547 213 1604 170 1655 170 c 2
 1668 170 l 1
 1714 244 1741 326 1741 407 c 0
 1741 557 1602 712 1460 712 c 0
 1327 712 1270 638 1239 604 c 1
 1239 574 l 2
 1235 220 864 0 711 -0 c 0
 617 0 564 85 564 113 c 0
 564 163 786 308 798 262 c 0
 801 249 827 174 929 169 c 1
 1122 493 899 712 723 712 c 2
 722 712 l 2
 579 712 513 645 427 518 c 1
 431 157 440 168 440 158 c 0
 440 108 143 -21 81 -21 c 0
 67 -21 62 -17 62 -11 c 0
 62 26 159 32 181 141 c 0
 187 168 189 459 189 459 c 0
 189 584 137 730 46 697 c 0
 27 690 17 693 17 703 c 0
 17 739 170 882 267 882 c 0
 352 882 416 774 424 635 c 1
EndSplineSet
EndChar

StartChar: uniE010.conr
Encoding: 65764 -1 423
Width: 2037
VWidth: 0
Flags: HW
LayerCount: 2
Fore
SplineSet
424 635 m 1
 535 744 724 882 923 882 c 0
 1066 882 1164 792 1219 678 c 1
 1325 772 1485 883 1662 883 c 0
 1852 883 2031 670 1955 462 c 0
 1906 327 1769 216 1710 170 c 1
 2147 170 l 1
 2150 168 2153 166 2153 160 c 0
 2153 133 2053 38 1944 0 c 1
 1625 -0 l 2
 1570 -0 1524 0 1485 -0 c 0
 1303 0 1290 -6 1301 18 c 0
 1324 69 1468 170 1523 170 c 0
 1534 170 1620 176 1653 210 c 0
 1708 268 1740 343 1740 410 c 0
 1740 552 1605 712 1460 712 c 0
 1327 712 1270 638 1239 604 c 1
 1239 574 l 2
 1235 220 864 0 711 -0 c 0
 617 0 564 85 564 113 c 0
 564 163 786 308 798 262 c 0
 801 249 827 174 929 169 c 1
 1122 493 899 712 723 712 c 2
 722 712 l 2
 579 712 513 645 427 518 c 1
 431 157 440 168 440 158 c 0
 440 108 143 -21 81 -21 c 0
 67 -21 62 -17 62 -11 c 0
 62 26 159 32 181 141 c 0
 187 168 189 459 189 459 c 0
 189 584 137 730 46 697 c 0
 27 690 17 693 17 703 c 0
 17 739 170 882 267 882 c 0
 352 882 416 774 424 635 c 1
EndSplineSet
EndChar

StartChar: uniE010.conl
Encoding: 65765 -1 424
Width: 2037
VWidth: 0
Flags: HW
LayerCount: 2
Fore
SplineSet
424 636 m 1
 535 745 724 882 923 882 c 0
 1066 882 1164 792 1219 678 c 1
 1325 772 1485 883 1662 883 c 0
 1828 883 1974 725 1974 558 c 0
 1974 235 1612 0 1448 0 c 0
 1352 0 1291 86 1300 118 c 0
 1315 170 1520 308 1533 262 c 0
 1547 213 1604 170 1655 170 c 2
 1668 170 l 1
 1714 244 1741 326 1741 407 c 0
 1741 557 1602 712 1460 712 c 0
 1327 712 1270 638 1239 604 c 1
 1239 574 l 2
 1235 220 864 0 711 -0 c 0
 617 0 564 85 564 113 c 0
 564 163 786 308 798 262 c 0
 801 249 827 174 929 169 c 1
 1122 493 899 712 723 712 c 2
 722 712 l 2
 574 712 509 639 427 518 c 1
 432 167 440 174 440 168 c 0
 440 117 118 -20 60 -21 c 2
 59 -21 l 2
 15 -21 53 18 111 51 c 0
 189 96 189 159 189 466 c 0
 189 563 162 692 61 701 c 0
 -114 716 -116 709 -116 722 c 0
 -116 758 18 861 89 880 c 0
 95 882 100 882 139 882 c 0
 151 882 167 882 187 882 c 2
 276 882 l 1
 289 878 412 863 424 636 c 1
EndSplineSet
EndChar

StartChar: uniE010.conb
Encoding: 65766 -1 425
Width: 2037
VWidth: 0
Flags: HW
LayerCount: 2
Fore
SplineSet
424 636 m 1
 535 745 724 882 923 882 c 0
 1066 882 1164 792 1219 678 c 1
 1325 772 1485 883 1662 883 c 0
 1852 883 2031 670 1955 462 c 0
 1906 327 1769 216 1710 170 c 1
 2147 170 l 1
 2150 168 2153 166 2153 160 c 0
 2153 133 2053 38 1944 0 c 1
 1625 -0 l 2
 1570 -0 1524 0 1485 -0 c 0
 1303 0 1290 -6 1301 18 c 0
 1324 69 1468 170 1523 170 c 0
 1534 170 1620 176 1653 210 c 0
 1708 268 1740 343 1740 410 c 0
 1740 552 1605 712 1460 712 c 0
 1327 712 1270 638 1239 604 c 1
 1239 574 l 2
 1235 220 864 0 711 -0 c 0
 617 0 564 85 564 113 c 0
 564 163 786 308 798 262 c 0
 801 249 827 174 929 169 c 1
 1122 493 899 712 723 712 c 2
 722 712 l 2
 574 712 509 639 427 518 c 1
 432 167 440 174 440 168 c 0
 440 117 118 -20 60 -21 c 2
 59 -21 l 2
 15 -21 53 18 111 51 c 0
 189 96 189 159 189 466 c 0
 189 563 162 692 61 701 c 0
 -114 716 -116 709 -116 722 c 0
 -116 758 18 861 89 880 c 0
 95 882 100 882 139 882 c 0
 151 882 167 882 187 882 c 2
 276 882 l 1
 289 878 412 863 424 636 c 1
EndSplineSet
EndChar

StartChar: uniE010.dec
Encoding: 65767 -1 426
Width: 2386
VWidth: 0
Flags: HW
LayerCount: 2
Fore
SplineSet
701 747 m 1
 805 857 1008 1015 1222 1015 c 0
 1440 1015 1527 782 1527 782 c 0
 1529 780 1740 1014 1993 1015 c 1
 1995 1015 l 2
 2192 1015 2323 802 2323 637 c 0
 2323 218 1934 0 1781 -0 c 0
 1673 0 1622 101 1626 121 c 0
 1635 167 1846 318 1861 266 c 0
 1865 253 1894 171 2000 170 c 1
 2066 275 2090 389 2090 479 c 0
 2090 661 1947 845 1793 845 c 0
 1648 845 1596 754 1551 691 c 1
 1551 650 l 2
 1549 223 1171 0 1007 -0 c 0
 904 0 845 100 855 125 c 0
 875 177 1075 317 1088 267 c 0
 1092 250 1122 174 1225 169 c 1
 1294 280 1317 400 1317 497 c 0
 1317 689 1162 845 1019 845 c 0
 993 845 901 837 851 797 c 0
 813 766 754 692 701 593 c 1
 701 412 702 258 702 241 c 2
 702 206 l 1
 617 35 407 20 333 -88 c 0
 333 -88 242 -196 224 -212 c 0
 180 -251 76 -314 24 -314 c 0
 7 -314 11 -302 18 -289 c 0
 34 -259 54 -234 92 -197 c 2
 119 -172 l 1
 149 -81 152 134 152 451 c 0
 152 551 154 870 33 822 c 0
 14 814 4 815 4 825 c 0
 4 865 144 1023 244 1023 c 0
 355 1023 369 790 369 790 c 0
 369 790 453 838 561 932 c 0
 579 947 675 1030 698 1013 c 0
 700 1011 701 1007 701 747 c 1
374 702 m 1
 378 624 378 351 378 312 c 0
 378 116 376 88 370 32 c 1
 396 51 440 81 458 93 c 2
 486 111 l 1
 487 170 l 2
 487 194 488 281 488 386 c 0
 488 425 487 467 487 508 c 2
 487 786 l 1
 469 772 415 731 397 718 c 2
 374 702 l 1
EndSplineSet
EndChar

StartChar: uniE018
Encoding: 57368 57368 427
Width: 1343
VWidth: 0
Flags: HW
LayerCount: 2
Fore
SplineSet
378 615 m 1
 500 733 708 882 928 882 c 0
 1124 882 1280 731 1280 575 c 0
 1280 258 901 0 718 -0 c 0
 608 0 544 108 558 136 c 0
 584 189 729 285 775 285 c 0
 787 285 788 278 790 272 c 0
 813 200 908 153 960 173 c 0
 964 174 1149 416 965 607 c 0
 921 653 839 712 732 712 c 2
 730 712 l 2
 545 712 450 602 378 513 c 1
 381 -545 377 -506 404 -552 c 0
 406 -556 408 -561 408 -563 c 0
 408 -581 354 -620 284 -652 c 0
 242 -672 71 -834 -9 -834 c 0
 -16 -834 -19 -831 -19 -825 c 0
 -19 -775 99 -752 124 -612 c 0
 131 -575 139 1202 139 1202 c 0
 139 1424 100 1546 33 1518 c 0
 9 1508 -8 1508 -8 1520 c 0
 -8 1558 151 1701 247 1701 c 0
 362 1701 375 1522 376 1209 c 0
 377 967 377 808 378 615 c 1
EndSplineSet
EndChar

StartChar: uniE018.conr
Encoding: 65768 -1 428
Width: 1343
VWidth: 0
Flags: HW
LayerCount: 2
Fore
SplineSet
378 615 m 1
 530 764 737 882 921 882 c 0
 1204 882 1507 563 1026 182 c 2
 1010 170 l 1
 1453 170 l 1
 1456 168 1460 166 1460 160 c 0
 1460 133 1359 38 1250 0 c 1
 611 -0 l 1
 574 29 753 165 833 170 c 0
 856 171 919 177 950 208 c 0
 991 249 1046 333 1046 430 c 0
 1046 573 886 712 733 712 c 0
 536 712 436 586 378 513 c 1
 381 -545 377 -506 404 -552 c 0
 406 -556 408 -561 408 -563 c 0
 408 -581 354 -620 284 -652 c 0
 242 -672 71 -834 -9 -834 c 0
 -16 -834 -19 -831 -19 -825 c 0
 -19 -775 99 -752 124 -612 c 0
 131 -575 139 1202 139 1202 c 0
 139 1424 100 1546 33 1518 c 0
 9 1508 -8 1508 -8 1520 c 0
 -8 1558 151 1701 247 1701 c 0
 362 1701 375 1522 376 1209 c 0
 377 967 377 808 378 615 c 1
EndSplineSet
EndChar

StartChar: uniE018.dec
Encoding: 65769 -1 429
Width: 1708
VWidth: 0
Flags: HW
LayerCount: 2
Fore
SplineSet
701 718 m 1
 836 858 1051 1016 1284 1016 c 0
 1461 1016 1646 848 1646 652 c 0
 1646 255 1249 0 1067 -0 c 0
 958 0 877 109 904 150 c 0
 946 212 1097 304 1125 289 c 0
 1125 289 1167 170 1274 170 c 0
 1310 170 1312 173 1342 229 c 0
 1393 324 1413 431 1413 498 c 0
 1413 682 1242 845 1080 845 c 0
 875 845 778 708 701 589 c 1
 701 86 702 -335 702 -380 c 2
 702 -470 l 1
 617 -641 417 -652 305 -780 c 0
 284 -805 276 -802 183 -926 c 0
 117 -1014 -14 -1070 -49 -1070 c 0
 -60 -1070 -65 -1067 -65 -1061 c 0
 -65 -1047 -13 -959 73 -879 c 0
 97 -857 96 -857 103 -834 c 0
 138 -713 162 -380 162 495 c 0
 162 1295 134 1598 23 1598 c 0
 3 1598 -39 1573 -26 1609 c 0
 -12 1649 116 1795 210 1795 c 0
 323 1795 349 1549 349 1549 c 0
 349 1549 444 1603 555 1698 c 0
 596 1733 677 1800 698 1785 c 0
 700 1783 701 1771 701 747 c 0
 701 738 701 727 701 718 c 1
388 403 m 0
 388 -644 352 -624 352 -656 c 0
 352 -656 356 -653 388 -631 c 2
 486 -566 l 1
 487 -270 l 2
 487 -148 488 150 488 469 c 0
 488 576 487 686 487 792 c 2
 487 1558 l 1
 438 1518 361 1468 361 1462 c 0
 361 1437 388 1303 388 403 c 0
EndSplineSet
EndChar

StartChar: uniE01C
Encoding: 57372 57372 430
Width: 1988
VWidth: 0
Flags: HW
LayerCount: 2
Fore
SplineSet
378 638 m 1
 488 746 676 882 874 882 c 0
 1017 882 1115 792 1170 678 c 1
 1276 772 1436 883 1613 883 c 0
 1779 883 1925 725 1925 558 c 0
 1925 235 1563 0 1399 0 c 0
 1303 0 1242 86 1251 118 c 0
 1266 170 1471 308 1484 262 c 0
 1498 213 1556 170 1607 170 c 2
 1619 170 l 1
 1665 244 1692 326 1692 407 c 0
 1692 557 1554 712 1412 712 c 0
 1279 712 1221 638 1190 604 c 1
 1190 574 l 2
 1186 220 816 0 663 -0 c 0
 569 0 515 85 515 113 c 0
 515 163 737 308 749 262 c 0
 752 249 779 174 881 169 c 1
 1074 493 850 712 674 712 c 2
 673 712 l 2
 526 712 460 640 378 518 c 1
 381 -539 376 -505 404 -552 c 0
 406 -556 408 -561 408 -563 c 0
 408 -581 354 -620 284 -652 c 0
 242 -672 71 -834 -9 -834 c 0
 -16 -834 -19 -831 -19 -825 c 0
 -19 -775 99 -752 124 -612 c 0
 131 -575 139 1202 139 1202 c 0
 139 1424 100 1546 33 1518 c 0
 9 1508 -8 1508 -8 1520 c 0
 -8 1558 151 1701 247 1701 c 0
 362 1701 375 1522 376 1209 c 0
 377 977 377 821 378 638 c 1
EndSplineSet
EndChar

StartChar: uniE01C.conr
Encoding: 65770 -1 431
Width: 1988
VWidth: 0
Flags: HW
LayerCount: 2
Fore
SplineSet
378 638 m 1
 488 746 676 882 874 882 c 0
 1017 882 1115 792 1170 678 c 1
 1276 772 1436 883 1613 883 c 0
 1803 883 1983 670 1907 462 c 0
 1858 327 1721 216 1662 170 c 1
 2098 170 l 1
 2101 168 2105 166 2105 160 c 0
 2105 133 2004 38 1895 0 c 1
 1577 -0 l 2
 1522 -0 1475 0 1436 -0 c 0
 1254 0 1242 -6 1253 18 c 0
 1276 69 1419 170 1474 170 c 0
 1485 170 1571 176 1604 210 c 0
 1659 268 1692 343 1692 410 c 0
 1692 552 1557 712 1412 712 c 0
 1279 712 1221 638 1190 604 c 1
 1190 574 l 2
 1186 220 816 0 663 -0 c 0
 569 0 515 85 515 113 c 0
 515 163 737 308 749 262 c 0
 752 249 779 174 881 169 c 1
 1074 493 850 712 674 712 c 2
 673 712 l 2
 526 712 460 640 378 518 c 1
 381 -539 376 -505 404 -552 c 0
 406 -556 408 -561 408 -563 c 0
 408 -581 354 -620 284 -652 c 0
 242 -672 71 -834 -9 -834 c 0
 -16 -834 -19 -831 -19 -825 c 0
 -19 -775 99 -752 124 -612 c 0
 131 -575 139 1202 139 1202 c 0
 139 1424 100 1546 33 1518 c 0
 9 1508 -8 1508 -8 1520 c 0
 -8 1558 151 1701 247 1701 c 0
 362 1701 375 1522 376 1209 c 0
 377 977 377 821 378 638 c 1
EndSplineSet
EndChar

StartChar: uniE01C.dec
Encoding: 65771 -1 432
Width: 2386
VWidth: 0
Flags: HW
LayerCount: 2
Fore
SplineSet
701 747 m 1
 805 857 1008 1015 1222 1015 c 0
 1440 1015 1527 782 1527 782 c 0
 1529 780 1740 1014 1993 1015 c 1
 1995 1015 l 2
 2192 1015 2323 802 2323 637 c 0
 2323 218 1934 0 1781 -0 c 0
 1673 0 1622 101 1626 121 c 0
 1635 167 1846 318 1861 266 c 0
 1865 253 1894 171 2000 170 c 1
 2066 275 2090 389 2090 479 c 0
 2090 661 1947 845 1793 845 c 0
 1648 845 1596 754 1551 691 c 1
 1551 650 l 2
 1549 223 1171 0 1007 -0 c 0
 904 0 845 100 855 125 c 0
 875 177 1075 317 1088 267 c 0
 1092 250 1122 174 1225 169 c 1
 1294 280 1317 400 1317 497 c 0
 1317 689 1162 845 1019 845 c 0
 993 845 901 837 851 797 c 0
 813 766 754 692 701 593 c 1
 701 88 702 -335 702 -380 c 2
 702 -470 l 1
 617 -641 417 -652 305 -780 c 0
 284 -805 276 -802 183 -926 c 0
 117 -1014 -14 -1070 -49 -1070 c 0
 -60 -1070 -65 -1067 -65 -1061 c 0
 -65 -1047 -13 -959 73 -879 c 0
 97 -857 96 -857 103 -834 c 0
 138 -713 162 -380 162 495 c 0
 162 1295 134 1598 23 1598 c 0
 3 1598 -39 1573 -26 1609 c 0
 -12 1649 116 1795 210 1795 c 0
 323 1795 349 1549 349 1549 c 0
 349 1549 444 1603 555 1698 c 0
 596 1733 677 1800 698 1785 c 0
 700 1783 701 1771 701 747 c 1
388 403 m 0
 388 -644 352 -624 352 -656 c 0
 352 -656 356 -653 388 -631 c 2
 486 -566 l 1
 487 -270 l 2
 487 -148 488 150 488 469 c 0
 488 576 487 686 487 792 c 2
 487 1558 l 1
 438 1518 361 1468 361 1462 c 0
 361 1437 388 1303 388 403 c 0
EndSplineSet
EndChar

StartChar: uniE001
Encoding: 57345 57345 433
Width: 1368
VWidth: 0
Flags: HW
LayerCount: 2
Fore
SplineSet
419 629 m 1
 528 739 723 883 926 883 c 0
 1120 883 1247 710 1247 584 c 0
 1247 414 1093 259 990 183 c 1
 998 183 l 2
 1229 183 1230 178 1279 210 c 0
 1323 239 1373 262 1396 262 c 0
 1397 262 1399 262 1401 262 c 0
 1404 262 1409 258 1409 253 c 0
 1409 204 1153 41 1053 8 c 0
 1021 -3 1016 -4 970 -4 c 0
 820 -4 671 7 472 7 c 0
 458 7 443 7 428 7 c 1
 429 -511 428 -491 448 -530 c 0
 453 -539 454 -544 454 -548 c 0
 454 -578 347 -638 312 -667 c 0
 194 -765 88 -819 42 -819 c 0
 -17 -819 113 -728 118 -721 c 0
 202 -621 183 -601 187 7 c 0
 187 8 187 9 187 10 c 0
 187 45 189 221 189 361 c 0
 189 370 197 604 119 682 c 0
 68 732 17 668 17 701 c 0
 17 737 173 883 274 883 c 0
 332 883 396 833 419 629 c 1
729 712 m 0
 569 712 497 622 425 517 c 1
 426 450 426 332 427 168 c 1
 529 178 625 182 888 182 c 1
 923 216 1013 297 1013 430 c 0
 1013 566 874 712 729 712 c 0
EndSplineSet
EndChar

StartChar: uniE001.conr
Encoding: 65772 -1 434
Width: 1368
VWidth: 0
Flags: HW
LayerCount: 2
Fore
SplineSet
419 629 m 1
 528 739 723 883 926 883 c 0
 1120 883 1247 710 1247 584 c 0
 1247 414 1094 262 996 187 c 1
 1260 186 1475 172 1481 167 c 0
 1483 165 1484 163 1484 160 c 0
 1484 125 1337 8 1265 -0 c 0
 1251 -2 1153 -4 1096 -4 c 2
 1094 -4 l 2
 977 -4 832 10 511 10 c 0
 478 10 449 10 428 10 c 1
 429 -511 428 -490 448 -530 c 0
 453 -539 454 -544 454 -548 c 0
 454 -578 347 -638 312 -667 c 0
 194 -765 88 -819 42 -819 c 0
 -17 -819 113 -728 118 -721 c 0
 202 -621 183 -601 187 7 c 0
 187 8 186 8 186 9 c 0
 186 44 189 220 189 361 c 0
 189 370 197 604 119 682 c 0
 68 732 17 668 17 701 c 0
 17 737 173 883 274 883 c 0
 332 883 396 833 419 629 c 1
427 168 m 1
 522 178 709 187 841 187 c 0
 856 187 874 187 893 187 c 1
 912 206 1013 293 1013 430 c 0
 1013 566 874 712 729 712 c 0
 569 712 497 622 425 517 c 1
 426 450 426 332 427 168 c 1
EndSplineSet
EndChar

StartChar: uniE001.conl
Encoding: 65773 -1 435
Width: 1368
VWidth: 0
Flags: HW
LayerCount: 2
Fore
SplineSet
421 631 m 1
 550 760 742 883 926 883 c 0
 1120 883 1247 710 1247 584 c 0
 1247 414 1093 259 990 183 c 1
 998 183 l 2
 1229 183 1230 178 1279 210 c 0
 1323 239 1373 262 1396 262 c 0
 1397 262 1399 262 1401 262 c 0
 1404 262 1409 258 1409 253 c 0
 1409 204 1153 41 1053 8 c 0
 1021 -3 1016 -4 970 -4 c 0
 820 -4 671 7 472 7 c 0
 458 7 442 7 428 7 c 1
 430 -511 426 -488 447 -530 c 0
 452 -539 454 -544 454 -548 c 0
 454 -578 347 -638 312 -667 c 0
 194 -765 88 -819 42 -819 c 0
 -17 -819 113 -728 118 -721 c 0
 199 -625 183 -567 185 -283 c 2
 187 7 l 2
 187 8 187 9 187 10 c 0
 187 11 187 11 187 12 c 2
 188 221 l 2
 189 299 189 354 189 393 c 0
 189 433 201 664 87 697 c 0
 76 700 69 701 -31 708 c 0
 -120 714 -116 713 -116 722 c 0
 -116 758 18 861 89 880 c 0
 97 882 104 883 182 883 c 2
 197 883 l 2
 301 883 400 894 421 631 c 1
729 712 m 0
 569 712 498 622 426 518 c 1
 426 476 427 329 428 168 c 1
 611 185 796 182 888 182 c 1
 923 216 1013 297 1013 430 c 0
 1013 566 874 712 729 712 c 0
EndSplineSet
EndChar

StartChar: uniE001.conb
Encoding: 65774 -1 436
Width: 1368
VWidth: 0
Flags: HW
LayerCount: 2
Fore
SplineSet
421 631 m 1
 550 760 742 883 926 883 c 0
 1120 883 1247 710 1247 584 c 0
 1247 414 1094 262 996 187 c 1
 1260 186 1475 172 1481 167 c 0
 1483 165 1484 163 1484 160 c 0
 1484 125 1337 8 1265 -0 c 0
 1251 -2 1153 -4 1096 -4 c 2
 1094 -4 l 2
 977 -4 832 10 511 10 c 0
 478 10 449 10 428 10 c 1
 430 -457 424 -485 447 -530 c 0
 452 -539 454 -544 454 -548 c 0
 454 -578 347 -638 312 -667 c 0
 194 -765 88 -819 42 -819 c 0
 -17 -819 113 -728 118 -721 c 0
 199 -625 183 -567 185 -283 c 2
 187 7 l 2
 187 8 186 8 186 9 c 0
 186 10 187 12 187 13 c 2
 188 221 l 2
 189 299 189 354 189 393 c 0
 189 433 201 664 87 697 c 0
 76 700 69 701 -31 708 c 0
 -120 714 -116 713 -116 722 c 0
 -116 758 18 861 89 880 c 0
 97 882 104 883 182 883 c 2
 197 883 l 2
 301 883 400 894 421 631 c 1
428 168 m 1
 523 178 709 187 841 187 c 0
 856 187 874 187 893 187 c 1
 912 206 1013 293 1013 430 c 0
 1013 566 874 712 729 712 c 0
 569 712 498 622 426 518 c 1
 426 476 427 329 428 168 c 1
EndSplineSet
EndChar

